<svg xmlns="http://www.w3.org/2000/svg" fill-rule="evenodd" stroke-linejoin="round" stroke-miterlimit="1.414" clip-rule="evenodd" viewBox="0 0 719 631">
  <circle cx="291.055" cy="106.126" r="73.93" fill="#f5f5f5"></circle>
  <path fill="#333" fill-rule="nonzero" d="M331.725 113.416c0 24.59-17.67 36.7-40.61 36.7-22.94 0-42.47-12.1-42.47-36.7s18.6-44.53 41.54-44.53c22.94 0 41.54 19.93 41.54 44.53z"></path>
  <path fill="#e23b4a" fill-rule="nonzero" d="M291.115 180.346a73.591 73.591 0 0 0 40.64-12.16c-2.73-14.89-13.09-15.77-13.09-15.77h-57.17s-9.78.8-12.84 14.5a73.61 73.61 0 0 0 42.46 13.43z"></path>
  <path fill-rule="nonzero" d="M278.845 134.286h22.87v18.93c0 5.925-4.875 10.8-10.8 10.8h-1.35c-5.894-.044-10.72-4.905-10.72-10.8v-18.93z"></path>
  <path fill="#fda57d" fill-rule="nonzero" d="M280.845 133.416h18.75c1.13 0 2.06.93 2.06 2.06v16.94c0 5.925-4.875 10.8-10.8 10.8h-1.28c-5.898-.038-10.73-4.902-10.73-10.8v-16.91a2.078 2.078 0 0 1 2-2.09z"></path>
  <path fill-rule="nonzero" d="M278.865 142.926a32.927 32.927 0 0 0 22.87.06v-2.81h-22.87v2.75z"></path>
  <circle cx="290.335" cy="111.676" r="32.77" fill="#fda57d"></circle>
  <path fill-rule="nonzero" d="M252.565 113.826s20.41-2.47 35.87-22.27c0 0 20.41 22.47 34.63 20 0 0 8.25-8.66 0-17.32s-14.64-19.58-25.56-18.14c-10.92 1.44-24.33 2.06-30.1 7.22-5.77 5.16-14.84 30.51-14.84 30.51z"></path>
  <path fill="#333" fill-rule="nonzero" d="M252.565 113.416s20.41-2.47 35.87-22.27c0 0 20.41 22.47 34.63 20 0 0 8.25-8.66 0-17.32s-14.64-19.58-25.56-18.14c-10.92 1.44-24.33 2.06-30.1 7.22-5.77 5.16-14.84 30.51-14.84 30.51z"></path>
  <ellipse cx="257.545" cy="111.646" fill="#fda57d" rx="3.05" ry="5.72"></ellipse>
  <ellipse cx="323.105" cy="111.646" fill="#fda57d" rx="3.05" ry="5.72"></ellipse>
  <circle cx="450.99" cy="235.371" r="73.93" fill="#f5f5f5"></circle>
  <path fill="#333" fill-rule="nonzero" d="M422.13 236.021s-8.38 41.3-13 39c0 0 44.12 38.11 83.08 0 0 0-6.86-29.1-16.77-39h-53.31z"></path>
  <path fill="#e23b4a" fill-rule="nonzero" d="M451.19 309.521a73.591 73.591 0 0 0 40.64-12.16c-2.72-14.89-13.09-15.74-13.09-15.74h-57.16s-9.78.8-12.84 14.5a73.61 73.61 0 0 0 42.45 13.4z"></path>
  <circle cx="450.42" cy="233.741" r="32.77" fill="#333"></circle>
  <path fill-rule="nonzero" d="M438.9 263.461h22.87v18.93c0 5.917-4.863 10.789-10.78 10.8h-1.3c-5.925 0-10.8-4.875-10.8-10.8v-18.93h.01z"></path>
  <path fill="#be7c5e" fill-rule="nonzero" d="M440.99 262.611h18.75c1.13 0 2.06.93 2.06 2.06v16.87c-.027 5.91-4.9 10.756-10.81 10.75h-1.3c-5.925 0-10.8-4.875-10.8-10.8v-16.82c0-1.13.93-2.06 2.06-2.06h.04z"></path>
  <path fill-rule="nonzero" d="M438.94 272.091a32.927 32.927 0 0 0 22.87.06v-2.81h-22.87v2.75z"></path>
  <circle cx="450.42" cy="240.851" r="32.77" fill="#be7c5e"></circle>
  <path fill="#333" fill-rule="nonzero" d="M419.08 228.401h62.5s-5.34-25.24-29-23.63c-23.66 1.61-33.5 23.63-33.5 23.63z"></path>
  <ellipse cx="418.32" cy="239.451" fill="#be7c5e" rx="3.05" ry="5.72"></ellipse>
  <ellipse cx="482.34" cy="239.451" fill="#be7c5e" rx="3.05" ry="5.72"></ellipse>
  <path fill="#333" fill-rule="nonzero" d="M419.08 229.291h62.5s-5.34-25.24-29-23.63c-23.66 1.61-33.5 23.63-33.5 23.63z"></path>
  <circle cx="610.91" cy="111.426" r="73.93" fill="#f5f5f5"></circle>
  <path fill="#e23b4a" fill-rule="nonzero" d="M610.97 185.646a73.6 73.6 0 0 0 40.64-12.16c-2.72-14.89-13.09-15.74-13.09-15.74h-57.2s-9.78.8-12.84 14.5a73.613 73.613 0 0 0 42.49 13.4z"></path>
  <circle cx="610.19" cy="109.866" r="35.69" fill="#72351c"></circle>
  <path fill-rule="nonzero" d="M598.68 139.586h22.87v18.94c0 5.925-4.875 10.8-10.8 10.8h-1.28c-5.925 0-10.8-4.875-10.8-10.8v-18.94h.01z"></path>
  <path fill="#fda57d" fill-rule="nonzero" d="M600.74 138.736h18.75c1.13 0 2.06.93 2.06 2.06v16.87c0 5.925-4.875 10.8-10.8 10.8h-1.28c-5.925 0-10.8-4.875-10.8-10.8v-16.87c0-1.13.93-2.06 2.06-2.06h.01z"></path>
  <path fill-rule="nonzero" d="M598.72 148.226a32.927 32.927 0 0 0 22.87.06v-2.81h-22.87v2.75z"></path>
  <circle cx="610.19" cy="116.976" r="32.77" fill="#fda57d"></circle>
  <path fill-rule="nonzero" d="M586.85 87.166s13.81 28 52.78 11.75l-9.07-14.22-16.08-5.77-27.63 8.24z"></path>
  <path fill="#72351c" fill-rule="nonzero" d="M586.85 86.756s13.81 28 52.78 11.75l-9.07-14.18-16.08-5.77-27.63 8.2z"></path>
  <path fill="#72351c" fill-rule="nonzero" d="M586.73 84.856a18.921 18.921 0 0 1 4.69-7.63c6.45-6.37 17-7.72 22.44-15 .375.646.573 1.381.573 2.128 0 1.67-.988 3.191-2.513 3.872 5.19 0 11.21-.49 14.15-4.76a9.738 9.738 0 0 1-1.64 10.26c4.6.21 9.52 3.33 9.81 7.93.2 3.06-1.72 6-4.24 7.72a23.569 23.569 0 0 1-8.56 3.22c-8.76 1.93-40.42 10.02-34.71-7.74zm56.24 32.41h-.87l-16.9 15c-16.29-7.63-28.24 0-28.24 0l-17.74-14.38-1.79.22c.436 17.666 15.088 31.961 32.76 31.961 17.977 0 32.77-14.793 32.77-32.77v-.031h.01zm-32.82 20.82c-6.38 0-11.54-1.29-11.54-2.89s5.17-2.89 11.54-2.89c6.37 0 11.54 1.29 11.54 2.89s-5.17 2.89-11.54 2.89z"></path>
  <ellipse cx="577.41" cy="116.946" fill="#fda57d" rx="3.05" ry="5.72"></ellipse>
  <ellipse cx="642.96" cy="116.946" fill="#fda57d" rx="3.05" ry="5.72"></ellipse>
  <path fill="url(#_Linear1)" fill-rule="nonzero" d="M282.75 536.591c3-5.39 6.59-10.47 9.49-15.93 2.65-5 4.72-10.3 7.11-15.44 4.09-8.8 9.13-17.12 13.72-25.68 3-5.61 5.9-11.72 5.32-18.06-.55-6-4.07-11.2-5.43-17-5.54-23.81-18.87-45.67-27-68.7-2.08-5.84-4.1-11.72-6.7-17.36-5-10.85-12-20.6-19-30.27a85.56 85.56 0 0 0-8.4-10.44c-2.51-2.51-5.33-4.72-7.61-7.44-4.7-5.6-6.9-13.66-12.78-18-.1.26-.21.51-.32.77-4.21-10.75-18.33-17.84-26.52-26.75a157.339 157.339 0 0 1-13.13-17.25l-17.83-25.77c-3.07-4.44-6.2-9-7.44-14.29-1.52-6.38-.11-13.18-1.61-19.56a24.677 24.677 0 0 0-5.45-10.36c.17-.05.35-.12.53-.16 3.4-.91 7-1.07 10.37-1.88 7.35-1.75 13.74-6.45 21.06-8.33 3.74-1 7.73-1.2 11.12-3a9.259 9.259 0 0 0 4.3-9.82c-2.37-12.55 4.25-25.27 3.13-38-.3-3.52-1.2-6.95-1.78-10.44-1.35-8.1-1.1-16.4-.62-24.62a51.982 51.982 0 0 1 8.15-10.13c4.5-4.34 9.87-8 13-13.43 2.73-4.81 3.39-10.62 2.7-16.12-.49-4-1.85-8.21-5-10.64-3.15-2.43-7.67-2.61-11.48-1.34-.53.17-1.05.38-1.56.6a13.116 13.116 0 0 0-10.34-.6c-3.8 1.26-7.06 3.77-10.12 6.38a23.119 23.119 0 0 0-4.72 5c-1.93 3-2.49 6.7-3.22 10.23a100.024 100.024 0 0 1-6.75 19.79c-.54 1.12-2 3.13-3.18 5.05l-2.14-.44c-.93 8.91-8.39 15.45-12.93 23.15-2.21 3.74-3.76 7.83-5.75 11.7a113.428 113.428 0 0 1-7.59 12.17c-2.7 4-5.403 7.963-8.11 11.89a168.866 168.866 0 0 1-11 14.88c-3.67-.3-7.34-.57-11-.63a89.281 89.281 0 0 0-18.31 1.63 50.858 50.858 0 0 1-.65-6.41v-.39c0-.52.06-1.14.13-1.81a37.033 37.033 0 0 0 16.412-30.743A37.037 37.037 0 0 0 95.64 80.741c.199-1.124.326-2.26.38-3.4v-2c0-.34 0-.68-.07-1a13.286 13.286 0 0 0-.34-2c-.08-.32-.17-.64-.28-1a9.468 9.468 0 0 0-.83-1.8.855.855 0 0 0-.07-.1 8.3 8.3 0 0 0-.41-.62c-.15-.2-.13-.16-.19-.24a4.874 4.874 0 0 0-.34-.42l-.25-.26c-.11-.12-.22-.24-.34-.35l-.28-.25-.35-.31-.32-.24-.36-.27-.35-.23-.36-.23c-.12-.08-.25-.15-.38-.22l-.37-.21-.4-.2-.37-.18-.44-.19-.36-.16-.48-.18-.34-.13-.52-.18-.31-.1-.57-.18-.27-.08-.62-.17-.24-.07-.65-.16-.19-.05-.72-.16h-.12l-1.06-.23c-4.38-.9-8.787-1.677-13.22-2.33-3.63-.54-7.35-1-10.93-.19-4.94 1.1-9.06 4.44-13.68 6.51-5.46 2.46-11.52 3.11-17.34 4.46s-11.81 3.66-15.46 8.43c-2.78 3.64-3.89 8.27-4.72 12.78-6.92 37.64.54 76.25 1.95 114.51.55 14.89-.12 30.81-8.56 43l24.58-.65c1.18 0 2.37-.07 3.57-.14 1.2-.07 2.4-.16 3.58-.3a23.682 23.682 0 0 0 8.91-2.67 15.353 15.353 0 0 0 3.47-2.7c3.34-3.44 5.12-8.25 6.75-12.85.55-1.55 1.1-3.12 1.59-4.7.2-.66.39-1.32.56-2l.08-.32.28.13c1 1.88 2.13 3.72 3.33 5.5 4.29 6.32 9.73 11.72 15.13 17.09 10.73 10.65 21.7 21.49 35.15 28.33 4.54 2.29 9.45 4.22 12.91 8 1.7 1.83 3.17 4.18 5.58 4.81 1.5.39 3.15 0 4.58.64 2.1.88 2.87 3.41 3.84 5.49.97 2.08 3.16 4.2 5.24 3.25a10.524 10.524 0 0 0 3.92 10.43 7.66 7.66 0 0 1 2.54 2.28c.32.858.496 1.764.52 2.68a10.592 10.592 0 0 0 3.79 6.49c-1.95 3.23-.39 7.86-.34 11.89 0 3.38-1.11 6.64-1.87 9.93-2.21 9.65-1 19.75.8 29.48 1 5.37 2.27 10.93 5.77 15.1 1.14 1.35 2.5 2.52 3.7 3.83a35.583 35.583 0 0 1 5.65 8.61 67.51 67.51 0 0 1 6.13 19.64 35.753 35.753 0 0 0 2.9 9.9c2.19 4.78.19 10.66 2.15 15.54.89 2.19 2.53 4.06 3.06 6.35.75 3.33-1 6.66-1.47 10.05-1.14 7.94 4.59 15.31 5.11 23.31a1.84 1.84 0 0 1-.28 1.35c-.39.44-1.06.43-1.59.68-1 .48-1.27 1.83-1.59 2.95-.32 1.12-1.22 2.39-2.33 2.05-16.43 8.79-33.44 16.91-49.87 25.7l-7.5 4-40.11 21.43a2.903 2.903 0 0 0-1.61 2.62c0 .48.06 1 .1 1.45-2.81.7-5.51 1.54-7.43 1.89-.79.15-1.58.3-2.36.47.19-.304.312-.645.36-1a2.007 2.007 0 0 0-1.77-2 6.407 6.407 0 0 0-2.89.38 42.118 42.118 0 0 1-7 1.29c-2.81.27-5.67.26-8.39 1-2.72.74-5.4 2.39-6.5 5a12.139 12.139 0 0 0-.72 4.72 72.26 72.26 0 0 0 2.18 18.34c.048.482.318.915.73 1.17.35.14.77 0 1.12.16a1.5 1.5 0 0 1 .65.82c1.68 3.82 2.07 8.08 2.52 12.24a326.304 326.304 0 0 0 2.53 18.45c.6 3.58 1.34 7.32 3.67 10.08 2.56 3 6.61 4.33 10.52 4.86 8.25 1.11 16.58-.56 24.72-2.27 1.52-.32 3.15-.71 4.17-1.89a4.706 4.706 0 0 0 1-3.33c-.19-4.11-3.93-7-7.33-9.31l-4.64-3.21a2.005 2.005 0 0 1-1-2.26l.3-6.07h-.9c1-4.28 2.61-8.39 5.76-11.33 2.17-2 5-3.4 7.27-5.22a18.004 18.004 0 0 0 10.11 3.71c6-8.08 14.45-13.58 22.9-19a224.001 224.001 0 0 1 21.25-11.86 317.445 317.445 0 0 1 18-8.21c8.6-3.62 17.36-6.85 26.13-10 5.85-2.1 11.75-4.17 17.14-7.27 14-8.09 23.89-24.24 22-40.41-2.38-20.4 2.71-41.66 2.37-62.2-.1-6-.32-12-2.14-17.75.423.3.821.635 1.19 1 3.64 3.4 4.52 8.8 8 12.68 2.71 3.05 6.83 5 8.47 8.72 1.25 2.85 1.07 6.7 3.68 8.34.74.47 1.62.67 2.36 1.13a7.906 7.906 0 0 1 2.19 2.37c2.77 3.95 5.64 8.18 5.94 13 .13 1.91-.05 4.12 1.35 5.41.4.37.91.64 1.12 1.14.44 1-.72 2.06-.92 3.17-.29 1.54 1.23 2.71 2.17 4a6.304 6.304 0 0 1 0 7.41c-8.2 10.65-9.68 25-16.85 36.39-2.48 3.93-5.24 7.65-7.64 11.63-7.38 12.22-11.11 26.26-14.73 40.09a22.147 22.147 0 0 0 6.15 6.86 34.008 34.008 0 0 1-6.85 12.65 32.02 32.02 0 0 0-2.26 2.83 5.506 5.506 0 0 0-2.23-1.68 79.226 79.226 0 0 0-2 17.5c0 3.88.53 8.31 3.68 10.55a13.037 13.037 0 0 0 4.09 1.69l6.86 2a7.163 7.163 0 0 0 3.79.37c.81-.23 1.53-.73 2.36-.89a5.797 5.797 0 0 1 2.66.35l5.93 1.73a39.202 39.202 0 0 1 5.86 2.07c1.69.81 3.25 1.86 4.91 2.76a59.327 59.327 0 0 0 8.57 3.52l10.22 3.52a37.168 37.168 0 0 0 8.86 2.3c2.1.18 4.23 0 6.3.36 1.58.27 3.11.84 4.7 1a12.325 12.325 0 0 0 7.4-2.2 6.606 6.606 0 0 0 2.14-1.93c1.5-2.34.21-5.43-1.25-7.79-2.71-4.38-6.1-8.48-10.57-11-1.81-1-3.77-1.74-5.64-2.66-5.32-2.6-9.33-6.94-14.36-9.91a3.42 3.42 0 0 0-4.31.29c-4.18-2.71-8.7-5.36-11-9.77a21.989 21.989 0 0 1-2-6.75c2.35.56 4.72 1 7.11 1.39 3.89-15.08 8.14-30.43 15.75-44.03zm-96.07-426.49c-.2 1.13-.42 2.25-.66 3.37-2 9.39-4.86 19.91-11.4 26.9a24.995 24.995 0 0 1-7.38 4.87l-.73.36c4.71-12.58 12.21-24.24 20.17-35.5z"></path>
  <path fill="#fbbebe" fill-rule="nonzero" d="M196.36 54.401c.74-3.49 1.3-7.15 3.23-10.16a23.213 23.213 0 0 1 4.73-5c3.06-2.59 6.33-5.08 10.14-6.34 3.81-1.26 8.29-1.09 11.49 1.33 3.2 2.42 4.55 6.59 5.05 10.57.68 5.47 0 11.23-2.71 16-3.1 5.41-8.48 9-13 13.34a51.64 51.64 0 0 0-8.47 10.56 30.035 30.035 0 0 1-3.86 5.64 7.335 7.335 0 0 1-6.13 2.45c-1.93-.31-3.5-1.65-5-2.93-1.85-1.62-6.83-4.51-7-7.08-.12-2.08 3.77-6.8 4.72-8.75a98.511 98.511 0 0 0 6.81-19.63z"></path>
  <path fill-opacity=".1" fill-rule="nonzero" d="M196.36 54.401c.74-3.49 1.3-7.15 3.23-10.16a23.213 23.213 0 0 1 4.73-5c3.06-2.59 6.33-5.08 10.14-6.34 3.81-1.26 8.29-1.09 11.49 1.33 3.2 2.42 4.55 6.59 5.05 10.57.68 5.47 0 11.23-2.71 16-3.1 5.41-8.48 9-13 13.34a51.64 51.64 0 0 0-8.47 10.56 30.035 30.035 0 0 1-3.86 5.64 7.335 7.335 0 0 1-6.13 2.45c-1.93-.31-3.5-1.65-5-2.93-1.85-1.62-6.83-4.51-7-7.08-.12-2.08 3.77-6.8 4.72-8.75a98.511 98.511 0 0 0 6.81-19.63z"></path>
  <path fill="#e23b4a" fill-rule="nonzero" d="M91.36 154.351a89.735 89.735 0 0 1 24.57-3c13.83.2 28.07 3.55 41.24-.69a71.467 71.467 0 0 0 9.89-4.29c2.65-1.32 5.35-2.68 7.38-4.84 6.55-6.94 9.37-17.39 11.42-26.72 2.05-9.33 2.58-18.91 3.11-28.44 3.41 1.59 7 3.16 10.78 2.84 3.78-.32 7.55-3.2 7.53-7-.56 8.83-1 17.77.49 26.49.58 3.46 1.48 6.87 1.79 10.37 1.12 12.64-5.51 25.27-3.14 37.74a9.169 9.169 0 0 1-4.3 9.75c-3.4 1.83-7.4 2.06-11.14 3-7.33 1.87-13.73 6.53-21.09 8.27-3.43.81-7 1-10.38 1.87-4.86 1.28-9.27 4.06-14.22 4.94-3.71.66-7.53.21-11.28.53-3.26.27-6.46 1.13-9.73 1.21-8 .2-15.57-4.33-20.89-10.34s-8.69-14.41-12.03-21.69z"></path>
  <path fill-opacity=".1" fill-rule="nonzero" d="M91.36 154.351a89.735 89.735 0 0 1 24.57-3c13.83.2 28.07 3.55 41.24-.69a71.467 71.467 0 0 0 9.89-4.29c2.65-1.32 5.35-2.68 7.38-4.84 6.55-6.94 9.37-17.39 11.42-26.72 2.05-9.33 2.58-18.91 3.11-28.44 3.41 1.59 7 3.16 10.78 2.84 3.78-.32 7.55-3.2 7.53-7-.56 8.83-1 17.77.49 26.49.58 3.46 1.48 6.87 1.79 10.37 1.12 12.64-5.51 25.27-3.14 37.74a9.169 9.169 0 0 1-4.3 9.75c-3.4 1.83-7.4 2.06-11.14 3-7.33 1.87-13.73 6.53-21.09 8.27-3.43.81-7 1-10.38 1.87-4.86 1.28-9.27 4.06-14.22 4.94-3.71.66-7.53.21-11.28.53-3.26.27-6.46 1.13-9.73 1.21-8 .2-15.57-4.33-20.89-10.34s-8.69-14.41-12.03-21.69z"></path>
  <path fill="#3f3d56" fill-rule="nonzero" d="M450.99 166.641c37.765 0 68.84 31.076 68.84 68.84 0 37.765-31.075 68.84-68.84 68.84s-68.84-31.075-68.84-68.84v-.01c.005-37.761 31.079-68.83 68.84-68.83m0-17c-47.09 0-85.84 38.75-85.84 85.84s38.75 85.84 85.84 85.84 85.84-38.75 85.84-85.84v-.01c-.055-47.068-38.772-85.781-85.84-85.83z"></path>
  <path fill="#3f3d56" d="M438.28 129.561h20.12v21.18h-20.12zM511.533 148.515l-17.246-10.363-10.908 18.155 17.246 10.363 10.908-18.155zM546.901 190.433l-9.754-17.598-18.524 10.269 9.754 17.597 18.524-10.268zM536.883 297.53l10.662-17.063-17.962-11.224-10.662 17.063 17.962 11.224zM373.609 200.694l9.755-17.597-18.525-10.268-9.754 17.597 18.524 10.268zM383.067 286.298l-10.662-17.062-17.961 11.223 10.662 17.063 17.961-11.224zM401.351 166.668l17.246-10.362-10.908-18.155-17.247 10.362 10.909 18.155zM438.28 320.201h20.12v21.18h-20.12zM500.628 304.277l-17.247 10.363 10.909 18.155 17.246-10.363-10.908-18.155zM390.445 322.434l17.246 10.362 10.909-18.155-17.246-10.362-10.909 18.155zM342.97 227.001h24.36v18h-24.36zM534.65 227.001h24.36v18h-24.36z"></path>
  <path fill="#3f3d56" fill-rule="nonzero" d="M610.91 42.731c37.765 0 68.84 31.076 68.84 68.84 0 37.765-31.075 68.84-68.84 68.84s-68.84-31.075-68.84-68.84v-.01c.005-37.761 31.079-68.83 68.84-68.83m0-17c-47.09 0-85.84 38.75-85.84 85.84s38.75 85.84 85.84 85.84 85.84-38.75 85.84-85.84v-.01c-.055-47.068-38.772-85.781-85.84-85.83z"></path>
  <path fill="#3f3d56" d="M598.2 5.661h20.12v21.18H598.2zM671.46 24.598l-17.246-10.362-10.909 18.154 17.246 10.363 10.909-18.155zM706.826 66.519l-9.754-17.597-18.525 10.268 9.755 17.597 18.524-10.268zM696.8 173.622l10.662-17.063-17.962-11.224-10.662 17.063 17.962 11.224zM533.523 76.796l9.754-17.597-18.524-10.268-9.755 17.597 18.525 10.268zM542.984 162.396l-10.662-17.063-17.962 11.224 10.662 17.063 17.962-11.224zM561.271 42.755l17.246-10.363-10.908-18.155L550.362 24.6l10.909 18.155zM598.2 196.291h20.12v21.18H598.2zM660.547 180.371l-17.246 10.362 10.909 18.155 17.246-10.362-10.909-18.155zM550.359 198.52l17.246 10.363 10.908-18.155-17.246-10.363-10.908 18.155zM502.88 103.091h24.36v18h-24.36zM694.58 103.091h24.36v18h-24.36z"></path>
  <path fill="#3f3d56" fill-rule="nonzero" d="M291.03 37.431h2.43c36.858 1.257 66.494 31.921 66.494 68.8 0 37.762-31.072 68.837-68.834 68.84h-2.44c-36.858-1.257-66.494-31.921-66.494-68.8 0-37.764 31.076-68.84 68.84-68.84h.004m0-17h-.011c-47.09 0-85.84 38.75-85.84 85.84 0 45.985 36.953 84.221 82.911 85.79 1 0 2 .05 3 .05h.001c47.09 0 85.84-38.75 85.84-85.84 0-45.985-36.953-84.221-82.911-85.79-1 0-2-.05-3-.05h.01z"></path>
  <path fill="#3f3d56" d="M302.142.699L282.034 0l-.735 21.167 20.107.699.736-21.167zM354.578 21.471l-16.876-10.955-11.533 17.765 16.876 10.955 11.533-17.765zM388.475 64.59l-9.137-17.925-18.87 9.619 9.137 17.925 18.87-9.619zM374.757 171.247l11.248-16.682-17.561-11.84-11.248 16.682 17.561 11.84zM214.928 68.821l10.36-17.248-18.157-10.906-10.36 17.248 18.157 10.906zM222.005 154.361l-10.06-17.504-18.427 10.59 10.06 17.504 18.427-10.59zM243.859 35.763l17.595-9.757-10.271-18.523-17.596 9.758 10.272 18.522zM295.53 191.204l-20.107-.698-.736 21.167 20.108.698.735-21.167zM338.296 176.773L320.7 186.53l10.271 18.523 17.596-9.758-10.271-18.522zM227.562 191.069l16.876 10.955 11.532-17.765-16.876-10.955-11.532 17.765zM207.75 94.906l-24.345-.846-.626 17.989 24.346.846.625-17.989zM374.367 118.678l24.345.846.625-17.989-24.345-.846-.625 17.989z"></path>
  <path fill="#fbbebe" fill-rule="nonzero" d="M69.36 545.201a20.649 20.649 0 0 0-7.09 2.21c-3 1.83-4.85 5.06-6.17 8.32-3.31 8.18-4 17.16-4.14 26-.12 7.12.12 14.41 2.67 21.05a13.297 13.297 0 0 0 3.53 5.51 12.561 12.561 0 0 0 4.83 2.34c3.8 1 8.21 1 11.32-1.4 3.46-2.71 4.33-7.48 5.06-11.81 1-5.84 2.39-12 6.73-16.07 3.22-3 7.83-4.5 10.17-8.22 2.79-4.42 1.32-10.19-.46-15.11-1.55-4.26-3.82-12.91-8.28-15.09-4.46-2.18-13.53 1.43-18.17 2.27zM233.83 566.151a33.438 33.438 0 0 1-7 12.91c-2 2.28-4.45 5.05-3.4 7.88a7.053 7.053 0 0 0 1.86 2.49c14.66 14.35 35.17 21.33 55.52 23.87.327.089.673.089 1 0 .6-.27.74-1 .82-1.67a21.127 21.127 0 0 0 0-6.4c-1-5-5.35-8.47-9.61-11.21s-8.92-5.4-11.3-9.87c-3-5.56-1.71-12.8-5.24-18-2.86-4.23-8.17-6-13.21-6.83-1.75-.27-5.47-2.19-7-1.3-1.56.9-1.91 6.39-2.44 8.13z"></path>
  <path fill="#3f3d56" fill-rule="nonzero" d="M67.36 544.681a2.007 2.007 0 0 0-1.77-2 6.405 6.405 0 0 0-2.89.37 42.218 42.218 0 0 1-7 1.28c-2.81.27-5.68.26-8.41 1-2.73.74-5.4 2.37-6.51 5a12.395 12.395 0 0 0-.72 4.69 71.61 71.61 0 0 0 2.18 18.21c.054.483.327.915.74 1.17.35.14.77 0 1.12.16.307.183.538.47.65.81 1.69 3.8 2.08 8 2.53 12.16a321.077 321.077 0 0 0 2.53 18.32c.6 3.55 1.34 7.28 3.68 10 2.56 3 6.62 4.29 10.53 4.82 8.26 1.1 16.6-.56 24.76-2.26a7.22 7.22 0 0 0 4.17-1.87 4.665 4.665 0 0 0 1-3.31c-.19-4.08-3.94-7-7.34-9.24l-4.68-3.15a2.435 2.435 0 0 1-.82-.74 2.637 2.637 0 0 1-.23-1.5l.3-6a17.2 17.2 0 0 0-15 9.31c-.65 1.29-1.26 2.8-2.61 3.3-1.67.63-3.53-.78-4.09-2.47a10.765 10.765 0 0 1 .15-5.28c2.74-14.68 2.1-29.77 3.77-44.61a10.16 10.16 0 0 1 1.49-4.7c.81-1.12 2.32-2.1 2.47-3.47zM271.6 601.601c.69 1.14 1.76 2 2.4 3.18.64 1.18.63 2.9-.52 3.57a3.522 3.522 0 0 1-2.16.22 73.105 73.105 0 0 1-39.53-17.88 27.68 27.68 0 0 1-4.84-5.31c-1.29-2-2.38-4.35-4.58-5.17a78.147 78.147 0 0 0-2 17.38c0 3.85.53 8.25 3.68 10.48a13.167 13.167 0 0 0 4.1 1.67l6.87 1.94a7.312 7.312 0 0 0 3.8.37c.81-.22 1.53-.73 2.36-.88a5.837 5.837 0 0 1 2.67.34l5.93 1.73a39.34 39.34 0 0 1 5.87 2c1.69.8 3.26 1.85 4.91 2.74a58.7 58.7 0 0 0 8.59 3.49l10.44 3.62a36.815 36.815 0 0 0 8.88 2.28c2.1.18 4.23 0 6.31.36 1.58.27 3.11.84 4.71 1a12.454 12.454 0 0 0 7.4-2.19 6.686 6.686 0 0 0 2.15-1.91c1.5-2.33.21-5.4-1.26-7.75-2.71-4.34-6.1-8.41-10.58-10.89-1.82-1-3.78-1.74-5.65-2.65-5.32-2.58-9.35-6.89-14.38-9.84-4.75-2.76-7.81 4.43-5.57 8.1z"></path>
  <path fill="#fbbebe" fill-rule="nonzero" d="M124.97 181.291a43.249 43.249 0 0 1-18.46 7.18 74.337 74.337 0 0 1-10.45.56 265.79 265.79 0 0 1-43.46-3.63c5.72-6.3 11.5-13 13.66-21.26a34.928 34.928 0 0 0 .65-13.32 99.716 99.716 0 0 0-4.06-16.77c6.126.329 12.269.171 18.37-.47 3.48-.35 12-3.52 15-1.12 2.81 2.23.69 10.12.64 13.76v.39a44.278 44.278 0 0 0 3.51 16.06c4.4 9.84 13.81 17.92 24.6 18.62z"></path>
  <path fill-opacity=".1" fill-rule="nonzero" d="M96.9 146.171a36.697 36.697 0 0 1-30 4.6 99.716 99.716 0 0 0-4.06-16.77c6.126.329 12.269.171 18.37-.47 3.48-.35 12-3.52 15-1.12 2.86 2.23.74 10.12.69 13.76z"></path>
  <circle cx="76.86" cy="113.831" r="36.6" fill="#fbbebe"></circle>
  <path fill="#e23b4a" fill-rule="nonzero" d="M232.15 299.031a17.017 17.017 0 0 1-8.25 14.69 32.605 32.605 0 0 1-9 3.15c-16.74 4-33.89 7.29-51.08 6.31-3.72-.21-7.5-.65-10.84-2.28s-6.19-4.68-6.69-8.36a7.922 7.922 0 0 0-.53-2.66 7.499 7.499 0 0 0-2.54-2.26 10.426 10.426 0 0 1-3.86-10.33c-2.09.93-4.27-1.17-5.25-3.24-.98-2.07-1.75-4.57-3.85-5.44-1.43-.61-3.08-.25-4.59-.64-2.41-.62-3.88-3-5.58-4.78-3.47-3.71-8.39-5.63-12.93-7.91-13.47-6.79-24.45-17.55-35.2-28.13-5.41-5.33-10.86-10.7-15.15-17-1.21-1.77-2.3-3.59-3.33-5.46a153.65 153.65 0 0 1-8.44-19.31c-1.36-3.54-2.74-7.28-2.18-11 .05-.34.12-.68.2-1a21.044 21.044 0 0 1 3.32-6.71c3.72-5.47 8.6-10.65 15-12.33 6.4-1.68 12.79.35 19.29 1.73 2.158.48 4.347.814 6.55 1 6.89.49 13.71-1.36 20.37-3.2l7.26-2c3.64-1 5.46-5.4 9.14-6.17a12.815 12.815 0 0 1 4.93.25c7.47 1.42 15 3.25 21.57 7.05a35.557 35.557 0 0 1 4.19 2.85c4.68 3.7 8.38 8.63 9.74 14.39 1.5 6.33.09 13.09 1.61 19.42 1.24 5.23 4.38 9.79 7.46 14.2l17.87 25.52a158.593 158.593 0 0 0 13.15 17.14c9.58 10.43 27.4 18.32 27.64 32.51z"></path>
  <path fill="#fbbebe" fill-rule="nonzero" d="M184.43 54.401c.74-3.49 1.29-7.15 3.22-10.16a23.213 23.213 0 0 1 4.73-5c3.07-2.59 6.33-5.08 10.14-6.34 3.81-1.26 8.29-1.09 11.49 1.33 3.2 2.42 4.55 6.59 5.05 10.57.68 5.47 0 11.23-2.71 16-3.1 5.41-8.48 9-13 13.34a52.013 52.013 0 0 0-8.47 10.56 30.035 30.035 0 0 1-3.86 5.64 7.335 7.335 0 0 1-6.13 2.45c-1.92-.31-3.5-1.65-5-2.93-1.85-1.62-6.84-4.51-7-7.08-.12-2.08 3.77-6.8 4.72-8.75a99.223 99.223 0 0 0 6.82-19.63z"></path>
  <path fill="#3f3d56" fill-rule="nonzero" d="M313.06 478.361c-4.6 8.49-9.64 16.76-13.74 25.5-2.39 5.11-4.46 10.37-7.12 15.34-2.9 5.42-6.47 10.46-9.5 15.82-7.63 13.51-11.88 28.75-15.81 43.76a87.157 87.157 0 0 1-31.16-11c-.65-.38-1.27-.78-1.87-1.21a22.244 22.244 0 0 1-6.29-6.93c3.63-13.73 7.36-27.69 14.75-39.82 2.41-4 5.17-7.65 7.65-11.55 7.19-11.3 8.67-25.56 16.88-36.14a6.224 6.224 0 0 0 0-7.36c-.95-1.23-2.46-2.4-2.18-3.92.21-1.11 1.37-2.11.92-3.15-.21-.5-.72-.77-1.12-1.13-1.4-1.29-1.22-3.49-1.34-5.38-.31-4.79-3.18-9-6-12.91a8.01 8.01 0 0 0-2.19-2.36c-.74-.45-1.62-.65-2.36-1.11-2.62-1.64-2.43-5.46-3.69-8.29-1.64-3.73-5.77-5.63-8.48-8.66-3.45-3.85-4.33-9.22-8-12.59a9.968 9.968 0 0 0-1.19-1c1.82 5.65 2 11.68 2.13 17.63.35 20.39-4.75 41.5-2.36 61.76 1.88 16.07-8 32.11-22.05 40.14-5.4 3.08-11.3 5.14-17.16 7.23-8.79 3.11-17.55 6.32-26.17 9.92a299.44 299.44 0 0 0-18 8.15 227.304 227.304 0 0 0-21.29 11.78c-8.46 5.38-16.92 10.85-22.93 18.88-5.81-.16-11.13-3.65-14.81-8.15-3.68-4.5-6-10-8.11-15.36-1.87-4.65-3.71-9.45-3.85-14.46a2.864 2.864 0 0 1 1.74-2.5l40.17-21.29 7.51-4c16.45-8.73 33.49-16.8 49.94-25.52 1.11.33 2-.93 2.33-2 .33-1.07.56-2.45 1.6-2.93.52-.25 1.2-.24 1.59-.68.254-.393.354-.867.28-1.33-.53-8-6.27-15.27-5.12-23.16.49-3.36 2.22-6.67 1.47-10-.53-2.29-2.17-4.14-3.06-6.31-2-4.85 0-10.69-2.16-15.44a35.707 35.707 0 0 1-2.9-9.84 66.813 66.813 0 0 0-6.14-19.5 35.542 35.542 0 0 0-5.65-8.55c-1.21-1.3-2.57-2.46-3.72-3.81-3.49-4.14-4.78-9.66-5.77-15-1.8-9.67-3-19.7-.8-29.28.76-3.27 1.92-6.51 1.87-9.86-.05-4.43-2-9.6 1.08-12.8a9.943 9.943 0 0 1 4.5-2.31c7.08-2.11 14.45-3.07 21.78-4l33.55-4.39c3.84-.51 7.77-1 11.16-2.91 4.55-2.51 7.57-7.16 9.42-12 5.89 4.3 8.09 12.31 12.79 17.86 2.29 2.71 5.12 4.9 7.63 7.39a85.67 85.67 0 0 1 8.41 10.37c7 9.61 14 19.29 19 30.07 2.61 5.6 4.63 11.44 6.71 17.25 8.19 22.87 21.54 44.58 27.08 68.22 1.36 5.78 4.89 11 5.44 16.91.62 6.27-2.28 12.33-5.29 17.91z"></path>
  <path fill-opacity=".1" fill-rule="nonzero" d="M137.36 288.421a10.305 10.305 0 0 0-1.24 4.95c.75-3.7 5.84-5.75 6.17-9.41.15-1.69-.16-1.61-1.2-.72-1.58 1.37-2.27 3.73-3.73 5.18zM152.87 299.661a7.629 7.629 0 0 0-2.32 3.43 8.703 8.703 0 0 0-.47 6c.75-.35 1-1.27 1.23-2.07a14.425 14.425 0 0 1 1.59-3.54c.6-1 3.37-3.23 3.36-4.28-.03-1.61-2.65-.11-3.39.46zM154.66 175.781a37.722 37.722 0 0 1-7.72 5.14c-7.25 3.67-15.28 5.61-22.58 9.17a111.892 111.892 0 0 0-10.48 6.11l-21.7 13.75a23.306 23.306 0 0 0-4.78 3.63c-2.61 2.78-2.6 7.67-5 10.65-2.4 2.98-6.54 4.66-10.53 4.86a34.196 34.196 0 0 1-11.73-2 60.865 60.865 0 0 1-6.7-2.44 31.58 31.58 0 0 1-6.44-3.68c-3.87-2.92-7-7.17-7.58-12a23.699 23.699 0 0 1 1.29-9.78 37.54 37.54 0 0 1 2.31-5.93 23.777 23.777 0 0 1 1.84-3.12c5-7.06 13.77-10.37 22.26-12 4.46-.87 9-1.4 13.51-2.16 2.158.48 4.347.814 6.55 1 6.89.49 13.71-1.36 20.37-3.2l7.26-2c3.64-1 5.46-5.4 9.14-6.17a12.815 12.815 0 0 1 4.93.25c7.47 1.42 15 3.25 21.57 7.05a35.621 35.621 0 0 1 4.21 2.87z"></path>
  <path fill="#e23b4a" fill-rule="nonzero" d="M172.36 78.641c-.93 8.85-8.4 15.35-13 23-2.21 3.71-3.76 7.78-5.75 11.62a115.11 115.11 0 0 1-7.6 12.1l-8.13 11.8c-4.78 6.94-9.61 13.94-15.72 19.75-10.65 1.81-19.58 9.72-29.68 13.56-8.08 3.07-16.89 3.49-25.37 5.14-8.48 1.65-17.27 5-22.25 12a31.415 31.415 0 0 0-4.16 9 23.315 23.315 0 0 0-1.28 9.77c.61 4.82 3.7 9.06 7.57 12 3.87 2.94 8.5 4.68 13.14 6.12a34.444 34.444 0 0 0 11.73 2c4-.2 8.06-1.74 10.54-4.86 2.48-3.12 2.36-7.87 5-10.65a23.395 23.395 0 0 1 4.79-3.63l21.7-13.75a111.839 111.839 0 0 1 10.47-6.07c7.3-3.57 15.33-5.5 22.58-9.17 7.25-3.67 14-9.73 15.45-17.73 4.42-24.58 21.43-45.3 36-65.6-.48-.1-.33-1.19-.51-1.65-1.86-4.82-6-8.45-10.66-10.74-4.66-2.29-9.86-2.93-14.86-4.01z"></path>
  <path fill="#3f3d56" fill-rule="nonzero" d="M95.64 78.821a13.564 13.564 0 0 0-1.51-7.72c-2.41-4-7.46-5.41-12-6.35a235.21 235.21 0 0 0-13.24-2.32c-3.64-.53-7.37-1-10.95-.18-5 1.09-9.07 4.4-13.7 6.46-5.47 2.44-11.53 3.08-17.37 4.43-5.84 1.35-11.82 3.64-15.48 8.38-2.78 3.6-3.89 8.2-4.72 12.68-6.93 37.39.53 75.74 1.95 113.74.55 14.79-.12 30.6-8.57 42.75l24.61-.65c6.3-.16 13.07-.49 18-4.38 4.36-3.42 6.42-8.93 8.29-14.15 1.47-4.11 2.95-8.3 3.14-12.66.39-8.93-4.68-17.7-3-26.49 1.23-6.56 6-11.86 11.11-16.17 5.11-4.31 10.79-8 14.92-13.28 7.38-9.33 8.79-22.08 7.87-33.93-.55-7.05-1.81-14.1-1.2-21.15.46-5.27 2.13-10.71 5.58-14.82 3.88-4.66 5.93-7.58 6.27-14.19z"></path>
  <path fill-opacity=".1" fill-rule="nonzero" d="M94.13 71.101c-2.37-3.94-7.29-5.36-11.8-6.3a11.631 11.631 0 0 1 5.84 4.6 13.481 13.481 0 0 1 1.51 7.72c-.34 6.6-2.39 9.52-6.31 14.19-3.45 4.11-5.12 9.54-5.58 14.82-.61 7.05.65 14.1 1.2 21.15.92 11.85-.49 24.6-7.86 33.93-4.14 5.24-9.82 9-14.92 13.28-5.1 4.28-9.89 9.61-11.12 16.17-1.65 8.79 3.42 17.56 3 26.49-.19 4.36-1.68 8.55-3.15 12.66-1.86 5.22-3.93 10.72-8.29 14.14-5 3.89-11.73 4.23-18 4.39l-17.43.46c-.39.64-.79 1.28-1.22 1.89l24.61-.65c6.3-.16 13.07-.49 18-4.38 4.36-3.42 6.42-8.93 8.29-14.15 1.47-4.11 2.95-8.3 3.14-12.66.39-8.93-4.68-17.7-3-26.49 1.23-6.56 6-11.86 11.11-16.17 5.11-4.31 10.79-8 14.92-13.28 7.38-9.33 8.79-22.08 7.87-33.93-.55-7.05-1.81-14.1-1.2-21.15.46-5.27 2.13-10.71 5.58-14.82 3.92-4.66 6-7.58 6.31-14.19a13.56 13.56 0 0 0-1.5-7.72zM279.03 456.471l-45.17 110.15a22.244 22.244 0 0 1-6.29-6.93c3.63-13.73 7.36-27.69 14.75-39.82 2.41-4 5.17-7.65 7.65-11.55 7.19-11.3 8.67-25.56 16.88-36.14a6.224 6.224 0 0 0 0-7.36c-.95-1.23-2.46-2.4-2.18-3.92.21-1.11 1.37-2.11.92-3.15-.21-.5-.72-.77-1.12-1.13-1.4-1.29-1.22-3.49-1.34-5.38-.31-4.79-3.18-9-6-12.91a8.01 8.01 0 0 0-2.19-2.36c-.74-.45-1.62-.65-2.36-1.11-2.62-1.64-2.43-5.46-3.69-8.29-1.64-3.73-5.77-5.63-8.48-8.66-3.45-3.85-4.33-9.22-8-12.59l-.31-.78 3.52-21.25 43.41 73.18z"></path>
  <defs>
    <linearGradient id="_Linear1" x2="1" gradientTransform="matrix(0 -600.7 600.7 0 159.46 630.991)" gradientUnits="userSpaceOnUse">
      <stop offset="0" stop-color="gray" stop-opacity=".247"></stop>
      <stop offset=".54" stop-color="gray" stop-opacity=".118"></stop>
      <stop offset="1" stop-color="gray" stop-opacity=".098"></stop>
    </linearGradient>
  </defs>
</svg>