<svg xmlns="http://www.w3.org/2000/svg" fill-rule="evenodd" stroke-miterlimit="10" clip-rule="evenodd" viewBox="0 0 838 727">
  <path fill="none" stroke="#fff" stroke-opacity=".03" d="M158.09 11.97v30.34c0 2.249-1.851 4.1-4.1 4.1H98.47a402.668 402.668 0 0 1 38.3-38.55H154c2.245.005 4.09 1.855 4.09 4.1v.01z"></path>
  <path fill="#fff" d="M837.49 14.98c0-8.267-6.713-14.98-14.98-14.98H14.98C6.713 0 0 6.713 0 14.98v449.57c0 8.267 6.713 14.98 14.98 14.98h807.53c8.267 0 14.98-6.713 14.98-14.98V14.98z"></path>
  <path fill="#3f3d56" fill-rule="nonzero" d="M789.52 87.21v11.34H40.25c.06-.513-.035-11.169 0-11.47l749.27.13"></path>
  <path fill="#3f3d56" d="M633.04 463.66V31.81H621.7v431.85h11.34zM424.41 463.66V31.81h-11.34v431.85h11.34zM215.78 463.66V31.81h-11.34v431.85h11.34z"></path>
  <path fill="url(#_Linear1)" d="M226.26 109.11h46.13v44.66h-46.13z"></path>
  <path fill="url(#_Linear2)" d="M39.455 122.72h46.13v44.66h-46.13z"></path>
  <path fill="#7cfcff" d="M227.06 109.88h44.54V153h-44.54zM40.25 123.49h44.54v43.12H40.25z"></path>
  <path fill="url(#_Linear3)" d="M434.61 195.82h46.13v44.66h-46.13z"></path>
  <path fill="#7cfcff" d="M435.41 196.59h44.54v43.12h-44.54z"></path>
  <path fill="url(#_Linear4)" d="M647.21 225.4h46.13v44.66h-46.13z"></path>
  <path fill="#7cfcff" d="M648 226.17h44.54v43.12H648z"></path>
  <path fill="url(#_Linear5)" d="M704.17 254.31h46.13v44.66h-46.13z"></path>
  <path fill="#7cfcff" d="M704.97 255.08h44.54v43.12h-44.54z"></path>
  <path fill="url(#_Linear6)" d="M775.61 177.06h46.13v44.66h-46.13z"></path>
  <path fill="#7cfcff" d="M776.4 177.83h44.54v43.12H776.4z"></path>
  <path fill="url(#_Linear7)" d="M761.15 239.72h46.13v44.66h-46.13z"></path>
  <path fill="#7cfcff" d="M761.94 240.49h44.54v43.12h-44.54z"></path>
  <path fill="url(#_Linear8)" d="M289.19 109.11h46.13v44.66h-46.13z"></path>
  <path fill="#7cfcff" d="M289.99 109.88h44.54V153h-44.54z"></path>
  <path fill="url(#_Linear9)" d="M73.65 217.38h46.13v44.66H73.65z"></path>
  <path fill="#ffffa5" d="M74.44 218.15h44.54v43.12H74.44z"></path>
  <path fill="url(#_Linear10)" d="M259.55 173.49h46.13v44.66h-46.13z"></path>
  <path fill="#ffffa5" d="M260.35 174.26h44.54v43.12h-44.54z"></path>
  <path fill="url(#_Linear11)" d="M499.99 146.8h46.13v44.66h-46.13z"></path>
  <path fill="#ffffa5" d="M500.78 147.57h44.54v43.12h-44.54z"></path>
  <path fill="url(#_Linear12)" d="M743.38 115.48h46.13v44.66h-46.13z"></path>
  <path fill="#ffffa5" d="M744.18 116.25h44.54v43.12h-44.54z"></path>
  <path fill="url(#_Linear13)" d="M560.85 109.11h46.13v44.66h-46.13z"></path>
  <path fill="#ffffa5" d="M561.64 109.88h44.54V153h-44.54z"></path>
  <path fill="url(#_Linear14)" d="M558.23 195.82h46.13v44.66h-46.13z"></path>
  <path fill="#ffffa5" d="M559.03 196.59h44.54v43.12h-44.54z"></path>
  <path fill="url(#_Linear15)" d="M351.13 130.68h46.13v44.66h-46.13z"></path>
  <path fill="#ffffa5" d="M351.93 131.44h44.54v43.12h-44.54z"></path>
  <path fill="url(#_Linear16)" d="M106.03 145.05h46.13v44.66h-46.13z"></path>
  <path fill="#ff69b4" d="M106.83 145.82h44.54v43.12h-44.54z"></path>
  <path fill="url(#_Linear17)" d="M129.1 195.82h46.13v44.66H129.1z"></path>
  <path fill="#ff69b4" d="M129.89 196.59h44.54v43.12h-44.54z"></path>
  <path fill="url(#_Linear18)" d="M320.44 203.07h46.13v44.66h-46.13z"></path>
  <path fill="#ff69b4" d="M321.23 203.84h44.54v43.12h-44.54z"></path>
  <path fill="url(#_Linear19)" d="M658.04 115.48h46.13v44.66h-46.13z"></path>
  <path fill="#ff69b4" d="M658.84 116.25h44.54v43.12h-44.54z"></path>
  <path fill="url(#_Linear20)" d="M698.86 177.06h46.13v44.66h-46.13z"></path>
  <path fill="#ff69b4" d="M699.66 177.83h44.54v43.12h-44.54z"></path>
  <path fill="url(#_Linear21)" d="M438.64 109.11h46.13v44.66h-46.13z"></path>
  <path fill="#ff69b4" d="M439.44 109.88h44.54V153h-44.54z"></path>
  <path fill="url(#_Linear22)" d="M494.77 239.72h46.13v44.66h-46.13z"></path>
  <path fill="#ff69b4" d="M495.56 240.49h44.54v43.12h-44.54z"></path>
  <path fill="url(#_Linear23)" fill-rule="nonzero" d="M760.3 248.62a8.835 8.835 0 0 0-3.52-5.92 35.108 35.108 0 0 0-6.12-3.54 5.003 5.003 0 0 1-1.78-1.27 15.824 15.824 0 0 1-1-1.92c-1.2-2.09-3.8-2.75-5.84-4-3.64-2.21-5.32-6.13-6.83-10.25-.1-.26-.18-.52-.28-.77-1.47-4.08-2.87-8.26-5.92-11.12-4.423-3.958-11.06-4.314-15.88-.85a3.738 3.738 0 0 1-2.24 1.11 4.23 4.23 0 0 1-2.15-1.16 8.776 8.776 0 0 0-5.36-1.48 51.094 51.094 0 0 1-1.51-11.15v-.1a.138.138 0 0 1 0-.07v-2.78h.63a7.167 7.167 0 0 0 2.21-.25c.298-.084.589-.191.87-.32 2.69-1.27 4.32-4.27 5.53-7.11.8-1.88 1.54-3.81 2.17-5.78.08-.25.15-.5.24-.76.11-.4.24-.81.34-1.22 0-.13.07-.26.1-.39s.07-.25.1-.38l.09-.42.51.36.09.05 1.1.77c5.16 3.53 10.58 6.86 12.82 6.94.228.023.458-.022.66-.13 1.45-.8-1.33-3.78-4.82-6.81-.29-.26-.6-.51-.91-.77-2.59-2.19-5.38-4.31-7-5.53l-1.5-1.09c2-1.83 3.16-5.11 3.68-8 .503-2.772.817-5.575.94-8.39v-.14a33.867 33.867 0 0 0-.81-9c-1.36-5.72-4.8-11.18-10-13.86-1.5-.78-3.21-1.39-4.69-2.23-.28-.16-.53-.33-.79-.5a6.96 6.96 0 0 1-1.3-1.11 4.55 4.55 0 0 1-.66-.9 2.727 2.727 0 0 1-.26-.47 6.084 6.084 0 0 0-.74-1.43c-1-1.11-2.68-.78-4.13-.6h-1.25c-5.19.12-10.2-2.78-15.45-2.78-5.74 0-10.63 3.33-15.69 5.61-1 .47-2 .89-2.89 1.32-.76.36-1.47.72-2.16 1.11a9.27 9.27 0 0 0-.78.49 11.097 11.097 0 0 0-4.28 5 10.307 10.307 0 0 0-2.11 4.07 10.082 10.082 0 0 0-.27 2.09 34.684 34.684 0 0 0-10.37 24.7V167c.626 14.728 10.572 27.521 24.69 31.76.39.12.79.24 1.2.34.1.34.24.68.34 1 .21.65.41 1.29.56 1.94.1.32.17.65.24 1 .526 2.224.768 4.505.72 6.79v.67a26.382 26.382 0 0 0-7.5 3 14.474 14.474 0 0 0-6.31 7.77 6.354 6.354 0 0 0-.2.73 20.056 20.056 0 0 0-5.71-1c-1.77-.06-3.75.13-4.92 1.47a4.435 4.435 0 0 0-.91 1.89c-.68.61-.8 1.68-1.27 2.5-1.46 2.56-5.26 1.72-8.12 2.42-.29.071-.575.164-.85.28-2.71 1-5 3.4-7.88 3.42a20.105 20.105 0 0 0-3.45-.19l-.21.05c-1.19.3-2.14 1.94-1.22 2.76-1.41-.32-2.79.63-3.69 1.77-.9 1.14-1.45 2.5-2.42 3.57a3.744 3.744 0 0 0-3.79-1.47 13.737 13.737 0 0 0-4 1.58 5.492 5.492 0 0 1-1.77.62 7.632 7.632 0 0 1-2.13-.19 17.199 17.199 0 0 0-10.09 1.41c-2.76 1.31-5.43-1.1-8.48-1.29a4.7 4.7 0 0 1-3.1-1 1.332 1.332 0 0 1-.23-.25 4.518 4.518 0 0 1-.44-.77c-.2-.46-.33-1-.5-1.43a12.16 12.16 0 0 0-8.39-7.76l-.5-.12c.2-.571.34-1.161.42-1.76.08-.599 0 0 0 0a10.417 10.417 0 0 0-6.51-11 11.01 11.01 0 0 0-3.8-9.63 16.736 16.736 0 0 1-1.82-1.43l-.1-.08a4.633 4.633 0 0 1-.69-.91c-.192-.331 0 0 0 0a14.135 14.135 0 0 1-1.06-2.33c-.89-2.38-1.8-4.76-2.69-7.14-1.2-.24-2.13-.74-3.27-.93v-.73a23.734 23.734 0 0 0-1.23-7.17 33.1 33.1 0 0 0-3.89-7.72c-.25-.4-.51-.79-.78-1.18-.34-.53-.71-1-1.07-1.56-2.58-3.59-5.45-7.14-9.27-9.31a36.258 36.258 0 0 0-3.95-1.82l-7-2.87a3.285 3.285 0 0 0-1.25-.34c-1.68 0-2.13 2.31-1.46 3.9.082.187.179.368.29.54 2.13 3.12 6.9 4 8.23 7.53a4.802 4.802 0 0 0-1.83.39 5.303 5.303 0 0 0-3.13 3.48 2.872 2.872 0 0 1-.66 1.56c-.63.49-1.58.21-2.27.59-1.24.66-.71 2.51-.84 3.91-.12 1.25-.89 2.33-1.27 3.52a6.202 6.202 0 0 0-.15 2.84l.06.3c.02.148.05.295.09.44a9.068 9.068 0 0 0 1.23 2.76 22.437 22.437 0 0 0 4.56 4.62c1.14.94 2.3 1.89 3.52 2.75.35.24.69.47 1 .7-.042.06-.079.123-.11.19 0 .14-.11.28-.17.43-.06.15 0 0 0 0a2.2 2.2 0 0 0-.12 1.24c.065.3.199.58.39.82.267.324.562.625.88.9a18.003 18.003 0 0 1 5.48 9.9 6.05 6.05 0 0 1-.08 2.24 18.446 18.446 0 0 0-.89 4.54c.017.376.064.751.14 1.12a23.73 23.73 0 0 0 1.58 5.17c1.86 4.72 3.83 9.6 7.54 13a42.107 42.107 0 0 0 8.46 20.83c3.89 5 9.1 8.78 14.25 12.49a26.698 26.698 0 0 0 5.26 3.3 30.198 30.198 0 0 0 5.22 1.41 267.997 267.997 0 0 0 43.65 5.1l2 .07h.1c0 .77.07 1.54.1 2.31.34 7.687.497 15.38.47 23.08v2.07a11.595 11.595 0 0 1-.62 4.43 12.835 12.835 0 0 1-2.08 3c-.19.24-.4.49-.59.74-3 4-3.58 9.33-3.48 14.47v.09c0 .77 0 1.54.08 2.3a157.128 157.128 0 0 0 2.46 20.49c1.18 6.42.68 13.34 1.6 19.84.303 2.223.84 4.409 1.6 6.52 1.207 3.247 2.413 6.49 3.62 9.73.405.907.649 1.879.72 2.87.007.312-.017.623-.07.93-.32 1.73-1.49 3.27-2.39 4.83a16.723 16.723 0 0 0-2.11 8.84v.25c.014.257.097.506.24.72.39.54 1.21.49 1.86.39a74.255 74.255 0 0 1 7.85-.73h.28c-.09.11-.19.22-.28.34-.3.41-.6.85-.89 1.33l-.14.24a29.854 29.854 0 0 0-1.73 3.54 33.486 33.486 0 0 0-2.3 6.35 5.82 5.82 0 0 0-.23 1c-.16.66-.3 1.32-.4 2a63.506 63.506 0 0 0-.72 10.4v1.44c-.08 1.55-.16 3.12-.25 4.64-.29 5.56-.63 10.55-1.19 12.28a10.081 10.081 0 0 0-.34 3.4v.05c.089 1.525.303 3.04.64 4.53.31 1.58.72 3.21 1.13 4.82v.16c0 .6.06 1.19.12 1.78v.08c.18 2.636.715 5.237 1.59 7.73.875 2.493 0 .08 0 .12v1.19a1.335 1.335 0 0 0 0 .2c0 .72.09 1.45.16 2.17.22 2.11.57 4.21 1 6.31v.35c2 11.107 4.033 22.21 6.1 33.31.12.67.25 1.33.38 2 2.24 11.88 4.573 23.743 7 35.59.21 1 .4 2 .62 3 .11.47.21.95.33 1.42.12.47.28 1.15.42 1.72a49.447 49.447 0 0 0 9.11 18 82.33 82.33 0 0 1 9.5 15.22c0 .15-.07.29-.11.44-.22 1.06-.46 2.11-.71 3.16l-.06.24c-2.66 11.29-6.21 22.42-7.44 34-.09.83-.16 1.66-.24 2.5-.36 3.79-.71 7.6-2.2 11.08-.43 1-.95 1.95-1.4 2.94a10.687 10.687 0 0 0-1.07 3.63 2.783 2.783 0 0 0 0 .5.565.565 0 0 0 0 .13.417.417 0 0 0 0 .05c.001.017 0 0 0 0a7.225 7.225 0 0 0 1 3.54l-.13.1c-.27.21-.53.41-.78.62l-.5.42c-3.45 2.74-8.07 3.3-12.34 4.41-4.27 1.11-8.83 3.36-10.15 7.58-.08.27-.14.54-.2.82a2.7 2.7 0 0 0-.06.4c-.01.135 0 0 0 0a7.238 7.238 0 0 0-.09 1.23v.09a1.205 1.205 0 0 0 0 .19 11.398 11.398 0 0 0 5 8.35c3.54 2.43 8 3.19 12.2 3.74 4.2.55 8.64 1 12.5 2.87 3.32 1.65 6.13 4.36 9.65 5.55.21.07.42.11.64.17l-.19.11c-.48.29-1 .57-1.45.83l-.78.43a36.561 36.561 0 0 1-11.65 3.71c-4.12.57-9 .84-11.13 4.42a.707.707 0 0 0-.08.18 2.39 2.39 0 0 0-.23.55v.08a1.138 1.138 0 0 0-.09.24 1.427 1.427 0 0 0-.09.27c.005.077.005.153 0 .23a4.344 4.344 0 0 0-.17.79 6.63 6.63 0 0 0 .07 2.08 9.323 9.323 0 0 0 2.69 4.87c2.5 2.35 6 3.37 9.28 4.1 7.59 1.67 15.35 2.27 23.1 2.87l7.53.58c2.69.21 5.39.41 8.08.6 1.91.12 3.82.24 5.73.33 1.91.09 3.64.15 5.46.19h2.84c4.667 0 9.303-.197 13.91-.59 4.47-.4 8.89-1 13.29-1.78a2.998 2.998 0 0 0 2.16-1c.049-.08.093-.164.13-.25a.837.837 0 0 0 .06-.17.339.339 0 0 0 0-.09 1.205 1.205 0 0 0 0-.19 2.338 2.338 0 0 0 0-.29v-.09-.62c0-.95 0-1.89-.07-2.84V715.96l-.06-1.17c-.07-1.14-.14-2.29-.24-3.43l-.12-1.36v-.45c0-.34-.06-.68-.1-1 0-.19 0-.39-.07-.59l-.18-1.61c-.14-1.18-.3-2.35-.47-3.52-.367-2.56-.817-5.103-1.35-7.63-.533-2.527 0 0 0-.07v-.06c-.19-.86-.38-1.71-.56-2.56-.63-2.7-4.31 1-6.37 3.31-.27-1.29-.55-2.57-.89-3.82-.34-1.25 0-.1 0-.15.55-.25 1.09-.51 1.62-.77a5.763 5.763 0 0 0 3-2.48c.178-.427.286-.879.32-1.34.02-.28.02-.56 0-.84v-.66c-.3-5.94-.66-12.09-3.48-17.3a36.8 36.8 0 0 0-6.87-8.38c0-.64-.07-1.28-.1-1.92-.3-6.36-.73-12.72-1.33-19.07a277.99 277.99 0 0 0-5.31-34.47c-.71-3.07-1.43-6.14-2.32-9.17a59.99 59.99 0 0 0-7.76-17.33c-.67-1-1.39-2-2.12-3-.213-3.747-.547-7.5-1-11.26-.6-5.16-1.4-10.3-2.25-15.39-.07-.48-.16-1-.21-1.47v-.08a4.848 4.848 0 0 1 .24-2 11.837 11.837 0 0 1 2-2.69 11.371 11.371 0 0 0 2.11-7 2.805 2.805 0 0 0 0-.29c0-2.65-.39-5.45-.57-8.08 0-.74-.07-1.47-.07-2.21v-.08-.33c0-.77 0-1.53.05-2.29.28-5.9 1.68-11.76 3-17.52 1.43-6 2.88-11.91 4.3-17.87.57-2.32 1.13-4.65 1.67-7 .21-.83.41-1.65.6-2.48a43.895 43.895 0 0 1 2.32-7.57c1.52-3.43 3.89-6.4 5.92-9.55a53.562 53.562 0 0 0 8.35-28.43.165.165 0 0 0 0-.07c-.005-.023 0-.08 0-.12a1.335 1.335 0 0 0 0-.2v-2c0-.52 0-1-.09-1.58 1.24.44 2.49.89 3.72 1.37.094-.75.147-1.504.16-2.26v-.08c.1-4.63-.91-9.55-1-14.21a.655.655 0 0 1 0-.14v-.13c-.039-1.53.065-3.06.31-4.57.13-.699.3-1.39.51-2.07.35-.28.7-.56 1-.85a28.734 28.734 0 0 0 8.25-10.22c1.8-4 2.32-8.57 4.2-12.57 1.06-2.25 2.56-4.33 3.19-6.75.189-.74.3-1.497.33-2.26v-.12a74.525 74.525 0 0 0-.5-7.54v-1.21c.1-6.94 4.42-13.44 4.9-20.21v-.09a16.254 16.254 0 0 0-.16-3.4c-.53-3.37-2.32-6.52-2.65-9.88a7.947 7.947 0 0 1-.06-1.29 19.643 19.643 0 0 1 1.57-6.07c3.49-9.23 6.94-18.94 7.2-28.67a.272.272 0 0 0 0-.09v-.21a36.106 36.106 0 0 0-.61-7.95c-.46-2.55-1.21-5.07-1.41-7.63a16.276 16.276 0 0 1 0-2c.16-2.81 1.19-5.56 1.46-8.32.105-.887.105-1.783 0-2.67a8.409 8.409 0 0 0-.9-2.64 8.374 8.374 0 0 0-.76-1.2 45.6 45.6 0 0 0 4.07-7.8 14.583 14.583 0 0 0 1-3.2 7.395 7.395 0 0 0 .04-2.01zm-68.42 441.22l-.1-.06a12.49 12.49 0 0 0-3.33-.95c-.28 0-.57-.06-.85-.08h-.06a16.62 16.62 0 0 0 .33-2.83v-2.81c0-.56-.05-1.13-.09-1.69-.04-.56-.11-1.22-.15-1.83a2.615 2.615 0 0 1 0-.28c.13.38.27.76.43 1.14a158.479 158.479 0 0 0 4 9.49l-.18-.1zm23.15-519.36z"></path>
  <path fill="#ee8e9e" fill-rule="nonzero" d="M668.88 212.52c-.13 5.07-1.85 10-2.12 15.06 15 .74 29.69-6.51 44.48-4.29-4.13-2.67-6.34-7.5-7.64-12.25a50.6 50.6 0 0 1-1.46-18.82c.038-.337.098-.671.18-1 .55-2.48 2-6 1.59-7.95-.5-2.58-2.94-2.07-5.13-1.92a194.072 194.072 0 0 0-19.94 2.57c-1.72.3-18.47 4.48-18.72 4.05 2.76 4.77 5.57 9.73 7.25 14.93a29.09 29.09 0 0 1 1.51 9.62zM521.09 196.84a21.642 21.642 0 0 0 4.57 4.6c1.13.93 2.29 1.88 3.51 2.73a15.001 15.001 0 0 0 7.47 3c3.56.24 11.12-1.85 13.33-4.9a8.817 8.817 0 0 0 1.27-5.1 23.624 23.624 0 0 0-1.22-7.14 39.718 39.718 0 0 0-5.77-10.42c-2.57-3.58-5.43-7.1-9.26-9.27a35.85 35.85 0 0 0-3.94-1.81l-7-2.86a3.506 3.506 0 0 0-1.27-.33c-1.87 0-2.21 2.87-1.15 4.41 2.12 3.11 6.89 4 8.23 7.5a5.351 5.351 0 0 0-5 3.84 2.742 2.742 0 0 1-.67 1.56c-.61.49-1.57.21-2.27.58-1.23.66-.69 2.5-.82 3.9-.12 1.24-.9 2.31-1.28 3.5a7.446 7.446 0 0 0 1.27 6.21z"></path>
  <path fill="#65617d" fill-rule="nonzero" d="M727.09 705.64c-1.15-1.15-3-.95-4.64-.7a172.435 172.435 0 0 1-26.07 2.11c-1.09-5.34 2.08-10.53 3.1-15.88a14 14 0 0 1 1-4c1.22-2.36 4-3.44 6.6-4 4.7-1 12-2.74 14.67 2 3.19 5.71 4.2 14.13 5.34 20.47z"></path>
  <path fill="#3f3d56" fill-rule="nonzero" d="M631.58 685.48c3.54 2.42 7.94 3.17 12.2 3.72 4.26.55 8.64.95 12.5 2.85 3.33 1.64 6.13 4.34 9.66 5.52 3.2 1.07 6.7.78 10 .16 4-.74 8.18-2.19 10.32-5.61 1.91-3 1.7-6.89 1.44-10.47-.31-4-.6-8.1-.9-12.15a5.93 5.93 0 0 0-.75-2.94c-2.87-4.17-9.83 1.75-13.55 1.74-5.91 0-12.25-3.2-16.5-7.12a4.99 4.99 0 0 0-1.28-1c-1.69-.76-3.37.64-4.87 1.86-.16.14-.33.27-.5.4-3.45 2.74-8.07 3.29-12.33 4.4-4.26 1.11-8.83 3.34-10.15 7.54a6.1 6.1 0 0 0-.2.81c-.76 3.93 1.6 8.02 4.91 10.29z"></path>
  <path fill-opacity=".05" fill-rule="nonzero" d="M631.58 685.48c3.54 2.42 7.94 3.17 12.2 3.72 4.26.55 8.64.95 12.5 2.85 3.33 1.64 6.13 4.34 9.66 5.52 3.2 1.07 6.7.78 10 .16 4-.74 8.18-2.19 10.32-5.61 1.91-3 1.7-6.89 1.44-10.47-.31-4-.6-8.1-.9-12.15a5.93 5.93 0 0 0-.75-2.94c-2.87-4.17-9.83 1.75-13.55 1.74-5.91 0-12.25-3.2-16.5-7.12a4.99 4.99 0 0 0-1.28-1c-1.69-.76-3.37.64-4.87 1.86-.16.14-.33.27-.5.4-3.45 2.74-8.07 3.29-12.33 4.4-4.26 1.11-8.83 3.34-10.15 7.54a6.1 6.1 0 0 0-.2.81c-.76 3.93 1.6 8.02 4.91 10.29z"></path>
  <path fill="#e8eaf2" fill-rule="nonzero" d="M631.58 686.84c3.54 2.42 7.94 3.17 12.2 3.72 4.26.55 8.64.95 12.5 2.85 3.33 1.65 6.13 4.34 9.66 5.52 3.2 1.07 6.7.78 10 .16a16.564 16.564 0 0 0 10.32-7c1.91-3 1.7-6.89 1.44-10.47-.31-4-.6-8.1-.9-12.15a5.93 5.93 0 0 0-.75-2.94c-2.87-4.17-9.83 1.75-13.55 1.74-5.91 0-12.25-3.2-16.5-7.12a4.99 4.99 0 0 0-1.28-1c-1.69-.76-3.37.64-4.87 1.86a35 35 0 0 0 4.15 8.56c3 4.39 7.72 7.75 13 8.14 2.64.19 5.35-.33 7.9.35 2.55.68 4.93 3.29 4 5.77-.93 2.48-4 3-6.58 3.09-3.61.19-7.31.37-10.73-.75-2.09-.7-4-1.85-6-2.7-8.65-3.59-19.58-1.58-26.73-7.64a15.228 15.228 0 0 0-2.18-1.67c-1.87 3.96 1.59 9.41 4.9 11.68z"></path>
  <path fill-opacity=".05" fill-rule="nonzero" d="M631.58 686.84c3.54 2.42 7.94 3.17 12.2 3.72 4.26.55 8.64.95 12.5 2.85 3.33 1.65 6.13 4.34 9.66 5.52 3.2 1.07 6.7.78 10 .16a16.564 16.564 0 0 0 10.32-7c1.91-3 1.7-6.89 1.44-10.47-.31-4-.6-8.1-.9-12.15a5.93 5.93 0 0 0-.75-2.94c-2.87-4.17-9.83 1.75-13.55 1.74-5.91 0-12.25-3.2-16.5-7.12a4.99 4.99 0 0 0-1.28-1c-1.69-.76-3.37.64-4.87 1.86a35 35 0 0 0 4.15 8.56c3 4.39 7.72 7.75 13 8.14 2.64.19 5.35-.33 7.9.35 2.55.68 4.93 3.29 4 5.77-.93 2.48-4 3-6.58 3.09-3.61.19-7.31.37-10.73-.75-2.09-.7-4-1.85-6-2.7-8.65-3.59-19.58-1.58-26.73-7.64a15.228 15.228 0 0 0-2.18-1.67c-1.87 3.96 1.59 9.41 4.9 11.68z"></path>
  <path fill="#303d5c" fill-rule="nonzero" d="M725.48 422.05a53.199 53.199 0 0 1-7.3 39.26c-2 3.14-4.4 6.09-5.92 9.5a43.841 43.841 0 0 0-2.32 7.54l-6.56 27.19c-1.78 7.34-3.56 14.82-3 22.35.37 5.25 1.69 11.15-1.54 15.3a11.256 11.256 0 0 0-2 2.68 6.854 6.854 0 0 0 0 3.54c3.32 19.74 5.79 40.37-.21 59.47-5.44 17.31-5.76 36.49-10.38 54-.57 2.18-1.23 4.47-2.88 6a9.39 9.39 0 0 1-4.3 2c-6.82 1.63-14-.28-20.38-3.22-4.47-2.07-9.28-5.7-8.9-10.61.19-2.34 1.55-4.39 2.48-6.54 1.81-4.22 2-8.93 2.45-13.5 1.23-11.48 4.77-22.55 7.44-33.78 2.67-11.23 4.49-22.95 2.23-34.27a299.547 299.547 0 0 0-22-67.82 8.073 8.073 0 0 0-2-3c-.9-.74-2.09-1.08-2.86-2-.77-.92-1-2.32-1.3-3.55-1-3.58-3.95-6.22-5.93-9.37-5-7.94-3.42-18.12-3.23-27.5.18-9.13-1.13-18.34.36-27.34 1.49-9 6.65-18.2 15.33-21 4.3-1.39 8.95-1.08 13.45-.63 23.74 2.37 46.88 6.74 69.27 15.3z"></path>
  <path fill-opacity=".05" fill-rule="nonzero" d="M725.48 422.05a53.199 53.199 0 0 1-7.3 39.26c-2 3.14-4.4 6.09-5.92 9.5a43.841 43.841 0 0 0-2.32 7.54l-6.56 27.19c-1.78 7.34-3.56 14.82-3 22.35.37 5.25 1.69 11.15-1.54 15.3a11.256 11.256 0 0 0-2 2.68 6.854 6.854 0 0 0 0 3.54c3.32 19.74 5.79 40.37-.21 59.47-5.44 17.31-5.76 36.49-10.38 54-.57 2.18-1.23 4.47-2.88 6a9.39 9.39 0 0 1-4.3 2c-6.82 1.63-14-.28-20.38-3.22-4.47-2.07-9.28-5.7-8.9-10.61.19-2.34 1.55-4.39 2.48-6.54 1.81-4.22 2-8.93 2.45-13.5 1.23-11.48 4.77-22.55 7.44-33.78 2.67-11.23 4.49-22.95 2.23-34.27a299.547 299.547 0 0 0-22-67.82 8.073 8.073 0 0 0-2-3c-.9-.74-2.09-1.08-2.86-2-.77-.92-1-2.32-1.3-3.55-1-3.58-3.95-6.22-5.93-9.37-5-7.94-3.42-18.12-3.23-27.5.18-9.13-1.13-18.34.36-27.34 1.49-9 6.65-18.2 15.33-21 4.3-1.39 8.95-1.08 13.45-.63 23.74 2.37 46.88 6.74 69.27 15.3z"></path>
  <path fill="#303d5c" fill-rule="nonzero" d="M628.4 479.28a57.723 57.723 0 0 0 1.2 10.54c4.2 23.567 8.677 47.08 13.43 70.54.42 2 .83 4.07 1.38 6.07a49.305 49.305 0 0 0 9.1 17.9c19.8 24.68 21.51 60.53 32.26 90.3.72 2 1.45 4 2.22 6a147.31 147.31 0 0 0 6.63 14.79 4.19 4.19 0 0 0 1.36 1.77c.668.335 1.415.48 2.16.42a63.003 63.003 0 0 0 27.95-6.33 5.811 5.811 0 0 0 3-2.46 6.042 6.042 0 0 0 .31-2.84c-.3-5.9-.66-12-3.47-17.2a36.89 36.89 0 0 0-6.88-8.34c-.84-18.52-2.67-37.08-6.74-55.17-2.09-9.25-4.68-18.6-10-26.42-4-5.77-9.64-11.46-8.94-18.43.31-3 1.59-6.86-.9-8.66-1.09-.79-2.7-.89-3.43-2a3.792 3.792 0 0 1-.48-1.72 42.661 42.661 0 0 1 .88-14.29c.72-3.1 1.8-6.14 2.13-9.31.33-3.17-.23-6.62-2.34-9-.13-6.36 0-13-.09-19.3-.06-3.63-.13-7.31.89-10.78.49-1.67 1.22-3.26 1.59-5 1.33-6.1-2-13.42 2-18.26 1.65-2 4.19-3 6.34-4.46 4.31-2.88 7.13-7.58 8.7-12.51 1.57-4.93 2-10.15 2.47-15.32.115-1.1.115-2.21 0-3.31a5.907 5.907 0 0 0-.44-1.65c-1.23-2.76-4.53-3.83-7.47-4.54a241.452 241.452 0 0 0-57-6.66c-7.1-4.84-11.1-3.11-14.11 2a53.261 53.261 0 0 0-4 9.81c-1.38 4.15-1.46 27.41-2.8 31.58-1.87 5.46 3.16 16.54 3.09 22.24z"></path>
  <path fill="#e23b4a" fill-rule="nonzero" d="M756.79 267.66c.53 3.66-1.23 7.26-1.43 10.95-.17 3.22.86 6.37 1.45 9.55 2.29 12.4-2.11 24.95-6.6 36.73a18.885 18.885 0 0 0-1.56 6c-.12 3.85 2.09 7.37 2.7 11.17 1.27 8-4.61 15.49-4.74 23.58 0 3.72 1.12 7.51.19 11.11-.62 2.41-2.12 4.47-3.19 6.72-1.89 4-2.39 8.49-4.2 12.5-3.25 7.26-10.25 12-16.9 16.35-3.79-1.26-7.89-2.76-10-6.17a15.173 15.173 0 0 1-1.73-5.41c-1.44-8.27-1.39-16.71-1.34-25.1a155.882 155.882 0 0 1 1.18-21.52c1.34-9.12 4.3-17.91 6.42-26.88 2.68-11.31 4-23 8.22-33.85 3.66-9.54 9.37-18.1 15.38-26.29 2.29-3.13 4.1-7.6 8.55-6.88a9.338 9.338 0 0 1 7.6 7.44z"></path>
  <path fill-opacity=".05" fill-rule="nonzero" d="M756.79 267.66c.53 3.66-1.23 7.26-1.43 10.95-.17 3.22.86 6.37 1.45 9.55 2.29 12.4-2.11 24.95-6.6 36.73a18.885 18.885 0 0 0-1.56 6c-.12 3.85 2.09 7.37 2.7 11.17 1.27 8-4.61 15.49-4.74 23.58 0 3.72 1.12 7.51.19 11.11-.62 2.41-2.12 4.47-3.19 6.72-1.89 4-2.39 8.49-4.2 12.5-3.25 7.26-10.25 12-16.9 16.35-3.79-1.26-7.89-2.76-10-6.17a15.173 15.173 0 0 1-1.73-5.41c-1.44-8.27-1.39-16.71-1.34-25.1a155.882 155.882 0 0 1 1.18-21.52c1.34-9.12 4.3-17.91 6.42-26.88 2.68-11.31 4-23 8.22-33.85 3.66-9.54 9.37-18.1 15.38-26.29 2.29-3.13 4.1-7.6 8.55-6.88a9.338 9.338 0 0 1 7.6 7.44z"></path>
  <path fill-opacity=".1" fill-rule="nonzero" d="M660.09 187.93c2.76 4.77 5.57 9.73 7.25 14.93 2.693.664 5.456 1 8.23 1 10.77 0 18.4-6.13 24.73-13.87.55-2.49 4-4.8 3.58-6.76-.5-2.58-2.94-2.07-5.13-1.92a194.072 194.072 0 0 0-19.94 2.57c-1.72.3-18.44 4.48-18.72 4.05z"></path>
  <circle cx="675.6" cy="168.41" r="34.51" fill="#ee8e9e"></circle>
  <path fill-opacity=".1" fill-rule="nonzero" d="M631.99 415.68c6-.35 12-.11 18 .13 3.748.037 7.484.422 11.16 1.15 4.53 1 8.77 3.09 13.24 4.38 7.16 2.09 14.72 2.18 22.13 2.91 4.87.476 9.708 1.234 14.49 2.27a5.907 5.907 0 0 0-.44-1.65c-1.23-2.76-4.53-3.83-7.47-4.54a241.452 241.452 0 0 0-57-6.66c-7.1-4.84-11.1-3.11-14.11 2.01z"></path>
  <path fill="#e23b4a" fill-rule="nonzero" d="M655.51 224.91c1.51 1.74 3.53 3.66 5.76 3.1a8.096 8.096 0 0 0 2.24-1.2c4-2.57 8.86-3.17 13.54-3.87a199.929 199.929 0 0 0 27.89-6.27 28.392 28.392 0 0 1 8.25-1.68c5.85 0 11 3.92 14.7 8.48 3.7 4.56 6.26 9.89 9.86 14.5 2.56 3.29 5.61 6.19 8 9.6 6 8.61 7.34 19.85 5.78 30.26-1.56 10.41-5.72 20.21-9.84 29.9-2.36 5.55-4.74 11.13-8 16.19 1.39 7.91.66 16.95-3.1 24-1.23 2.31-2.73 4.56-3.13 7.15a17.748 17.748 0 0 0 .21 5.24l1.76 12.49c.53 3.81 1.07 7.61 1.76 11.39 1.27 6.92 3 14.43-.21 20.69-3.84 7.49.19 17.1-.82 25.46a128.098 128.098 0 0 0-33.63-8c-7.42-.73-15-.82-22.13-2.9-4.47-1.3-8.7-3.36-13.24-4.4a61.344 61.344 0 0 0-11.17-1.14c-8.27-.33-16.6-.66-24.78.56-.67.1-1.47.15-1.87-.39a1.783 1.783 0 0 1-.25-1 16.453 16.453 0 0 1 2.12-8.78c1-1.84 2.49-3.65 2.45-5.76a8.663 8.663 0 0 0-.72-2.86l-3.62-9.68c-3.07-8.16-1.61-17.65-3.2-26.22a153.85 153.85 0 0 1-2.38-20.29c-.3-5.82-.11-12.13 3.4-16.78a19.006 19.006 0 0 0 2.65-3.69 11.1 11.1 0 0 0 .63-4.41c.08-11.64-.253-23.277-1-34.91 3.07-5.5 6.26-11.13 9.32-16.63 3.56-6.4 7.18-12.93 8.62-20.11 1-4.76.92-9.65 1.6-14.45a6.248 6.248 0 0 1 1.22-3.38c1.17-1.32 3.14-1.51 4.91-1.46 2.191.087 4.356.509 6.42 1.25z"></path>
  <path fill-opacity=".1" fill-rule="nonzero" d="M529.16 204.17a15.001 15.001 0 0 0 7.47 3c3.56.24 11.12-1.85 13.33-4.9a8.817 8.817 0 0 0 1.27-5.1 6.179 6.179 0 0 0-1.48-.29c-3.87-.23-7.82-.46-11.58.47-3.76.93-7.4 3.21-9 6.75l-.01.07z"></path>
  <path fill="#e23b4a" fill-rule="nonzero" d="M643.99 278.82c-2.11 2.61-4.29 5.31-7.27 6.85-3.43 1.78-7.47 1.82-11.33 1.74a270.971 270.971 0 0 1-47.35-5.2 29.255 29.255 0 0 1-5.21-1.4 27.738 27.738 0 0 1-5.27-3.28c-5.13-3.69-10.34-7.45-14.25-12.43a41.84 41.84 0 0 1-8.44-20.71c-3.72-3.42-5.69-8.29-7.55-13a20.098 20.098 0 0 1-1.72-6.31c-.1-2.23 1.38-4.57 1-6.77a17.9 17.9 0 0 0-5.47-9.85 3.57 3.57 0 0 1-1.31-1.73 2.805 2.805 0 0 1 .32-1.69c1.58-3.54 5.22-5.82 9-6.75 3.78-.93 7.71-.69 11.58-.46 1.4.09 2.42.74 3.79 1l2.7 7.11a9.24 9.24 0 0 0 1.77 3.24 17.384 17.384 0 0 0 1.91 1.5 11.01 11.01 0 0 1 3.8 9.58c5.035 1.952 7.72 7.552 6.09 12.7 4.124.887 7.5 3.861 8.9 7.84a5.878 5.878 0 0 0 1.16 2.44 4.758 4.758 0 0 0 3.11 1c3 .19 5.71 2.59 8.48 1.29a17.194 17.194 0 0 1 10.03-1.41 7.407 7.407 0 0 0 2.15.19 5.842 5.842 0 0 0 1.76-.61 14.447 14.447 0 0 1 4-1.58 3.744 3.744 0 0 1 3.79 1.47c1-1.06 1.55-2.42 2.43-3.55a3.886 3.886 0 0 1 3.68-1.76c-.92-.82 0-2.45 1.21-2.75 1.21-.3 2.45.14 3.68.14 3.19 0 5.64-2.92 8.74-3.68 2.85-.69 6.65.14 8.11-2.41.52-.9.62-2.12 1.5-2.67a2.871 2.871 0 0 1 1.92-.23 18.92 18.92 0 0 1 5.83 1.77c3 11.69 1.42 23.83-.86 35.68-1.09 5.63-2.81 10.19-6.41 14.69z"></path>
  <path fill-opacity=".1" fill-rule="nonzero" d="M644.09 320.71l14.86 30c-1.61-2.77-5-3.85-7.67-5.62a20.325 20.325 0 0 1-7.33-9.85 60.485 60.485 0 0 1-2.86-12.18c-.3-1.9-.93-4.57 0-6.29 1.73.35 2.29 2.53 3 3.94zM686.84 346.12c3.35 3.32 7.46 5.76 11.15 8.7 8.62 6.86 14.76 16.28 20.76 25.52a40.423 40.423 0 0 1 4.24 7.78c-.7.61-1.75 0-2.44-.63l-11.68-10.26a26.395 26.395 0 0 1-3.89-3.94c-2-2.72-2.92-6.13-4.76-9-1.84-2.87-4.52-5-7.09-7.23-2.57-2.23-15-12.71-12-16.75 2.17 1.08 3.96 4.08 5.71 5.81z"></path>
  <path fill="#e23b4a" fill-rule="nonzero" d="M661.34 216.25c3.7-2.31 8.06-3.28 12.35-4.07a25.99 25.99 0 0 1 7.86-.56c2.43.3 4.76 1.24 7.21 1.37 3.43.2 6.72-1.2 10-2.1 3.28-.9 7.15-1.26 9.94.75a4.314 4.314 0 0 0 2.16 1.15 3.76 3.76 0 0 0 2.23-1.1c4.821-3.446 11.44-3.096 15.87.84 6.33 5.93 5.62 17.52 13 22 2.05 1.24 4.66 1.9 5.85 4 .283.662.618 1.3 1 1.91a5.137 5.137 0 0 0 1.78 1.27 34.87 34.87 0 0 1 6.12 3.51 8.764 8.764 0 0 1 3.52 5.9 11.003 11.003 0 0 1-1.09 5c-7.413 18.197-25.592 29.823-45.22 28.92-1.69-.08-3.52-.31-4.74-1.48a8.942 8.942 0 0 1-1.66-2.73c-3.48-7.31-10-12.71-14.19-19.66-2.48-4.14-4.07-8.77-6.65-12.85-3.84-6.2-9.79-10.81-15.59-15.2-3.28-2.5-6.93-5.12-11.06-4.95-3.67.16-6.35.36-5-4.15a14.414 14.414 0 0 1 6.31-7.77z"></path>
  <path fill-opacity=".05" fill-rule="nonzero" d="M661.34 216.25c3.7-2.31 8.06-3.28 12.35-4.07a25.99 25.99 0 0 1 7.86-.56c2.43.3 4.76 1.24 7.21 1.37 3.43.2 6.72-1.2 10-2.1 3.28-.9 7.15-1.26 9.94.75a4.314 4.314 0 0 0 2.16 1.15 3.76 3.76 0 0 0 2.23-1.1c4.821-3.446 11.44-3.096 15.87.84 6.33 5.93 5.62 17.52 13 22 2.05 1.24 4.66 1.9 5.85 4 .283.662.618 1.3 1 1.91a5.137 5.137 0 0 0 1.78 1.27 34.87 34.87 0 0 1 6.12 3.51 8.764 8.764 0 0 1 3.52 5.9 11.003 11.003 0 0 1-1.09 5c-7.413 18.197-25.592 29.823-45.22 28.92-1.69-.08-3.52-.31-4.74-1.48a8.942 8.942 0 0 1-1.66-2.73c-3.48-7.31-10-12.71-14.19-19.66-2.48-4.14-4.07-8.77-6.65-12.85-3.84-6.2-9.79-10.81-15.59-15.2-3.28-2.5-6.93-5.12-11.06-4.95-3.67.16-6.35.36-5-4.15a14.414 14.414 0 0 1 6.31-7.77z"></path>
  <path fill="#3f3d56" fill-rule="nonzero" d="M643.38 716.47c2.5 2.33 5.94 3.35 9.27 4.08 7.59 1.66 15.35 2.25 23.09 2.85l7.54.58c7.36.55 14.73 1.12 22.12 1.15 9.119.033 18.222-.753 27.2-2.35a2.31 2.31 0 0 0 2.49-2.76 131.423 131.423 0 0 0-3.34-27.31c-.86-3.68-7.46 4.57-7.75 4.92-1.83 2.08-3.22 3-6 3.18-7.59.42-16.1-4.2-22.13-8.3a27.719 27.719 0 0 0-4.1-2.54 11.804 11.804 0 0 0-3.31-1 20.057 20.057 0 0 0-11.3 2.29c-4.53 2.25-8.51 5.48-13 7.79a36.269 36.269 0 0 1-11.65 3.69c-4.11.57-9 .84-11.13 4.4-1.75 2.98-.49 6.98 2 9.33z"></path>
  <path fill="#e8eaf2" fill-rule="nonzero" d="M643.38 717.83c2.5 2.33 5.94 3.35 9.27 4.08 7.59 1.66 15.35 2.25 23.09 2.85l7.54.58c7.36.55 14.73 1.12 22.12 1.15 9.119.033 18.222-.753 27.2-2.35a2.998 2.998 0 0 0 2.16-1c.32-.5 1.69-2.49 1.68-3.08-.15-9.19-2.64-18.36-4.7-27.31-.86-3.68-7.46 4.57-7.75 4.92-1.83 2.08-3.22 3-6 3.18-7.59.42-16.1-4.2-22.13-8.3a27.719 27.719 0 0 0-4.1-2.54 11.804 11.804 0 0 0-3.31-1c1 5.46 8.81 12.06 12.85 14.07 8.18 4.06 17.9 2 27 2.51a3.708 3.708 0 0 1 1.91.47c1.1.72 1.16 2.27 1.13 3.58-.08 2.18-.36 4.73-2.24 5.84a6.376 6.376 0 0 1-3 .63c-22.494.989-45.031.2-67.4-2.36a37.27 37.27 0 0 1-11-2.44 28.16 28.16 0 0 1-6.37-4.1c-2.84 2.27-.44 8.29 2.05 10.62z"></path>
  <path fill="#3f3d56" fill-rule="nonzero" d="M662.17 168.04c.13 3.57-2.3 10.49 4.37 8.56 4-1.16 5.1-5.87 10.15-4.82 5.05 1.05 6.21 7.27 7.92 11.34a21.707 21.707 0 0 0 15.72 12.71 9.453 9.453 0 0 0 4.33 0c3.26-.93 5.12-4.29 6.45-7.4a59.21 59.21 0 0 0 2.85-8.12 34.544 34.544 0 0 0 1-6 26.983 26.983 0 0 0 0-4.12c-.61-8.11-5.22-15.51-11.14-21.11-5.92-5.6-13.09-9.63-20.18-13.62a29.367 29.367 0 0 0-7.45-3.32 24.93 24.93 0 0 0-7.86-.32 27.12 27.12 0 0 0-10 2.35 14.153 14.153 0 0 0-3.52 2.47 10.537 10.537 0 0 0-3 5.09c-1.28 5.25 2.06 10 4.78 14.11 2.41 3.7 5.4 7.61 5.58 12.2z"></path>
  <path fill-opacity=".1" fill-rule="nonzero" d="M549.86 244.63c1.43-3.59 7.43-13.53 5.69-16.95a45.246 45.246 0 0 0-4.56 8.15c-1.13 2.78-.21 6.51-1.13 8.8zM656.44 155.86c-2.72-4.15-6.07-8.87-4.79-14.11a11.115 11.115 0 0 1 3.88-5.81 9.648 9.648 0 0 0-1 2.45c-1.28 5.24 2.07 10 4.79 14.11 2.41 3.68 5.4 7.59 5.58 12.18.13 3.56-2.31 10.49 4.37 8.56 4-1.15 5.1-5.87 10.15-4.81 5.05 1.06 6.2 7.26 7.91 11.33a21.749 21.749 0 0 0 15.76 12.71 9.453 9.453 0 0 0 4.33 0 6.474 6.474 0 0 0 2-1 8.785 8.785 0 0 1-4.94 4.36 9.453 9.453 0 0 1-4.33 0 21.747 21.747 0 0 1-15.7-12.71c-1.71-4.07-2.82-10.27-7.91-11.34-5.09-1.07-6.17 3.67-10.15 4.82-6.68 1.93-4.24-5-4.37-8.56-.17-4.59-3.17-8.5-5.58-12.18z"></path>
  <path fill-opacity=".1" fill-rule="nonzero" d="M654.96 148.77a31.195 31.195 0 0 0 2 2.92 35.772 35.772 0 0 0 4.72 4.89c1 .89 2.09 1.72 3.19 2.5a51.223 51.223 0 0 0 6.44 3.85c6.53 3.29 13.59 5.35 20.62 7.38l13.78 4c1.69 1.28 4.79 3.59 8.21 6a34.544 34.544 0 0 0 1-6 26.983 26.983 0 0 0 0-4.12c-.61-8.11-5.22-15.51-11.14-21.11-5.92-5.6-13.09-9.63-20.18-13.62a29.367 29.367 0 0 0-7.45-3.32 24.93 24.93 0 0 0-7.86-.32 27.12 27.12 0 0 0-10 2.35 14.153 14.153 0 0 0-3.52 2.47 13.14 13.14 0 0 0-1.77 3.74c-.78 2.84.42 5.88 1.96 8.39z"></path>
  <path fill="#e23b4a" fill-rule="nonzero" d="M654.96 147.84a31.195 31.195 0 0 0 2 2.92 35.772 35.772 0 0 0 4.72 4.89c1 .89 2.09 1.72 3.19 2.5a51.223 51.223 0 0 0 6.44 3.85c6.53 3.29 13.59 5.35 20.62 7.39l13.78 4c4.81 3.64 20.9 15.56 23.61 14.07 3.19-1.75-14.28-14.12-14.28-14.12l-.81.61c2.56-1.61 3.9-5.34 4.48-8.56 1-5.77 1.5-11.77.13-17.47-1.37-5.7-4.79-11.13-10-13.8-2.32-1.19-5.13-2-6.8-3.83a4.91 4.91 0 0 1-.66-.89 4.385 4.385 0 0 1-.26-.47 6.136 6.136 0 0 0-.73-1.42c-1-1.11-2.7-.78-4.15-.6l-.46.05H695c-5.18.12-10.2-2.77-15.44-2.77-5.75 0-10.63 3.32-15.69 5.59-1 .46-2 .88-2.9 1.31-3.65 1.7-6.4 3.51-7.91 8.35-.84 2.85.36 5.89 1.9 8.4z"></path>
  <path fill-opacity=".1" fill-rule="nonzero" d="M695.03 126.99a2.359 2.359 0 0 0 .54 3 4.286 4.286 0 0 0 2.18.78c.561.074 1.125.117 1.69.13a4.66 4.66 0 0 0 2.24-.39c.139-.068.27-.152.39-.25a4.91 4.91 0 0 1-.66-.89c-.13.1-.26.08-.78 0a11.955 11.955 0 0 1-2.79-.48 2.744 2.744 0 0 1-2-2l-.81.1zM714.73 173.2a6.402 6.402 0 0 1-2.38.89c-.605.16-1.225.26-1.85.3a10.243 10.243 0 0 1-4.51-1.27l8.74.08z"></path>
  <path fill="url(#_Linear24)" fill-rule="nonzero" d="M283.39 281.44l-1.3-2.86-.52.14 1.36 2.85 9.8 20.65c-.21.27-3.1 3.73-3 7a4.72 4.72 0 0 0 .25 1.49c.5 1.46 1.12 2.05 1.68 2.21v-.25a6.183 6.183 0 0 1 0-1v-.44a.965.965 0 0 1 0-.17c.005-.057 0-.05 0-.07 0-.02 0 0 0 0 .021-.072.038-.146.05-.22a.215.215 0 0 1 0-.08c.005-.026 0-.07 0-.1l.12-.43.05-.12.06-.22c.05-.14.1-.29.16-.43.021-.069.047-.136.08-.2l.12-.28c.12-.28.26-.55.39-.82.13-.27.27-.5.41-.73.397-.662.838-1.297 1.32-1.9l-11.03-24.02zm10.9 34.6h-.06c-.2.051-.41.051-.61 0h-.1a1.267 1.267 0 0 1-.18-.06 1.402 1.402 0 0 1-.41-.25l-.15-.14a3.745 3.745 0 0 1-.72-1.14 3.652 3.652 0 0 0-.22 1.17c-.054.708.3 1.388.91 1.75.376.247.699.567.95.94a.07.07 0 0 0 0-.06.272.272 0 0 1 0-.09.165.165 0 0 1 0-.07c.097-.412.241-.811.43-1.19.1-.19.19-.37.3-.54.037-.08.081-.157.13-.23l.09-.14.15-.24a1.791 1.791 0 0 1-.51.29zm0 0h-.06c-.2.051-.41.051-.61 0h-.1a1.267 1.267 0 0 1-.18-.06 1.402 1.402 0 0 1-.41-.25l-.15-.14a3.745 3.745 0 0 1-.72-1.14 3.652 3.652 0 0 0-.22 1.17c-.054.708.3 1.388.91 1.75.376.247.699.567.95.94a.07.07 0 0 0 0-.06.272.272 0 0 1 0-.09.165.165 0 0 1 0-.07c.097-.412.241-.811.43-1.19.1-.19.19-.37.3-.54.037-.08.081-.157.13-.23l.09-.14.15-.24a1.791 1.791 0 0 1-.51.29zm-10.9-34.6l-1.3-2.86-.52.14 1.36 2.85 9.8 20.65c-.21.27-3.1 3.73-3 7a4.72 4.72 0 0 0 .25 1.49c.5 1.46 1.12 2.05 1.68 2.21v-.25a6.183 6.183 0 0 1 0-1 .565.565 0 0 1 0-.13c.005-.043 0-.09 0-.14a.215.215 0 0 0 0-.08v-.05a.268.268 0 0 1 0-.08.601.601 0 0 1 0-.12c.004-.04 0 0 0 0 .011-.078.028-.155.05-.23a.215.215 0 0 1 0-.08c.005-.026 0-.07 0-.1l.12-.43.05-.12.06-.22c.05-.14.1-.29.16-.43.021-.069.047-.136.08-.2l.12-.28c.12-.28.26-.55.39-.82.13-.27.27-.5.41-.73.397-.662.838-1.297 1.32-1.9l-11.03-24.09zm10.9 34.6h-.06c-.2.051-.41.051-.61 0h-.1a1.267 1.267 0 0 1-.18-.06 1.402 1.402 0 0 1-.41-.25l-.15-.14a3.745 3.745 0 0 1-.72-1.14 3.652 3.652 0 0 0-.22 1.17c-.054.708.3 1.388.91 1.75.376.247.699.567.95.94a.07.07 0 0 0 0-.06.272.272 0 0 1 0-.09.165.165 0 0 1 0-.07c.097-.412.241-.811.43-1.19l.21-.41.09-.13c.037-.08.081-.157.13-.23l.09-.14.15-.24a1.791 1.791 0 0 1-.51.29zm-10.9-34.6l-1.3-2.86-.52.14 1.36 2.85 9.8 20.65c-.21.27-3.1 3.73-3 7a4.72 4.72 0 0 0 .25 1.49c.5 1.46 1.12 2.05 1.68 2.21v-.25a6.183 6.183 0 0 1 0-1 .565.565 0 0 1 0-.13c.005-.043 0-.09 0-.14a.215.215 0 0 0 0-.08.268.268 0 0 1 0-.08.601.601 0 0 1 0-.12c.004-.04 0 0 0 0 .011-.078.028-.155.05-.23a.215.215 0 0 1 0-.08c.005-.026 0-.07 0-.1l.12-.43.05-.12.06-.22c.05-.14.1-.29.16-.43.021-.069.047-.136.08-.2l.12-.28c.12-.28.26-.55.39-.82.13-.27.27-.5.41-.73.397-.662.838-1.297 1.32-1.9l-11.03-24.14zm10.9 34.6h-.06c-.2.051-.41.051-.61 0h-.1a1.267 1.267 0 0 1-.18-.06 1.402 1.402 0 0 1-.41-.25l-.15-.14a3.745 3.745 0 0 1-.72-1.14 3.652 3.652 0 0 0-.22 1.17c-.054.708.3 1.388.91 1.75.376.247.699.567.95.94a.07.07 0 0 0 0-.06.268.268 0 0 1 0-.08.268.268 0 0 1 0-.08c.097-.412.241-.811.43-1.19l.21-.41.09-.13c.037-.08.081-.157.13-.23l.09-.14.15-.24a1.791 1.791 0 0 1-.51.29zm-10.9-34.6l-1.3-2.86-.52.14 1.36 2.85 9.8 20.65c-.21.27-3.1 3.73-3 7a4.72 4.72 0 0 0 .25 1.49c.5 1.46 1.12 2.05 1.68 2.21v-.25a6.183 6.183 0 0 1 0-1 .565.565 0 0 1 0-.13c.005-.043 0-.09 0-.14a.215.215 0 0 0 0-.08.268.268 0 0 1 0-.08.601.601 0 0 1 0-.12c.004-.04 0 0 0 0 .011-.078.028-.155.05-.23a.215.215 0 0 1 0-.08c.005-.026 0-.07 0-.1l.12-.43.05-.12.06-.22c.05-.14.1-.29.16-.43.021-.069.047-.136.08-.2l.12-.28c.12-.28.26-.55.39-.82.13-.27.27-.5.41-.73.397-.662.838-1.297 1.32-1.9l-11.03-24.14zm10.9 34.6h-.06c-.2.051-.41.051-.61 0h-.1a1.267 1.267 0 0 1-.18-.06 1.402 1.402 0 0 1-.41-.25l-.15-.14a3.745 3.745 0 0 1-.72-1.14 3.652 3.652 0 0 0-.22 1.17c-.054.708.3 1.388.91 1.75.376.247.699.567.95.94a.07.07 0 0 0 0-.06.268.268 0 0 1 0-.08.268.268 0 0 1 0-.08c.097-.412.241-.811.43-1.19l.21-.41.09-.13c.037-.08.081-.157.13-.23l.09-.14.15-.24a1.791 1.791 0 0 1-.51.29zm-10.9-34.6l-1.3-2.86-.52.14 1.36 2.85 9.8 20.65c-.21.27-3.1 3.73-3 7a4.72 4.72 0 0 0 .25 1.49c.5 1.46 1.12 2.05 1.68 2.21v-.25a6.183 6.183 0 0 1 0-1 .565.565 0 0 1 0-.13c.005-.043 0-.09 0-.14a.215.215 0 0 0 0-.08.268.268 0 0 1 0-.08.601.601 0 0 1 0-.12c.004-.04 0 0 0 0 .011-.078.028-.155.05-.23a.215.215 0 0 1 0-.08c.005-.026 0-.07 0-.1l.12-.43.05-.12.06-.22c.05-.14.1-.29.16-.43.021-.069.047-.136.08-.2l.12-.28c.12-.28.26-.55.39-.82.13-.27.27-.5.41-.73.397-.662.838-1.297 1.32-1.9l-11.03-24.14zm10.9 34.6h-.06c-.2.051-.41.051-.61 0h-.1a1.267 1.267 0 0 1-.18-.06 1.402 1.402 0 0 1-.41-.25l-.15-.14a3.745 3.745 0 0 1-.72-1.14 3.652 3.652 0 0 0-.22 1.17c-.054.708.3 1.388.91 1.75.376.247.699.567.95.94a.07.07 0 0 0 0-.06.268.268 0 0 1 0-.08.268.268 0 0 1 0-.08c.097-.412.241-.811.43-1.19l.21-.41.09-.13c.037-.08.081-.157.13-.23l.09-.14.15-.24a1.791 1.791 0 0 1-.51.29zm-10.9-34.6l-1.3-2.86-.52.14 1.36 2.85 9.8 20.65c-.21.27-3.1 3.73-3 7a4.72 4.72 0 0 0 .25 1.49c.5 1.46 1.12 2.05 1.68 2.21v-.25a6.183 6.183 0 0 1 0-1 .565.565 0 0 1 0-.13c.005-.043 0-.09 0-.14a.215.215 0 0 0 0-.08.268.268 0 0 1 0-.08.601.601 0 0 1 0-.12c.004-.04 0 0 0 0 .011-.078.028-.155.05-.23a.215.215 0 0 1 0-.08c.005-.026 0-.07 0-.1l.12-.43.05-.12.06-.22c.05-.14.1-.29.16-.43.021-.069.047-.136.08-.2l.12-.28c.12-.28.26-.55.39-.82.13-.27.27-.5.41-.73.397-.662.838-1.297 1.32-1.9l-11.03-24.14zm10.9 34.6h-.06c-.2.051-.41.051-.61 0h-.1a1.267 1.267 0 0 1-.18-.06 1.402 1.402 0 0 1-.41-.25l-.15-.14a3.745 3.745 0 0 1-.72-1.14 3.652 3.652 0 0 0-.22 1.17c-.054.708.3 1.388.91 1.75.376.247.699.567.95.94a.07.07 0 0 0 0-.06.268.268 0 0 1 0-.08.268.268 0 0 1 0-.08c.097-.412.241-.811.43-1.19l.21-.41.09-.13c.037-.08.081-.157.13-.23l.09-.14.15-.24a1.791 1.791 0 0 1-.51.29zm-10.9-34.6l-1.3-2.86-.52.14 1.36 2.85 9.8 20.65c-.21.27-3.1 3.73-3 7a4.72 4.72 0 0 0 .25 1.49c.5 1.46 1.12 2.05 1.68 2.21v-.25a6.183 6.183 0 0 1 0-1 .565.565 0 0 1 0-.13c.005-.043 0-.09 0-.14a.215.215 0 0 0 0-.08.268.268 0 0 1 0-.08.601.601 0 0 1 0-.12c.004-.04 0 0 0 0 .011-.078.028-.155.05-.23a.215.215 0 0 1 0-.08c.005-.026 0-.07 0-.1l.12-.43.05-.12.06-.22c.05-.14.1-.29.16-.43.021-.069.047-.136.08-.2l.12-.28c.12-.28.26-.55.39-.82.13-.27.27-.5.41-.73.397-.662.838-1.297 1.32-1.9l-11.03-24.14zm10.9 34.6h-.06c-.2.051-.41.051-.61 0h-.1a1.267 1.267 0 0 1-.18-.06 1.402 1.402 0 0 1-.41-.25l-.15-.14a3.745 3.745 0 0 1-.72-1.14 3.652 3.652 0 0 0-.22 1.17c-.054.708.3 1.388.91 1.75.376.247.699.567.95.94a.07.07 0 0 0 0-.06.268.268 0 0 1 0-.08.268.268 0 0 1 0-.08c.097-.412.241-.811.43-1.19l.21-.41.09-.13c.037-.08.081-.157.13-.23l.09-.14.15-.24a1.791 1.791 0 0 1-.51.29zm-10.9-34.6l-1.3-2.86-.52.14 1.36 2.85 9.8 20.65c-.21.27-3.1 3.73-3 7a4.72 4.72 0 0 0 .25 1.49c.5 1.46 1.12 2.05 1.68 2.21v-.25a6.183 6.183 0 0 1 0-1 .565.565 0 0 1 0-.13c.005-.043 0-.09 0-.14a.215.215 0 0 0 0-.08.268.268 0 0 1 0-.08.601.601 0 0 1 0-.12c.004-.04 0 0 0 0 .011-.078.028-.155.05-.23a.215.215 0 0 1 0-.08c.005-.026 0-.07 0-.1l.12-.43.05-.12.06-.22c.05-.14.1-.29.16-.43.021-.069.047-.136.08-.2l.12-.28c.12-.28.26-.55.39-.82.13-.27.27-.5.41-.73.397-.662.838-1.297 1.32-1.9l-11.03-24.14zm10.9 34.6h-.06c-.2.051-.41.051-.61 0h-.1a1.267 1.267 0 0 1-.18-.06 1.402 1.402 0 0 1-.41-.25l-.15-.14a3.745 3.745 0 0 1-.72-1.14 3.652 3.652 0 0 0-.22 1.17c-.054.708.3 1.388.91 1.75.376.247.699.567.95.94a.07.07 0 0 0 0-.06.268.268 0 0 1 0-.08.268.268 0 0 1 0-.08c.097-.412.241-.811.43-1.19l.21-.41.09-.13c.037-.08.081-.157.13-.23l.09-.14.15-.24a1.791 1.791 0 0 1-.51.29zm-10.9-34.6l-1.3-2.86-.52.14 1.36 2.85 9.8 20.65c-.21.27-3.1 3.73-3 7a4.72 4.72 0 0 0 .25 1.49c.5 1.46 1.12 2.05 1.68 2.21v-.25a6.183 6.183 0 0 1 0-1 .565.565 0 0 1 0-.13c.005-.043 0-.09 0-.14a.215.215 0 0 0 0-.08.268.268 0 0 1 0-.08.601.601 0 0 1 0-.12c.004-.04 0 0 0 0 .011-.078.028-.155.05-.23a.215.215 0 0 1 0-.08c.005-.026 0-.07 0-.1l.12-.43.05-.12.06-.22c.05-.14.1-.29.16-.43.021-.069.047-.136.08-.2l.12-.28c.12-.28.26-.55.39-.82.13-.27.27-.5.41-.73.397-.662.838-1.297 1.32-1.9l-11.03-24.14zm10.9 34.6h-.06c-.2.051-.41.051-.61 0h-.1a1.267 1.267 0 0 1-.18-.06 1.402 1.402 0 0 1-.41-.25l-.15-.14a3.745 3.745 0 0 1-.72-1.14 3.652 3.652 0 0 0-.22 1.17c-.054.708.3 1.388.91 1.75.376.247.699.567.95.94a.07.07 0 0 0 0-.06.268.268 0 0 1 0-.08.268.268 0 0 1 0-.08c.097-.412.241-.811.43-1.19l.21-.41.09-.13c.037-.08.081-.157.13-.23l.09-.14.15-.24a1.791 1.791 0 0 1-.51.29zm-10.9-34.6l-1.3-2.86-.52.14 1.36 2.85 9.8 20.65c-.21.27-3.1 3.73-3 7a4.72 4.72 0 0 0 .25 1.49c.5 1.46 1.12 2.05 1.68 2.21v-.25a6.183 6.183 0 0 1 0-1 .565.565 0 0 1 0-.13c.005-.043 0-.09 0-.14a.215.215 0 0 0 0-.08v-.05a.268.268 0 0 1 0-.08.601.601 0 0 1 0-.12c.004-.04 0 0 0 0 .011-.078.028-.155.05-.23a.215.215 0 0 1 0-.08c.005-.026 0-.07 0-.1l.12-.43.05-.12.06-.22c.05-.14.1-.29.16-.43.021-.069.047-.136.08-.2l.12-.28c.12-.28.26-.55.39-.82.13-.27.27-.5.41-.73.397-.662.838-1.297 1.32-1.9l-11.03-24.09zm10.9 34.6h-.06c-.2.051-.41.051-.61 0h-.1a.636.636 0 0 1-.18-.06 1.402 1.402 0 0 1-.41-.25l-.15-.14a3.745 3.745 0 0 1-.72-1.14 3.652 3.652 0 0 0-.22 1.17c-.054.708.3 1.388.91 1.75.376.247.699.567.95.94a.392.392 0 0 1 0-.16.268.268 0 0 1 0-.08c.097-.412.241-.811.43-1.19l.21-.41.22-.36.09-.14.15-.24a1.788 1.788 0 0 1-.51.31zm-2.2-6.21c.05-.14.1-.29.16-.43s.05-.14.08-.2c.03-.097.07-.191.12-.28.12-.28.26-.55.39-.82.13-.27.27-.5.41-.73.397-.662.838-1.297 1.32-1.9l-11.13-24-1.35-2.89-.52.14 1.36 2.85 9.8 20.65c-.21.27-3.1 3.73-3 7a4.72 4.72 0 0 0 .25 1.49c.5 1.46 1.12 2.05 1.68 2.21v-.25a6.183 6.183 0 0 1 0-1 .565.565 0 0 1 0-.13c.005-.043 0-.09 0-.14a2.085 2.085 0 0 1 0-.25l.06-.3v-.25l.12-.43c.12-.11.16-.22.25-.34zM442.6 169.66a8.465 8.465 0 0 0-4.76-3.05 7.142 7.142 0 0 0-5.47 1.26c.45-.49 2.93-3.19 5-5.86 2.46-3.13 4.41-6.23 2-5.72-4.65 1-13.24 11.39-13.24 11.39l-1.76 3.14-5.1 9.11-.54 1c-1.719.049-3.43.26-5.11.63l-.58.77c-.87 1.19-2.43 3.5-2.6 4.93-.24 2-8.59 5.69-12 7.67-3.41 1.98-6.62 8.42-6.62 8.42s-11.29 1-14.48 4c-2.23 2.08-7.68 2.1-10.77 1.92l-.79-.05c-.88-.06-1.43-.13-1.43-.13s-3.19-3.47-5.64-3.72a24.51 24.51 0 0 0-4.66 0c-1.55.148-1.29-.43-3.16-1l-.52-.15c-.44-.12-.91-.25-1.41-.37l-.38-.1a6.05 6.05 0 0 0 1.18-1.86c.336-.83.443-1.735.31-2.62a7.544 7.544 0 0 0-1.05-2.64c-.31-.49-.63-1-.93-1.47a23.07 23.07 0 0 1-3.08-8.7c-.43-3.078 0 0 0 0a23.662 23.662 0 0 1 2.26-14.34 34.209 34.209 0 0 1 2-3.33l1.13-1.59.71-1 .79-1.11.76-1.07a28.07 28.07 0 0 0 2.89-5.05c.16-.35.28-.71.42-1.07 0-.12.07-.25.11-.37.04-.12.16-.49.22-.73s.08-.29.11-.44c.067-.223.121-.45.16-.68 0-.16.07-.32.1-.47.03-.15.08-.45.11-.67.03-.22 0-.32.07-.49l.06-.67c.01-.157.01-.313 0-.47-.01-.157 0 0 0 0V150.19c0-.16 0-.44-.07-.67-.07-.23 0-.37-.07-.56-.07-.19-.06-.38-.08-.57l-.12-.58c0-.18-.07-.36-.11-.53l-.15-.6c0-.17-.09-.34-.13-.5-.04-.16-.13-.41-.19-.6a4.56 4.56 0 0 0-.17-.48c-.07-.2-.13-.4-.22-.6-.09-.2-.12-.29-.17-.43a18.32 18.32 0 0 0-2.1-3.71l-1.46-1.82-.39-.49a2.096 2.096 0 0 0-.14-.26 8.4 8.4 0 0 1-.26-.52c-.74-1.46-1.34-3-1.95-4.53-.17-.47-.37-.93-.56-1.4 0-.1-.08-.2-.11-.3-.3-.72-.61-1.42-.94-2.12-.25-.52-.52-1-.79-1.54-.09-.16-.18-.31-.26-.47l-.63-1-.31-.5-.67-1-.3-.43c-.32-.45-.64-.89-1-1.33-.35-.46-.73-.91-1.09-1.36l-.3-.34-.87-1-.34-.38-.91-1-.31-.32a94.915 94.915 0 0 0-4.45-4.28l-.79-.71-2.78-2.47-1-.83c-.29-.26-.61-.52-.91-.77a24.977 24.977 0 0 0-7-4.52 22.326 22.326 0 0 0-10.34-1.06 35.196 35.196 0 0 0-15.76 5.51c-.38.24-.74.5-1.11.77a29.268 29.268 0 0 0-5.61 5.23c-.28.33-.54.67-.8 1-.26.33-.44.61-.66.93-2.46 3.63-4 7.79-5.59 11.9-5.43 14.39-10.94 29.25-11.71 44.48 0 .26 0 .51-.05.77-.08 1.92-.08 3.85 0 5.79a.752.752 0 0 0 0 .15c0 .38 0 .75.06 1.13.36 5.74 1.5 11.48 2.36 17.2l-.59.21c-7 2.66-8.3 8-8.3 8a.106.106 0 0 1 0 .05c.068.44.101.885.1 1.33a18.637 18.637 0 0 1-2.61 9.24l-.44.74c-2.19 3.6-2.61 6-2.56 7.49a4.19 4.19 0 0 0 .34 1.66v.09c-.004.06-.004.12 0 .18v.09a20.016 20.016 0 0 1-3.55 6.3c-2.45 2.73-9.08 29.72-9.08 29.72.299.68.449 1.417.44 2.16a4.235 4.235 0 0 1-.41 1.72c-.256.538 0 0 0 0a3.091 3.091 0 0 0 .36 2.77c.438.786.975 1.512 1.6 2.16.625.648 1.48-.49-1 2.23l-.15.18a2.878 2.878 0 0 0 .19 3.59 9.7 9.7 0 0 0 2.19 2.18c.842.605 20.11 34.65 24.28 38.37 4.17 3.72 8.34 13.37 8.34 13.37s.42-.67 1.11-1.71c.32-.52.74-1.13 1.17-1.79l1.28 1.67 2.59 3.39-1 1.95a45.616 45.616 0 0 0-2.67 6 1.486 1.486 0 0 0-.07.55c.037.539.272 1.045.66 1.42-5 6.56-16.9 24.8-16 47.26v.76a60.25 60.25 0 0 0 5.82 22.62c.326 2.249.493 4.518.5 6.79.015.46-.074.919-.26 1.34a7.163 7.163 0 0 0 .09 2.76c.66 4.93 2.87 14.55 2.87 14.55v5.07c.11 8.59.29 25.45-.07 29.1-.21 2.1-.42 3.79-.59 5-.24 1.72-.39 2.63-.39 2.63s-.09.63-.23 1.77c0 .41-.11.88-.17 1.42-.82 6.76-2.71 23.17-3.83 38.55 0 .67-.1 1.34-.14 2-.57 8.2-.88 16-.66 21.64v.85c.06 1.44.17 2.73.32 3.84.5 3.6.94 7.83 1.3 12.22 0 .47.08.95.13 1.42.64 8 1.11 16.4 1.39 22.46v1.18a1.13 1.13 0 0 0 0 .26.405.405 0 0 0 0 .11v4.07c0 .63 0 1.21.06 1.73 0 .82.06 1.27.06 1.27v.14a.165.165 0 0 1 0 .07v.12l.84 7 4.34 35.34 1.32 11.13 2.82 24.07 10.1-1.91.1 1.1.34 3.73 2.82-.27c0 .36-.05.72-.07 1.08-.48 8.36-.32 16.82-.32 16.82h.11c3.09.57 6.07 1 9 1.26v8.72h4.67l-.61-7.49-.08-.91h.09a98.62 98.62 0 0 0 18.65-.66l.56-.07.75.86 7.14 8.18s14 .74 26.25-2c9.23-2 18.87-11.09 19.21-14.51.12-1.12-.78-1.63-3-1.08-6.6 1.62-17.86 0-23.51-1-1.25-2.88-4.85-11.15-7.65-17.74l-.43-1c4.13-3.12 7.3-7.1 7.72-9.18.27-1.24-.44-1.8-2.5-1.09a28.808 28.808 0 0 1-7.57 1.24h-1c.049-.059.093-.123.13-.19 2-2.76 2.35-6.55 2.12-10.11a34.426 34.426 0 0 0-.48-3.84v-.21a45.691 45.691 0 0 0-1.2-4.92c0-.11-.06-.22-.09-.31-.19-.57-.31-.89-.31-.89s2.79-19.52 3.7-33.49c.309-3.615.362-7.247.16-10.87a.122.122 0 0 0 0-.06 6.007 6.007 0 0 0-.66-2.62 5.419 5.419 0 0 1-.83-2 .165.165 0 0 0 0-.07c-1.24-5.54 1.55-17 3-20 .466-.974.87-1.976 1.21-3 1.39-4 2.73-9.46 2.73-12.15a30.859 30.859 0 0 1 1.47-7.92c4.55-6.54 5.85-15.65 6.16-21.9a60.156 60.156 0 0 0 0-7.08 273.983 273.983 0 0 1 1.52-31.23c.22-2 .48-4 .77-6.06.45-3.14 1-6.26 1.64-9.26 1.94-9 1.12-25.13-.4-40.48 0-.45-.09-.89-.13-1.33a.418.418 0 0 1 0-.1c-1.52-14.9-3.67-28.8-4.55-34.32-.27-1.59-.42-2.49-.42-2.49.999-3.5 1.59-7.104 1.76-10.74a9.786 9.786 0 0 0-.91-4.81 4.404 4.404 0 0 1-.55-1.47 1.205 1.205 0 0 1 0-.19 24.041 24.041 0 0 1-.2-5.59c0-.66.09-1.32.16-2v-.1-.1l.12-1.2c.09-.7.16-1.39.26-2.08.291-.124.575-.264.85-.42.48-.254.927-.566 1.33-.93 4.45-4 5-14.25 4.31-24.66a.418.418 0 0 1 0-.1v-.29a197.767 197.767 0 0 0-4-26c-1.909-8.568 0 0 0 0a1.615 1.615 0 0 0 0-.22c-.16-.54-.25-.89-.25-.89s0-7.32-.43-14.36a.482.482 0 0 1 0-.12v-.18c-.37-5.8-1-11.32-2.25-12.33-.72-.6-1.16-2.27-1.42-4.41v-.07a.965.965 0 0 1 0-.17 99.493 99.493 0 0 1 0-14.67 29.005 29.005 0 0 0 3.85-12.63c.024-.804.001-1.609-.07-2.41 0-.16 0-.32-.06-.47a6.233 6.233 0 0 0-.11-.77 13.866 13.866 0 0 0-.68-2.69c.84-.147 1.73-.337 2.67-.57l.79-.2c13.1-3.36 33.64-13 37.76-14.41 5.65-2 7.36-10.15 7.36-10.15s.52-.44 1.38-1.24a68.014 68.014 0 0 0 11.33-13.77 40.726 40.726 0 0 0 3.79-7.9c.492-1.402.876-2.84 1.15-4.3.092-.473.159-.95.2-1.43v-.18l.95-.85c4.4-4 10.74-10.34 12.43-15.11.42-1.99.41-3.53-.57-4.66zM312.35 532.24c-.08 2.29-.24 4.41-.38 6.22-.31 3.57-.64 5.92-.64 5.92a4.086 4.086 0 0 0-.71.77 9.834 9.834 0 0 0-1.09 2.18l-.24-5.93s1.53-3.81 3.06-9.16zm-34.8-252.69c-.07-.23-.15-.45-.22-.68l1.1-.22c.93-.18 1.83-.41 2.75-.67l.35.74 1.36 2.85 9.8 20.65c-.21.27-3.1 3.73-3 7a4.72 4.72 0 0 0 .25 1.49c.5 1.46 1.12 2.05 1.68 2.21a1.659 1.659 0 0 0 1.44-.34c-.41.575-.746 1.2-1 1.86-.254.66 0 0 0 0a3.652 3.652 0 0 0-.22 1.17c-.054.708.3 1.388.91 1.75.376.247.699.567.95.94.372.584.599 1.25.66 1.94.061.69 0 0 0 .07.01.183.01.367 0 .55v.32l-1.31-.39-2.89-.86c.407-.51.947-.898 1.56-1.12l-8.92-19.6s-1.89-8.44-4.36-16.78l-.89-2.88zm20 394.64l-.19-1-.05-.3.39-.07a3.205 3.205 0 0 0 0 .31c-.11.33-.15.69-.18 1.06h.03zm-14.16-392.75l-1.3-2.86-.52.14 1.36 2.85 9.8 20.65c-.21.27-3.1 3.73-3 7a4.72 4.72 0 0 0 .25 1.49c.5 1.46 1.12 2.05 1.68 2.21v-.25a6.183 6.183 0 0 1 0-1 .565.565 0 0 1 0-.13c.005-.043 0-.09 0-.14a.215.215 0 0 0 0-.08.085.085 0 0 1 0-.05.268.268 0 0 1 0-.08.601.601 0 0 1 0-.12c.004-.04 0 0 0 0a.855.855 0 0 0 0-.16v-.14-.1l.12-.43.05-.12.06-.22c.05-.14.1-.29.16-.43s.05-.14.08-.2c.03-.097.07-.191.12-.28.12-.28.26-.55.39-.82.13-.27.27-.5.41-.73.397-.662.838-1.297 1.32-1.9l-10.98-24.1zm10.9 34.6h-.06c-.2.051-.41.051-.61 0h-.1a1.267 1.267 0 0 1-.18-.06 1.402 1.402 0 0 1-.41-.25l-.15-.14a3.745 3.745 0 0 1-.72-1.14 3.652 3.652 0 0 0-.22 1.17c-.054.708.3 1.388.91 1.75.376.247.699.567.95.94a.392.392 0 0 1 0-.16.268.268 0 0 1 0-.08c.097-.412.241-.811.43-1.19l.21-.41.09-.13c.037-.08.081-.157.13-.23l.09-.14.15-.24a1.788 1.788 0 0 1-.51.31zm-10.9-34.6l-1.3-2.86-.52.14 1.36 2.85 9.8 20.65c-.21.27-3.1 3.73-3 7a4.72 4.72 0 0 0 .25 1.49c.5 1.46 1.12 2.05 1.68 2.21v-.25a6.183 6.183 0 0 1 0-1 .565.565 0 0 1 0-.13c.005-.043 0-.09 0-.14a.215.215 0 0 0 0-.08.268.268 0 0 1 0-.08.601.601 0 0 1 0-.12c.004-.04 0 0 0 0 .011-.078.028-.155.05-.23a.215.215 0 0 1 0-.08c.005-.026 0-.07 0-.1l.12-.43.05-.12.06-.22c.05-.14.1-.29.16-.43.021-.069.047-.136.08-.2l.12-.28c.12-.28.26-.55.39-.82.13-.27.27-.5.41-.73.397-.662.838-1.297 1.32-1.9l-11.03-24.14zm10.9 34.6h-.06c-.2.051-.41.051-.61 0h-.1a1.267 1.267 0 0 1-.18-.06 1.402 1.402 0 0 1-.41-.25l-.15-.14a3.745 3.745 0 0 1-.72-1.14 3.652 3.652 0 0 0-.22 1.17c-.054.708.3 1.388.91 1.75.376.247.699.567.95.94a.07.07 0 0 0 0-.06.268.268 0 0 1 0-.08.268.268 0 0 1 0-.08c.097-.412.241-.811.43-1.19l.21-.41.09-.13c.037-.08.081-.157.13-.23l.09-.14.15-.24a1.791 1.791 0 0 1-.51.29zm-10.9-34.6l-1.3-2.86-.52.14 1.36 2.85 9.8 20.65c-.21.27-3.1 3.73-3 7a4.72 4.72 0 0 0 .25 1.49c.5 1.46 1.12 2.05 1.68 2.21v-.25a6.183 6.183 0 0 1 0-1 .565.565 0 0 1 0-.13c.005-.043 0-.09 0-.14a.215.215 0 0 0 0-.08.268.268 0 0 1 0-.08.601.601 0 0 1 0-.12c.004-.04 0 0 0 0 .011-.078.028-.155.05-.23a.215.215 0 0 1 0-.08c.005-.026 0-.07 0-.1l.12-.43.05-.12.06-.22c.05-.14.1-.29.16-.43.021-.069.047-.136.08-.2l.12-.28c.12-.28.26-.55.39-.82.13-.27.27-.5.41-.73.397-.662.838-1.297 1.32-1.9l-11.03-24.14zm10.9 34.6h-.06c-.2.051-.41.051-.61 0h-.1a1.267 1.267 0 0 1-.18-.06 1.402 1.402 0 0 1-.41-.25l-.15-.14a3.745 3.745 0 0 1-.72-1.14 3.652 3.652 0 0 0-.22 1.17c-.054.708.3 1.388.91 1.75.376.247.699.567.95.94a.07.07 0 0 0 0-.06.268.268 0 0 1 0-.08.268.268 0 0 1 0-.08c.097-.412.241-.811.43-1.19l.21-.41.09-.13c.037-.08.081-.157.13-.23l.09-.14.15-.24a1.791 1.791 0 0 1-.51.29zm-10.9-34.6l-1.3-2.86-.52.14 1.36 2.85 9.8 20.65c-.21.27-3.1 3.73-3 7a4.72 4.72 0 0 0 .25 1.49c.5 1.46 1.12 2.05 1.68 2.21v-.25a6.183 6.183 0 0 1 0-1 .565.565 0 0 1 0-.13c.005-.043 0-.09 0-.14a.215.215 0 0 0 0-.08.268.268 0 0 1 0-.08.601.601 0 0 1 0-.12c.004-.04 0 0 0 0 .011-.078.028-.155.05-.23a.215.215 0 0 1 0-.08c.005-.026 0-.07 0-.1l.12-.43.05-.12.06-.22c.05-.14.1-.29.16-.43.021-.069.047-.136.08-.2l.12-.28c.12-.28.26-.55.39-.82.13-.27.27-.5.41-.73.397-.662.838-1.297 1.32-1.9l-11.03-24.14zm10.9 34.6h-.06c-.2.051-.41.051-.61 0h-.1a1.267 1.267 0 0 1-.18-.06 1.402 1.402 0 0 1-.41-.25l-.15-.14a3.745 3.745 0 0 1-.72-1.14 3.652 3.652 0 0 0-.22 1.17c-.054.708.3 1.388.91 1.75.376.247.699.567.95.94a.07.07 0 0 0 0-.06.268.268 0 0 1 0-.08.268.268 0 0 1 0-.08c.097-.412.241-.811.43-1.19l.21-.41.09-.13c.037-.08.081-.157.13-.23l.09-.14.15-.24a1.791 1.791 0 0 1-.51.29zm-10.9-34.6l-1.3-2.86-.52.14 1.36 2.85 9.8 20.65c-.21.27-3.1 3.73-3 7a4.72 4.72 0 0 0 .25 1.49c.5 1.46 1.12 2.05 1.68 2.21v-.25a6.183 6.183 0 0 1 0-1 .565.565 0 0 1 0-.13c.005-.043 0-.09 0-.14a.215.215 0 0 0 0-.08.268.268 0 0 1 0-.08.601.601 0 0 1 0-.12c.004-.04 0 0 0 0 .011-.078.028-.155.05-.23a.215.215 0 0 1 0-.08c.005-.026 0-.07 0-.1l.12-.43.05-.12.06-.22c.05-.14.1-.29.16-.43.021-.069.047-.136.08-.2l.12-.28c.12-.28.26-.55.39-.82.13-.27.27-.5.41-.73.397-.662.838-1.297 1.32-1.9l-11.03-24.14zm10.9 34.6h-.06c-.2.051-.41.051-.61 0h-.1a1.267 1.267 0 0 1-.18-.06 1.402 1.402 0 0 1-.41-.25l-.15-.14a3.745 3.745 0 0 1-.72-1.14 3.652 3.652 0 0 0-.22 1.17c-.054.708.3 1.388.91 1.75.376.247.699.567.95.94a.07.07 0 0 0 0-.06.268.268 0 0 1 0-.08.268.268 0 0 1 0-.08c.097-.412.241-.811.43-1.19l.21-.41.09-.13c.037-.08.081-.157.13-.23l.09-.14.15-.24a1.791 1.791 0 0 1-.51.29zm-10.9-34.6l-1.3-2.86-.52.14 1.36 2.85 9.8 20.65c-.21.27-3.1 3.73-3 7a4.72 4.72 0 0 0 .25 1.49c.5 1.46 1.12 2.05 1.68 2.21v-.25a6.183 6.183 0 0 1 0-1 .565.565 0 0 1 0-.13c.005-.043 0-.09 0-.14a.215.215 0 0 0 0-.08.268.268 0 0 1 0-.08.601.601 0 0 1 0-.12c.004-.04 0 0 0 0 .011-.078.028-.155.05-.23a.215.215 0 0 1 0-.08c.005-.026 0-.07 0-.1l.12-.43.05-.12.06-.22c.05-.14.1-.29.16-.43.021-.069.047-.136.08-.2l.12-.28c.12-.28.26-.55.39-.82.13-.27.27-.5.41-.73.397-.662.838-1.297 1.32-1.9l-11.03-24.14zm10.9 34.6h-.06c-.2.051-.41.051-.61 0h-.1a1.267 1.267 0 0 1-.18-.06 1.402 1.402 0 0 1-.41-.25l-.15-.14a3.745 3.745 0 0 1-.72-1.14 3.652 3.652 0 0 0-.22 1.17c-.054.708.3 1.388.91 1.75.376.247.699.567.95.94a.07.07 0 0 0 0-.06.268.268 0 0 1 0-.08.268.268 0 0 1 0-.08c.097-.412.241-.811.43-1.19l.21-.41.09-.13c.037-.08.081-.157.13-.23l.09-.14.15-.24a1.791 1.791 0 0 1-.51.29zm-10.9-34.6l-1.3-2.86-.52.14 1.36 2.85 9.8 20.65c-.21.27-3.1 3.73-3 7a4.72 4.72 0 0 0 .25 1.49c.5 1.46 1.12 2.05 1.68 2.21v-.25a6.183 6.183 0 0 1 0-1 .565.565 0 0 1 0-.13c.005-.043 0-.09 0-.14a.215.215 0 0 0 0-.08.268.268 0 0 1 0-.08.601.601 0 0 1 0-.12c.004-.04 0 0 0 0 .011-.078.028-.155.05-.23a.215.215 0 0 1 0-.08c.005-.026 0-.07 0-.1l.12-.43.05-.12.06-.22c.05-.14.1-.29.16-.43.021-.069.047-.136.08-.2l.12-.28c.12-.28.26-.55.39-.82.13-.27.27-.5.41-.73.397-.662.838-1.297 1.32-1.9l-11.03-24.14zm10.9 34.6h-.06c-.2.051-.41.051-.61 0h-.1a1.267 1.267 0 0 1-.18-.06 1.402 1.402 0 0 1-.41-.25l-.15-.14a3.745 3.745 0 0 1-.72-1.14 3.652 3.652 0 0 0-.22 1.17c-.054.708.3 1.388.91 1.75.376.247.699.567.95.94a.07.07 0 0 0 0-.06.268.268 0 0 1 0-.08.268.268 0 0 1 0-.08c.097-.412.241-.811.43-1.19l.21-.41.09-.13c.037-.08.081-.157.13-.23l.09-.14.15-.24a1.791 1.791 0 0 1-.51.29zm-10.9-34.6l-1.3-2.86-.52.14 1.36 2.85 9.8 20.65c-.21.27-3.1 3.73-3 7a4.72 4.72 0 0 0 .25 1.49c.5 1.46 1.12 2.05 1.68 2.21v-.25a6.183 6.183 0 0 1 0-1 .565.565 0 0 1 0-.13c.005-.043 0-.09 0-.14a.215.215 0 0 0 0-.08.268.268 0 0 1 0-.08.601.601 0 0 1 0-.12c.004-.04 0 0 0 0 .011-.078.028-.155.05-.23a.215.215 0 0 1 0-.08c.005-.026 0-.07 0-.1l.12-.43.05-.12.06-.22c.05-.14.1-.29.16-.43.021-.069.047-.136.08-.2l.12-.28c.12-.28.26-.55.39-.82.13-.27.27-.5.41-.73.397-.662.838-1.297 1.32-1.9l-11.03-24.14zm10.9 34.6h-.06c-.2.051-.41.051-.61 0h-.1a1.267 1.267 0 0 1-.18-.06 1.402 1.402 0 0 1-.41-.25l-.15-.14a3.745 3.745 0 0 1-.72-1.14 3.652 3.652 0 0 0-.22 1.17c-.054.708.3 1.388.91 1.75.376.247.699.567.95.94a.07.07 0 0 0 0-.06.268.268 0 0 1 0-.08.268.268 0 0 1 0-.08c.097-.412.241-.811.43-1.19l.21-.41.09-.13c.037-.08.081-.157.13-.23l.09-.14.15-.24a1.791 1.791 0 0 1-.51.29zm-10.9-34.6l-1.3-2.86-.52.14 1.36 2.85 9.8 20.65c-.21.27-3.1 3.73-3 7a4.72 4.72 0 0 0 .25 1.49c.5 1.46 1.12 2.05 1.68 2.21v-.25a6.183 6.183 0 0 1 0-1 .565.565 0 0 1 0-.13c.005-.043 0-.09 0-.14a.215.215 0 0 0 0-.08.268.268 0 0 1 0-.08.601.601 0 0 1 0-.12c.004-.04 0 0 0 0 .011-.078.028-.155.05-.23a.215.215 0 0 1 0-.08c.005-.026 0-.07 0-.1l.12-.43.05-.12.06-.22c.05-.14.1-.29.16-.43.021-.069.047-.136.08-.2l.12-.28c.12-.28.26-.55.39-.82.13-.27.27-.5.41-.73.397-.662.838-1.297 1.32-1.9l-11.03-24.14zm10.9 34.6h-.06c-.2.051-.41.051-.61 0h-.1a1.267 1.267 0 0 1-.18-.06 1.402 1.402 0 0 1-.41-.25l-.15-.14a3.745 3.745 0 0 1-.72-1.14 3.652 3.652 0 0 0-.22 1.17c-.054.708.3 1.388.91 1.75.376.247.699.567.95.94a.07.07 0 0 0 0-.06.272.272 0 0 1 0-.09.165.165 0 0 1 0-.07c.097-.412.241-.811.43-1.19.1-.19.19-.37.3-.54.037-.08.081-.157.13-.23l.09-.14.15-.24a1.791 1.791 0 0 1-.51.29zm-10.9-34.6l-1.3-2.86-.52.14 1.36 2.85 9.8 20.65c-.21.27-3.1 3.73-3 7a4.72 4.72 0 0 0 .25 1.49c.5 1.46 1.12 2.05 1.68 2.21v-.25a6.183 6.183 0 0 1 0-1 .565.565 0 0 1 0-.13c.005-.043 0-.09 0-.14a.215.215 0 0 0 0-.08v-.05a.268.268 0 0 1 0-.08.601.601 0 0 1 0-.12c.004-.04 0 0 0 0 .011-.078.028-.155.05-.23a.215.215 0 0 1 0-.08c.005-.026 0-.07 0-.1l.12-.43.05-.12.06-.22c.05-.14.1-.29.16-.43.021-.069.047-.136.08-.2l.12-.28c.12-.28.26-.55.39-.82.13-.27.27-.5.41-.73.397-.662.838-1.297 1.32-1.9l-11.03-24.09zm10.9 34.6h-.06c-.2.051-.41.051-.61 0h-.1a1.267 1.267 0 0 1-.18-.06 1.402 1.402 0 0 1-.41-.25l-.15-.14a3.745 3.745 0 0 1-.72-1.14 3.652 3.652 0 0 0-.22 1.17c-.054.708.3 1.388.91 1.75.376.247.699.567.95.94a.07.07 0 0 0 0-.06.272.272 0 0 1 0-.09.165.165 0 0 1 0-.07c.097-.412.241-.811.43-1.19.1-.19.19-.37.3-.54.037-.08.081-.157.13-.23l.09-.14.15-.24a1.791 1.791 0 0 1-.51.29z"></path>
  <path fill="#444053" fill-rule="nonzero" d="M332.69 658.98s15 1.84 22.23-.66-2.24 10.75-12.07 13.89a93.91 93.91 0 0 1-21.34 3.62l-11.56-10.87-12.27.94 2.14 12-3.81.36-1.48-15.74 38.16-3.54z"></path>
  <path fill-opacity=".1" fill-rule="nonzero" d="M332.69 658.98s15 1.84 22.23-.66-2.24 10.75-12.07 13.89a93.91 93.91 0 0 1-21.34 3.62l-11.56-10.87-12.27.94 2.14 12-3.81.36-1.48-15.74 38.16-3.54z"></path>
  <path fill="#444053" fill-rule="nonzero" d="M354.3 686.46s17.95 3.93 27 1.72-3.93 12.79-16.23 15.49c-12.3 2.7-26.32 2-26.32 2l-12.73-14.55-15-.25 1.23 14.85h-4.67v-19.26h46.72z"></path>
  <path fill-opacity=".1" fill-rule="nonzero" d="M354.3 686.46s17.95 3.93 27 1.72-3.93 12.79-16.23 15.49c-12.3 2.7-26.32 2-26.32 2l-12.73-14.55-15-.25 1.23 14.85h-4.67v-19.26h46.72z"></path>
  <path fill="#303d5c" fill-rule="nonzero" d="M287.9 344.87s-30.74 34.18-12.3 72.79c0 0 1 6.89.25 8.12-.75 1.23 2.95 17.21 2.95 17.21s.5 29 0 33.94c-.5 4.94-1 7.62-1 7.62s-6.87 53.57-4.66 69.57c2.21 16 3.2 44.51 3.2 44.51l9.1 76.73 47.22-8.85-21.4-105.26-.74-18.69s8.86-22.87 4.92-34.43c-3.94-11.56 1-158.87 1-158.87l-28.54-4.39z"></path>
  <path fill-opacity=".05" fill-rule="nonzero" d="M287.9 344.87s-30.74 34.18-12.3 72.79c0 0 1 6.89.25 8.12-.75 1.23 2.95 17.21 2.95 17.21s.5 29 0 33.94c-.5 4.94-1 7.62-1 7.62s-6.87 53.57-4.66 69.57c2.21 16 3.2 44.51 3.2 44.51l9.1 76.73 47.22-8.85-21.4-105.26-.74-18.69s8.86-22.87 4.92-34.43c-3.94-11.56 1-158.87 1-158.87l-28.54-4.39z"></path>
  <path fill="#303d5c" fill-rule="nonzero" d="M310.52 510.12c5.41 10.33 2 35.41 2 35.41-7.13 6.15-3.2 59.76-3.2 59.76s-4.92 52.88-8.11 59c-3.19 6.12-2.71 31.48-2.71 31.48 36.15 6.64 59.76-7.62 59.76-7.62s-11.56-26.32-11.8-27.54c-.14-.69-1.67 1.18-2.13 1.72.24-.33.87-1.19 2.13-3 4.92-6.89 0-20.17 0-20.17s6.15-42.79 3.2-46.73c-2.95-3.94.49-18.44 2.21-21.88 1.72-3.44 3.93-11.56 3.93-15a30.283 30.283 0 0 1 1.48-7.86c7.62-10.83 6.15-28.78 6.15-28.78s-.49-25.82 3.93-46.23c4.42-20.41-5.52-78.21-5.52-78.21s3.31-11.31.85-15.49c-1.11-1.88-1-6.31-.48-10.6.6-5.25 1.71-10.3 1.71-10.3l-67.09-11.91c-1.41 2.35-2.7 4.63-3.89 6.82-22.19 41-7.23 56.24-7.23 56.24l14.24 43.89s5.14 46.68 10.57 57z"></path>
  <path fill="#efb7b9" fill-rule="nonzero" d="M417.01 189.19l9.59 8.14s1.88-1.5 4.4-3.75c6-5.42 15.72-15.23 12.08-19.39-5-5.68-10-2-10.31-1.74.54-.57 11.67-12.5 7.11-11.54-4.56.96-13.28 11.32-13.28 11.32l-6.89 12.17-2.7 4.79zM288.39 322l11.31 3.44-8.6 15-9.84-12.79 7.13-5.65z"></path>
  <circle cx="314.95" cy="148.86" r="32.22" fill="#efb7b9"></circle>
  <path fill="#efb7b9" fill-rule="nonzero" d="M333.89 160.67s-29.27 46.45-1.48 50.45-37.38 32.22-37.38 32.22l-24.35-24.59s25.33-43.78 21.4-60.5c-3.93-16.72 41.81 2.42 41.81 2.42z"></path>
  <path fill-opacity=".1" fill-rule="nonzero" d="M292.91 353.06a152.19 152.19 0 0 0 19.83 4.59c6.705 1.086 36.24 16.09 49.44 10.8.6-5.25 1.71-10.3 1.71-10.3l-67.09-11.91c-1.41 2.35-2.71 4.63-3.89 6.82z"></path>
  <path fill="#e23b4a" fill-rule="nonzero" d="M259.62 231.49l6.55 13.55 7.4 15.26 1 2.18 8.77 19 11.15 24.08s-3.94 4.67-2.71 8.36c1.15 3.45 2.95 1.95 3.18 1.74-.21.29-2.59 3.49-.47 4.9 2.12 1.41 1.47 4.67 1.47 4.67s-9.1 15-10.82 20.41c-1.72 5.41 27.55 10.09 27.55 10.09s41.56 18.44 51.89 9.34c10.33-9.1 0-51.89 0-51.89s0-24.59-2.71-26.8c-2.71-2.21-1.42-19.26-1.42-19.26 7.13-13 2.21-20.41 2.21-20.41l2-33.44s-3.2-3.45-5.66-3.69a24.615 24.615 0 0 0-4.67 0c-1.553.148-1.3-.44-3.17-1-3.94-1.12-10.48-2.67-12.82-1.5-3.44 1.72-25.57-2.71-25.57-2.71a270.717 270.717 0 0 0-28.78-2.7 28.477 28.477 0 0 0-9.76 1.06c-8 2.47-9.42 8.28-9.42 8.28s1 4.92-2.95 11.31c-3.95 6.39-2.24 9.17-2.24 9.17z"></path>
  <path fill-opacity=".1" fill-rule="nonzero" d="M417.01 189.19l9.59 8.14s1.88-1.5 4.4-3.75c.76-8.3-6.31-9.4-11.29-9.18l-2.7 4.79z"></path>
  <path fill="#e23b4a" fill-rule="nonzero" d="M360.45 213.05l4.18.25s9.83 1.22 13-1.73 14.51-3.93 14.51-3.93 3.2-6.4 6.64-8.36c3.44-1.96 11.81-5.66 12-7.63.19-1.97 3.2-5.65 3.2-5.65s18.44-4.43 15.74 10.08c-2.7 14.51-17.63 27.04-17.63 27.04s-1.72 8.12-7.38 10.09c-5.66 1.97-42.3 19.18-48.2 14.75-5.9-4.43 3.94-34.91 3.94-34.91z"></path>
  <path fill-opacity=".1" fill-rule="nonzero" d="M261.83 222.31c3.93-6.39 2.95-11.31 2.95-11.31s1.42-5.81 9.42-8.28a24.341 24.341 0 0 1 4.79-.94c-7.88 2.5-9.29 8.24-9.29 8.24s1 4.92-2.95 11.31c-3.95 6.39-2.22 9.1-2.22 9.1l6.56 13.55 7.39 15.25 1.06 2.19 8.77 18.95 11.15 24.08s-3.94 4.68-2.71 8.37c1.15 3.45 2.95 1.94 3.18 1.74-.21.28-2.59 3.49-.47 4.9 2.12 1.41 1.47 4.67 1.47 4.67s-9.1 15-10.82 20.41c-1.72 5.41 27.55 10.08 27.55 10.08s28.86 12.81 44.46 11.81c-13.26 5.2-49.38-10.82-49.38-10.82s-29.27-4.68-27.55-10.09c1.72-5.41 10.82-20.4 10.82-20.4s.74-3.2-1.47-4.67c-2.21-1.47.26-4.61.47-4.9-.23.21-2 1.71-3.18-1.74-1.23-3.69 2.71-8.36 2.71-8.36l-11.15-24.09-8.77-19-1-2.18-7.4-15.26-6.55-13.55s-1.78-2.66 2.16-9.06z"></path>
  <path fill="#e23b4a" fill-rule="nonzero" d="M264.09 227.8l-4.42 3.69a20.297 20.297 0 0 1-3.69 6.64c-2.46 2.71-9.1 29.51-9.1 29.51a4.783 4.783 0 0 1 0 3.94c-1 2 2 4.92 2 4.92s1.47-.49-1 2.21c-2.47 2.7 2.22 5.92 2.22 5.92s20.16 34.41 24.34 38.1c4.18 3.69 8.36 13.28 8.36 13.28s8.76-13.74 10.82-14l-8.6-19.42s-5.91-27.06-10.33-32c-4.42-4.94 2.21-21.9 2.21-21.9l-12.81-20.89z"></path>
  <path fill-opacity=".1" fill-rule="nonzero" d="M261.21 277.97c3.7 4.44 10.19 5.38 15.93 4.73.84-.1 1.69-.23 2.52-.39a36.614 36.614 0 0 0 3.73-.87 38.895 38.895 0 0 0 12.22-6 8.401 8.401 0 0 1 2.74-1.58c2.3-.58 4.58 1.13 5.83 3.13s1.84 4.36 3.12 6.34c2.52 3.93 7.4 5.82 12.08 5.93 4.68.11 9.22-1.29 13.68-2.68-3.61-4.44-7.31-9.06-8.78-14.59a34.556 34.556 0 0 1-.69-11c1.06-17.4 7.1-35.74 21.29-45.88 2.46-1.75 5.43-3.82 6.25-6.48-3.94-1.12-10.48-2.67-12.82-1.5-3.44 1.72-25.57-2.71-25.57-2.71a270.717 270.717 0 0 0-28.78-2.7 28.477 28.477 0 0 0-9.76 1.06c1.21 7.39 2.26 14.74.81 22a49.278 49.278 0 0 1-4.87 12.95c-1.26 2.45-2.62 4.86-4 7.28-3.74 6.73-7.31 13.48-8 21-.29 4.25.39 8.74 3.07 11.96zM309.84 312.57c-1.92-.25-3.86-.9-5.76-.5a10.598 10.598 0 0 0-4.31 2.51l12.64.07c3.25 0 8.15.2 10.64-2.1-2.28-2.26-9.96.44-13.21.02z"></path>
  <path fill="#3f3d56" fill-rule="nonzero" d="M353.65 145.12a19.108 19.108 0 0 1 2.19 18.52c-2 4.75-5.93 8.47-8.32 13.05a23.543 23.543 0 0 0 .8 22.78 11.482 11.482 0 0 1 2 4.09c.57 3.75-3.31 6.44-6.4 8.65-14.2 10.12-20.23 28.47-21.29 45.88a34.498 34.498 0 0 0 .68 11c1.47 5.53 5.18 10.15 8.79 14.59-4.46 1.39-9 2.79-13.69 2.68-4.69-.11-9.55-2-12.08-5.93-1.28-2-1.88-4.34-3.12-6.34-1.24-2-3.53-3.7-5.81-3.13a8.12 8.12 0 0 0-2.75 1.57 38.907 38.907 0 0 1-18.48 7.27c-5.74.66-12.23-.29-15.92-4.73-2.68-3.23-3.37-7.71-3-11.89 1.28-14.89 13.89-26.6 16.81-41.26 2.36-11.88-1.92-24-2.7-36.06-1.17-17.87 5.32-35.26 11.71-52a55.19 55.19 0 0 1 5.6-11.82c5.35-7.84 14.6-12.54 24-13.48a22.467 22.467 0 0 1 10.37 1c3.36 1.3 6.16 3.72 8.89 6.09 6.1 5.29 12.37 10.8 15.88 18.08 1.43 3 2.37 6.17 4 9.06l1.84 2.33z"></path>
  <path fill-rule="nonzero" d="M347.85 138.59c-1.6-2.89-2.53-6.09-4-9.06a36.307 36.307 0 0 0-5.1-7.69 43.18 43.18 0 0 1 9 11.89c1.39 2.88 2.32 6 3.83 8.81l-1.94-1.64c.508.674.962 1.386 1.36 2.13a21.98 21.98 0 0 1-3.15-4.44zM272.21 275.54a38.753 38.753 0 0 0 18.48-7.26 8.305 8.305 0 0 1 2.75-1.57c2.29-.58 4.57 1.13 5.82 3.13.26.42.49.87.71 1.32a3.995 3.995 0 0 0-2.59-.25 8.12 8.12 0 0 0-2.75 1.57 38.907 38.907 0 0 1-18.48 7.27c-5.74.66-12.23-.29-15.92-4.73a12.447 12.447 0 0 1-1.22-1.83c3.72 2.39 8.69 2.87 13.2 2.35zM314.46 282.12c4.67.11 9.22-1.29 13.68-2.68-3.61-4.44-7.31-9.06-8.78-14.59a34.498 34.498 0 0 1-.69-11c1.06-17.41 7.1-35.76 21.3-45.88 3.09-2.21 7-4.9 6.4-8.66a11.7 11.7 0 0 0-2-4.08 23.543 23.543 0 0 1-.81-22.78c2.4-4.58 6.3-8.3 8.33-13.06a19.171 19.171 0 0 0-.84-16.38 22.96 22.96 0 0 0 2.16 2 22.006 22.006 0 0 0 1.78 2.18 19.158 19.158 0 0 1 .83 16.39c-2 4.75-5.93 8.47-8.32 13.05a23.543 23.543 0 0 0 .8 22.78 11.482 11.482 0 0 1 2 4.09c.57 3.75-3.31 6.44-6.4 8.65-14.2 10.12-20.23 28.47-21.29 45.88a34.498 34.498 0 0 0 .68 11c1.47 5.53 5.18 10.15 8.79 14.59-4.46 1.39-9 2.79-13.69 2.68-4.69-.11-9.55-2-12.08-5.93-.17-.26-.32-.53-.47-.8a16.779 16.779 0 0 0 8.62 2.55z"></path>
  <path fill="#e23b4a" fill-opacity=".2" d="M70.65 54.71h95.81v20.98H70.65zM259.31 54.69h95.81v20.98h-95.81zM479.36 54.69h95.81v20.98h-95.81zM665.47 54.69h95.81v20.98h-95.81z"></path>
  <defs>
    <linearGradient id="_Linear1" x2="1" gradientTransform="matrix(0 -44.67 44.67 0 249.33 153.78)" gradientUnits="userSpaceOnUse">
      <stop offset="0" stop-color="gray" stop-opacity=".247"></stop>
      <stop offset=".54" stop-color="gray" stop-opacity=".118"></stop>
      <stop offset="1" stop-color="gray" stop-opacity=".098"></stop>
    </linearGradient>
    <linearGradient id="_Linear2" x2="1" gradientTransform="matrix(0 -44.67 44.67 0 62.525 167.39)" gradientUnits="userSpaceOnUse">
      <stop offset="0" stop-color="gray" stop-opacity=".247"></stop>
      <stop offset=".54" stop-color="gray" stop-opacity=".118"></stop>
      <stop offset="1" stop-color="gray" stop-opacity=".098"></stop>
    </linearGradient>
    <linearGradient id="_Linear3" x2="1" gradientTransform="matrix(0 -44.67 44.67 0 457.68 240.49)" gradientUnits="userSpaceOnUse">
      <stop offset="0" stop-color="gray" stop-opacity=".247"></stop>
      <stop offset=".54" stop-color="gray" stop-opacity=".118"></stop>
      <stop offset="1" stop-color="gray" stop-opacity=".098"></stop>
    </linearGradient>
    <linearGradient id="_Linear4" x2="1" gradientTransform="matrix(0 -44.66 44.66 0 670.27 270.06)" gradientUnits="userSpaceOnUse">
      <stop offset="0" stop-color="gray" stop-opacity=".247"></stop>
      <stop offset=".54" stop-color="gray" stop-opacity=".118"></stop>
      <stop offset="1" stop-color="gray" stop-opacity=".098"></stop>
    </linearGradient>
    <linearGradient id="_Linear5" x2="1" gradientTransform="matrix(0 -44.66 44.66 0 727.24 298.97)" gradientUnits="userSpaceOnUse">
      <stop offset="0" stop-color="gray" stop-opacity=".247"></stop>
      <stop offset=".54" stop-color="gray" stop-opacity=".118"></stop>
      <stop offset="1" stop-color="gray" stop-opacity=".098"></stop>
    </linearGradient>
    <linearGradient id="_Linear6" x2="1" gradientTransform="rotate(-90 510.2 -288.47) scale(44.67)" gradientUnits="userSpaceOnUse">
      <stop offset="0" stop-color="gray" stop-opacity=".247"></stop>
      <stop offset=".54" stop-color="gray" stop-opacity=".118"></stop>
      <stop offset="1" stop-color="gray" stop-opacity=".098"></stop>
    </linearGradient>
    <linearGradient id="_Linear7" x2="1" gradientTransform="matrix(0 -44.66 44.66 0 784.21 284.38)" gradientUnits="userSpaceOnUse">
      <stop offset="0" stop-color="gray" stop-opacity=".247"></stop>
      <stop offset=".54" stop-color="gray" stop-opacity=".118"></stop>
      <stop offset="1" stop-color="gray" stop-opacity=".098"></stop>
    </linearGradient>
    <linearGradient id="_Linear8" x2="1" gradientTransform="rotate(-90 233.02 -79.24) scale(44.67)" gradientUnits="userSpaceOnUse">
      <stop offset="0" stop-color="gray" stop-opacity=".247"></stop>
      <stop offset=".54" stop-color="gray" stop-opacity=".118"></stop>
      <stop offset="1" stop-color="gray" stop-opacity=".098"></stop>
    </linearGradient>
    <linearGradient id="_Linear9" x2="1" gradientTransform="rotate(-90 179.38 82.67) scale(44.67)" gradientUnits="userSpaceOnUse">
      <stop offset="0" stop-color="gray" stop-opacity=".247"></stop>
      <stop offset=".54" stop-color="gray" stop-opacity=".118"></stop>
      <stop offset="1" stop-color="gray" stop-opacity=".098"></stop>
    </linearGradient>
    <linearGradient id="_Linear10" x2="1" gradientTransform="matrix(0 -44.66 44.66 0 282.62 218.15)" gradientUnits="userSpaceOnUse">
      <stop offset="0" stop-color="gray" stop-opacity=".247"></stop>
      <stop offset=".54" stop-color="gray" stop-opacity=".118"></stop>
      <stop offset="1" stop-color="gray" stop-opacity=".098"></stop>
    </linearGradient>
    <linearGradient id="_Linear11" x2="1" gradientTransform="matrix(0 -44.66 44.66 0 523.05 191.46)" gradientUnits="userSpaceOnUse">
      <stop offset="0" stop-color="gray" stop-opacity=".247"></stop>
      <stop offset=".54" stop-color="gray" stop-opacity=".118"></stop>
      <stop offset="1" stop-color="gray" stop-opacity=".098"></stop>
    </linearGradient>
    <linearGradient id="_Linear12" x2="1" gradientTransform="matrix(0 -44.66 44.66 0 766.45 160.14)" gradientUnits="userSpaceOnUse">
      <stop offset="0" stop-color="gray" stop-opacity=".247"></stop>
      <stop offset=".54" stop-color="gray" stop-opacity=".118"></stop>
      <stop offset="1" stop-color="gray" stop-opacity=".098"></stop>
    </linearGradient>
    <linearGradient id="_Linear13" x2="1" gradientTransform="matrix(0 -44.67 44.67 0 583.91 153.78)" gradientUnits="userSpaceOnUse">
      <stop offset="0" stop-color="gray" stop-opacity=".247"></stop>
      <stop offset=".54" stop-color="gray" stop-opacity=".118"></stop>
      <stop offset="1" stop-color="gray" stop-opacity=".098"></stop>
    </linearGradient>
    <linearGradient id="_Linear14" x2="1" gradientTransform="matrix(0 -44.67 44.67 0 581.3 240.49)" gradientUnits="userSpaceOnUse">
      <stop offset="0" stop-color="gray" stop-opacity=".247"></stop>
      <stop offset=".54" stop-color="gray" stop-opacity=".118"></stop>
      <stop offset="1" stop-color="gray" stop-opacity=".098"></stop>
    </linearGradient>
    <linearGradient id="_Linear15" x2="1" gradientTransform="matrix(0 -44.66 44.66 0 374.2 175.34)" gradientUnits="userSpaceOnUse">
      <stop offset="0" stop-color="gray" stop-opacity=".247"></stop>
      <stop offset=".54" stop-color="gray" stop-opacity=".118"></stop>
      <stop offset="1" stop-color="gray" stop-opacity=".098"></stop>
    </linearGradient>
    <linearGradient id="_Linear16" x2="1" gradientTransform="matrix(0 -44.66 44.66 0 129.1 189.71)" gradientUnits="userSpaceOnUse">
      <stop offset="0" stop-color="gray" stop-opacity=".247"></stop>
      <stop offset=".54" stop-color="gray" stop-opacity=".118"></stop>
      <stop offset="1" stop-color="gray" stop-opacity=".098"></stop>
    </linearGradient>
    <linearGradient id="_Linear17" x2="1" gradientTransform="matrix(0 -44.67 44.67 0 152.16 240.49)" gradientUnits="userSpaceOnUse">
      <stop offset="0" stop-color="gray" stop-opacity=".247"></stop>
      <stop offset=".54" stop-color="gray" stop-opacity=".118"></stop>
      <stop offset="1" stop-color="gray" stop-opacity=".098"></stop>
    </linearGradient>
    <linearGradient id="_Linear18" x2="1" gradientTransform="matrix(0 -44.66 44.66 0 343.5 247.73)" gradientUnits="userSpaceOnUse">
      <stop offset="0" stop-color="gray" stop-opacity=".247"></stop>
      <stop offset=".54" stop-color="gray" stop-opacity=".118"></stop>
      <stop offset="1" stop-color="gray" stop-opacity=".098"></stop>
    </linearGradient>
    <linearGradient id="_Linear19" x2="1" gradientTransform="matrix(0 -44.66 44.66 0 681.11 160.14)" gradientUnits="userSpaceOnUse">
      <stop offset="0" stop-color="gray" stop-opacity=".247"></stop>
      <stop offset=".54" stop-color="gray" stop-opacity=".118"></stop>
      <stop offset="1" stop-color="gray" stop-opacity=".098"></stop>
    </linearGradient>
    <linearGradient id="_Linear20" x2="1" gradientTransform="rotate(-90 471.83 -250.1) scale(44.67)" gradientUnits="userSpaceOnUse">
      <stop offset="0" stop-color="gray" stop-opacity=".247"></stop>
      <stop offset=".54" stop-color="gray" stop-opacity=".118"></stop>
      <stop offset="1" stop-color="gray" stop-opacity=".098"></stop>
    </linearGradient>
    <linearGradient id="_Linear21" x2="1" gradientTransform="matrix(0 -44.67 44.67 0 461.71 153.78)" gradientUnits="userSpaceOnUse">
      <stop offset="0" stop-color="gray" stop-opacity=".247"></stop>
      <stop offset=".54" stop-color="gray" stop-opacity=".118"></stop>
      <stop offset="1" stop-color="gray" stop-opacity=".098"></stop>
    </linearGradient>
    <linearGradient id="_Linear22" x2="1" gradientTransform="matrix(0 -44.66 44.66 0 517.83 284.38)" gradientUnits="userSpaceOnUse">
      <stop offset="0" stop-color="gray" stop-opacity=".247"></stop>
      <stop offset=".54" stop-color="gray" stop-opacity=".118"></stop>
      <stop offset="1" stop-color="gray" stop-opacity=".098"></stop>
    </linearGradient>
    <linearGradient id="_Linear23" x2="1" gradientTransform="rotate(-90 682.55 42.58) scale(604.06)" gradientUnits="userSpaceOnUse">
      <stop offset="0" stop-color="gray" stop-opacity=".247"></stop>
      <stop offset=".54" stop-color="gray" stop-opacity=".118"></stop>
      <stop offset="1" stop-color="gray" stop-opacity=".098"></stop>
    </linearGradient>
    <linearGradient id="_Linear24" x2="1" gradientTransform="matrix(0 -601.5 601.5 0 345.01 704.86)" gradientUnits="userSpaceOnUse">
      <stop offset="0" stop-color="gray" stop-opacity=".247"></stop>
      <stop offset=".54" stop-color="gray" stop-opacity=".118"></stop>
      <stop offset="1" stop-color="gray" stop-opacity=".098"></stop>
    </linearGradient>
  </defs>
</svg>