<svg xmlns="http://www.w3.org/2000/svg" width="100%" viewBox="0 0 1000 100" fill="#005DB7">
  <g transform="matrix(1 0 0 -1 0 100)">
    <g style="transform:scaleY(1.00) translateY(0px)" fill="rgba(252, 252, 252, 1.00)">
      <g transform="translate(0,-1341.11)">
        <g transform="matrix(0.637718,0,0,0.522607,77.1193,1377.98)">
          <path d="M1355.79,-14.875C1330.75,-14.875 1308.06,-4.796 1291.56,11.522C1276.44,-8.146 1252.7,-20.835 1225.97,-20.835C1193.92,-20.835 1166.16,-2.587 1152.43,24.074C1141.21,3.745 1119.57,-10.029 1094.71,-10.029C1076.66,-10.029 1060.31,-2.764 1048.41,8.994C1038.84,-8.667 1020.15,-20.661 998.651,-20.661C993.995,-20.661 989.475,-20.087 985.146,-19.026C968.929,-49.669 936.729,-70.551 899.645,-70.551C863.432,-70.551 831.875,-50.638 815.312,-21.168C811.366,-21.809 807.321,-22.155 803.194,-22.155C788.153,-22.155 774.157,-17.716 762.41,-10.101C745.171,-27.226 721.426,-37.809 695.207,-37.809C674.235,-37.809 654.849,-31.034 639.105,-19.56C625.322,-27.539 609.319,-32.109 592.248,-32.109C561.691,-32.109 534.557,-17.475 517.459,5.164C509.336,0.494 499.926,-2.191 489.883,-2.191C474.477,-2.191 460.542,4.1 450.498,14.248C438.582,-12.985 411.414,-32.021 379.787,-32.021C358.065,-32.021 338.454,-23.032 324.431,-8.588C311.513,-16.248 296.436,-20.65 280.329,-20.65C254.163,-20.65 230.708,-9.045 214.829,9.298C200.98,-7.121 180.268,-17.561 157.107,-17.561C134.945,-17.561 115.015,-8.01 101.205,7.198C84.214,-14.571 57.731,-28.57 27.977,-28.57C-5.969,-28.57 -35.656,-10.347 -51.846,16.847C-56.712,15.399 -61.861,14.609 -67.197,14.609C-96.873,14.609 -120.93,38.666 -120.93,68.342C-120.93,98.017 -120.93,120.533 -120.93,120.533L1447.16,120.533C1447.16,120.533 1447.16,126.952 1447.16,76.492C1447.16,26.031 1406.25,-14.875 1355.79,-14.875Z"></path>
        </g>
      </g>
    </g>
  </g>
</svg>