<svg xmlns="http://www.w3.org/2000/svg" viewBox="0 0 971 612">
  <defs>
    <linearGradient id="a" x1="50.005%" x2="50.005%" y1="100.027%" y2="-.01%">
      <stop offset="0%" stop-color="gray" stop-opacity=".25"></stop>
      <stop offset="54%" stop-color="gray" stop-opacity=".12"></stop>
      <stop offset="100%" stop-color="gray" stop-opacity=".1"></stop>
    </linearGradient>
    <linearGradient id="b" x1="50.978%" x2="48.988%" y1="100.245%" y2="-.814%">
      <stop offset="0%" stop-color="gray" stop-opacity=".25"></stop>
      <stop offset="54%" stop-color="gray" stop-opacity=".12"></stop>
      <stop offset="100%" stop-color="gray" stop-opacity=".1"></stop>
    </linearGradient>
    <linearGradient id="c" x1="50.006%" x2="50.006%" y1="99.984%" y2="-.001%">
      <stop offset="0%" stop-color="gray" stop-opacity=".25"></stop>
      <stop offset="54%" stop-color="gray" stop-opacity=".12"></stop>
      <stop offset="100%" stop-color="gray" stop-opacity=".1"></stop>
    </linearGradient>
  </defs>
  <g fill="none" fill-rule="nonzero">
    <path fill="#E23B4A" d="M929.97 550.93s-12.29-8.11-24.47-2.35c0 0 3.75 7.23 19.17 6.54l5.3-4.19zM931.48 551.36s3.74 14.24-5.63 23.93c0 0-5.64-5.87-.05-20.25l5.68-3.68zM946.81 537.69s-.91-12.11-28.26-8.1c0 0-.12 7.82 9.48 11.52 9.6 3.7 13.99.58 18.78-3.42zM948.49 537.61s11.56 3.71 1.25 29.36c0 0-7.62-1.7-9-11.91s2.74-13.74 7.75-17.45zM963.97 520.42s1.57-19.93-26.38-17.88c0 0-2 18 21.45 22.68l4.93-4.8z"></path>
    <path fill="#FFF" d="M970.85 31.19v518.42c0 15.41-14.87 28-33.23 28H234.25c-18.36 0-33.23-12.54-33.23-28V31.19C201.02 15.75 215.89 0 234.25 0l703.33 1.71c18.36 0 33.27 14.09 33.27 29.48z"></path>
    <path fill="#3F3D56" d="M970.85 31.35v24H201.02v-24A31.35 31.35 0 0 1 232.4 0h707.11c17.31.006 31.34 14.04 31.34 31.35z"></path>
    <circle cx="238.32" cy="27.67" r="11.08" fill="#FA5959" opacity=".8"></circle>
    <circle cx="270.55" cy="27.67" r="11.08" fill="#FED253" opacity=".8"></circle>
    <circle cx="302.78" cy="27.67" r="11.08" fill="#8CCF4D" opacity=".8"></circle>
    <path fill="#E23B4A" d="M654.4 189.8v56c0 1.67-3.13 3-7 3H499.68c-3.86 0-7-1.35-7-3v-56c0-1.67 3.12-3.37 7-3.37H647.4c3.88-.01 7 1.69 7 3.37z" opacity=".2"></path>
    <path fill="#E23B4A" d="M563.67 206.42h76.96v2.72h-76.96z"></path>
    <path fill="#E23B4A" d="M524.73 200.46a18.25 18.25 0 0 0-10.06 33.47v-1.21a4.15 4.15 0 0 1 3.65-4.11 7.24 7.24 0 0 0 12.7 0 4.15 4.15 0 0 1 3.65 4.11v1.29a18.25 18.25 0 0 0-9.94-33.55zm7.16 23.14a7.23 7.23 0 0 1-14.43 0 7.92 7.92 0 0 1 4.15-10.61 2.46 2.46 0 0 1-.39-1.31 2.41 2.41 0 0 1 2.42-2.41h.17a2.41 2.41 0 0 0-1.92 3.6h.07a2.61 2.61 0 0 1 0-.48c0-.504.16-.995.46-1.4a2.4 2.4 0 0 1 2.3-1.7h.17a2.39 2.39 0 0 0-1.84 1.08 2.34 2.34 0 0 1 1.33-.4 2.41 2.41 0 0 1 2.41 2.41c.005.09.005.18 0 .27a7.93 7.93 0 0 1 5.88 7.66 8.07 8.07 0 0 1-.78 3.29zM563.67 213.04h76.96v2.72h-76.96zM563.67 219.66h76.96v2.72h-76.96zM563.67 226.29h76.96v2.72h-76.96zM480.99 299.47v56c0 1.66-3.12 3-7 3H326.27c-3.86 0-7-1.36-7-3v-56c0-1.67 3.12-3.37 7-3.37h147.74c3.86 0 6.98 1.7 6.98 3.37z" opacity=".2"></path>
    <path fill="#E23B4A" d="M390.25 316.1h76.96v2.72h-76.96z"></path>
    <path fill="#E23B4A" d="M351.32 310.13a18.25 18.25 0 0 0-10.06 33.48v-1.22a4.14 4.14 0 0 1 3.65-4.1 7.24 7.24 0 0 0 12.7 0 4.14 4.14 0 0 1 3.65 4.1v1.3a18.25 18.25 0 0 0-9.94-33.56zm7.15 23.14a7.23 7.23 0 0 1-14.43 0 8 8 0 0 1-.71-3.29 7.94 7.94 0 0 1 4.86-7.32 2.42 2.42 0 0 1 2.03-3.72h.18a2.41 2.41 0 0 0-1.93 3.6h.08a2.42 2.42 0 0 1 0-.47 3.54 3.54 0 0 1 2.76-3.11h.09a2.42 2.42 0 0 0-1.84 1.08c.391-.26.85-.4 1.32-.4a2.42 2.42 0 0 1 2.42 2.42c.005.09.005.18 0 .27a7.92 7.92 0 0 1 5.16 11l.01-.06zM390.25 322.72h76.96v2.72h-76.96zM390.25 329.34h76.96v2.72h-76.96zM390.25 335.96h76.96v2.72h-76.96zM441.1 121.88v56c0 1.66-3.12 3-7 3H286.4c-3.85 0-7-1.36-7-3v-56c0-1.67 3.13-3.37 7-3.37h147.72c3.86 0 6.98 1.7 6.98 3.37z" opacity=".2"></path>
    <path fill="#E23B4A" d="M350.36 138.51h76.96v2.72h-76.96z"></path>
    <path fill="#E23B4A" d="M350.36 145.13h76.96v2.72h-76.96zM350.36 151.75h76.96v2.72h-76.96zM350.36 158.37h76.96v2.72h-76.96zM311.4 132.54a18.26 18.26 0 0 0-10 33.48v-3.09a4.15 4.15 0 0 1 3.65-4.11 7.24 7.24 0 0 0 12.7 0 4.14 4.14 0 0 1 3.65 4.11v3.16a18.25 18.25 0 0 0-10-33.55zm8 22.28a1.23 1.23 0 0 1-.24.31 1 1 0 0 1-.53.18h-.37a7.25 7.25 0 0 1-14.19-2.06c0-1.25.327-2.477.95-3.56l-.08-.05a2.41 2.41 0 0 1 .24-3.35 4.82 4.82 0 0 1 1.5-.55 6.7 6.7 0 0 0 3.8-2.91 8 8 0 0 1 0 1.1 1.61 1.61 0 0 1 2.29-.08c.19.27.407.517.65.74a2 2 0 0 0 .81.23l1.82.23a3.48 3.48 0 0 1 2.07.75c.315.352.55.768.69 1.22a18.24 18.24 0 0 1 1.19 3.85 6.17 6.17 0 0 1-.55 3.93l-.05.02zM694.77 386.8v56c0 1.67-3.12 3-7 3H540.04c-3.86 0-7-1.35-7-3v-56c0-1.67 3.12-3.36 7-3.36h147.75c3.86-.05 6.98 1.64 6.98 3.36z" opacity=".2"></path>
    <path fill="#E23B4A" d="M604.03 403.38h76.96v2.72h-76.96z"></path>
    <path fill="#E23B4A" d="M604.03 410h76.96v2.72h-76.96zM604.03 416.63h76.96v2.72h-76.96zM604.03 423.25h76.96v2.72h-76.96zM565.09 397.42a18.25 18.25 0 0 0-10.06 33.47v-3.09a4.15 4.15 0 0 1 3.65-4.1 7.24 7.24 0 0 0 12.7 0 4.14 4.14 0 0 1 3.65 4.1v3.17a18.25 18.25 0 0 0-9.94-33.55zm8 22.27a1.12 1.12 0 0 1-.24.32 1 1 0 0 1-.53.18h-.38a7.24 7.24 0 1 1-13.23-5.62h-.08a2.41 2.41 0 0 1 .24-3.35 4.82 4.82 0 0 1 1.5-.55 6.69 6.69 0 0 0 3.8-2.9 8 8 0 0 1 0 1.1 1.61 1.61 0 0 1 2.29-.08c.187.268.405.513.65.73.249.14.525.221.81.24l1.82.23a3.42 3.42 0 0 1 2.07.75c.315.352.55.768.69 1.22a18.06 18.06 0 0 1 1.19 3.85 6.14 6.14 0 0 1-.57 3.88h-.03z" opacity=".2"></path>
    <path fill="url(#a)" d="M520.56 570.28l-21.94-31.81s-.41-7.88-1.85-9.72c-1.44-1.84-.31-5.93-.31-5.93s1.54-2.25.21-2.46c-1.33-.21-.21-5.22-.21-5.22l-.1-8s1.23-7.68.21-9.52a3 3 0 0 1 .1-3.27s1.23-4.4 0-5.53-.93-8-.62-13.4c.31-5.4-2.15-8.49-2.15-9.31 0-.82-8.1-8.79-8.1-9.51 0-.72-5.13-3.68-8.21-4.5-3.08-.82-4.61-1.43-4.51-1.84.1-.41-4.82-2-4.82-2s-4.3-.31-5.95-2.45c-1.65-2.14-6.65-2.78-6.8-2.79l-.09-.43-.09-.46c.38-.65.74-1.32 1.07-2 .1-.21.19-.41.28-.62a8.78 8.78 0 0 0 5.05-1.57 6.85 6.85 0 0 0 2.45-4.91 10.83 10.83 0 0 0-1.19-5.45c-.9-1.84-2.22-3.75-1.77-5.75.2-.86.72-1.62 1-2.46a6.5 6.5 0 0 0-.74-4.85c-.77-1.48-1.85-2.79-2.72-4.23a16.42 16.42 0 0 1-2.16-6 9.24 9.24 0 0 0-.8-3.26 6.24 6.24 0 0 0-1.8-1.82 18 18 0 0 0-11-3.34c-2.79.1-5.58.85-8.35.51a30.6 30.6 0 0 1-4.87-1.27c-3.44-1-7.41-1.44-10.4.53s-4.19 5.84-6.22 8.87c-1.8 2.67-4.42 4.92-5.79 7.76v-.17a9.86 9.86 0 0 0-.76 2.07 14.74 14.74 0 0 0 .45 6.78 4.72 4.72 0 0 0 1.66 3c1 .65 2.4.5 3.59.71-.05.19-.1.39-.14.58a23 23 0 0 0-.51 4.87 23.44 23.44 0 0 0 16.74 22.47v.62a16.37 16.37 0 0 1-.1 1.76s-10.31-2.12-13.07-.68-8.21 2.55-9 3.37c-.79.82-2.87.21-4.72 5-1.85 4.79-2.05 9.72-4.4 12-2.35 2.28-3.59 3.79-3.7 5.43-.11 1.64.31 2-.61 2.55-.92.55-2.26 2.66-1.85 3.48a2.9 2.9 0 0 1-1.13 3.07 3.41 3.41 0 0 0-1.43 3.07s-.62 2.25-2.05 2.76c-1.43.51-2.36 3.89-2.36 3.89l-4.65 5.35-9.22-10.2a3.89 3.89 0 0 0-5.48-.28l-4.54 4.03a8.94 8.94 0 0 0-4.53 2.7 11.75 11.75 0 0 0-2.34 3.49l-2.48 2.23a6.28 6.28 0 0 0-.64 6.95l5.91 6.53v.06a10.33 10.33 0 0 0-5.71 2.32c-8.81 7.78-8.92 14.94-7.58 18.21 1.34 3.27 12.51 15.86 12.51 15.86s6.49 8.44 15.86 12.93l-.07.07c-.19.2-.37.41-.55.64l-.15.2c-.052.063-.1.13-.14.2l-.17.24-.13.2-.18.3-.11.19-.21.4s-.05.09-.07.13c-.02.04-.17.37-.25.56l-.09.21c0 .13-.1.27-.16.4l-.09.27c0 .13-.09.26-.13.4l-.09.29c-.04.14-.08.29-.12.45 0 .09-.05.18-.07.27-.02.09-.11.49-.16.74a2.5 2.5 0 0 0 0 .29 4.51 4.51 0 0 0-.09.53c0 .12 0 .24-.05.37s-.05.33-.07.51c-.02.18 0 .25 0 .39v1.94c-.21 12 .49 13.71.49 13.71a6.64 6.64 0 0 0 5.44 4.08 7.17 7.17 0 0 0 1.76-.09c5.33-.93 17.84-3.07 22.25-2.25 2.65.49 7.56-.24 11.05-.9l.92-.18.64 2 2-.56 1.72 1 1.09.62c2 6.86 10.24 4.52 10.24 4.52l1.95 1.13 19.79.51a39.78 39.78 0 0 0 7 3.36c.327.1.661.174 1 .22a44.38 44.38 0 0 0 5.51.1c1.52 0 2.69-.1 2.69-.1s-.2-5.37-.49-11.39a161.45 161.45 0 0 0 18.33-1.5c10.57-1.86 15-11.47 16.6-16.6a46.9 46.9 0 0 1 1 6.37 46.46 46.46 0 0 0 1.64 5.52 18.45 18.45 0 0 0 2.26 4.1c7.79-2.66 3.07-6.65 1.43-8.39-1.64-1.74 1.13-3.17 1.13-3.17s2.16-1.44 2-2.77c-.16-1.33-.31-2.76 6.67-2.66 6.98.1 6.51-5.67 6.51-5.67zm-108.28-65.32c.09.59 1.06 6.89 1.94 8.55a10.9 10.9 0 0 1 .23 3.37c-4.13-.33-8.43-.51-8.43-.51a1 1 0 0 1 .22.53l-.65-.15-.95-.23 7.62-11.57.02.01zm-15.08 24l7.15 1.14.6.09a25.52 25.52 0 0 0-.37 3.38c0 .1.16.23.39.38a10.74 10.74 0 0 0-.14 1.69c.12.57 3.46 1.79 7.3 2.81-.06.2-.11.4-.16.58-3.39-1.78-8.72-2.61-9.34-3.93-.62-1.32-18.76-7.67-18.76-7.67s-.67-.35-1.81-.9l4.78.9 1.31-.13a71.46 71.46 0 0 0 9.05 1.65v.01z"></path>
    <path fill="#65617D" d="M497.22 574.73s-2.85 17.18-17.28 19.72c-14.43 2.54-62.6 2-62.6 2s-27.54-4-37.5-27.23-16.37-32.53-7.83-32.93c8.54-.4 54.58 15.55 57.22 15.75 2.64.2 70.53-35.34 67.99 22.69z"></path>
    <path fill="#000" d="M497.22 574.73s-2.85 17.18-17.28 19.72c-14.43 2.54-62.6 2-62.6 2s-27.54-4-37.5-27.23-16.37-32.53-7.83-32.93c8.54-.4 54.58 15.55 57.22 15.75 2.64.2 70.53-35.34 67.99 22.69z" opacity=".05"></path>
    <path fill="#3F3D56" d="M368.03 593.8a6.59 6.59 0 0 0 5.37 4.1 7 7 0 0 0 1.74-.1c5.28-.91 17.68-3 22.05-2.23 2.63.49 7.5-.24 11-.89 2.3-.43 4-.84 4-.84s-4.06-13.52-4.57-13.92c-.51-.4-18.33-11.12-18.33-11.12l-14.09-1a7.41 7.41 0 0 0-4.77 2.81c-1.49 1.8-2.77 4.75-2.85 9.59-.25 11.91.45 13.6.45 13.6z"></path>
    <path fill="#000" d="M368.03 593.8a6.59 6.59 0 0 0 5.37 4.1 57.66 57.66 0 0 1-3.82-5.58l.07-9.86a17.38 17.38 0 0 1 5.55-14.66s-7.42.51-7.62 12.4c-.2 11.89.45 13.6.45 13.6z" opacity=".05"></path>
    <path fill="#000" d="M429.13 572.29l13.11-10.26 20.63-20.33-5.59-.25c-.84.53-3.18 2.21-3.27 4.25-.1 2.48-5.57.17-8.42 1.59-2.85 1.42-16.77 19.24-19.19 19.13-2.42-.11-4.37-1.24-5.38.49a1 1 0 0 1-.08.11l8.19 5.27zM370.4 570.63l1.42.65c10 4.27 22.25 13.21 23.17 14.84.56 1 7.69 5.32 13.19 8.56 2.3-.43 4-.84 4-.84s-4.06-13.52-4.57-13.92c-.51-.4-18.32-11.12-18.32-11.12l-14.09-1a7.41 7.41 0 0 0-4.8 2.83z" opacity=".1"></path>
    <path fill="#65617D" d="M342.74 541.5c1.32 3.25 12.4 15.75 12.4 15.75s7 9.15 17 13.42 22.26 13.21 23.17 14.84c.59 1 8.53 5.82 14.12 9.11l1.26.73 2.77 1.61 1.47.84s3.4-2.73 6.79-5.48c3.39-2.75 6.68-5.44 6.73-5.59.1-.31 1.42-3.76 1.11-4-.16-.1-.85-1.51-2.14-3.14a14.41 14.41 0 0 0-5.17-4.28 14.68 14.68 0 0 1-6.71-7s-.45-.32-1.12-.75a13.6 13.6 0 0 0-4.57-2c-2.24-.28-6.4-4.85-6.4-4.85a12.53 12.53 0 0 1-4-4.17c-1.07-2.23-16.83-13-18.29-14l38.24 24.49 9.15 5.87 13.11-10.26 20.63-20.33-6.81-.3c-10-.44-27.83-1.12-30.08-.61a17 17 0 0 1-5.59.36s-5.08.23-8.43-1.54c-3.35-1.77-8.65-2.6-9.26-3.91-.61-1.31-18.6-7.62-18.6-7.62s-24.49-13-33.23-5.28c-8.74 7.72-8.89 14.84-7.55 18.09z"></path>
    <path fill="#EE8E9E" d="M421.71 466.9l3.15 10.47 4.06 23.58 14.94 1 4.33-7.18 4.31-7.15s2.69-9.53 4.63-18.75c1.71-8.15 2.82-16.07 1-16.93-1.65-.76-2.73-3.51-3.44-6.46a19.5 19.5 0 0 1-.24-1.1 57.52 57.52 0 0 1-1-7.58s-31.31-1.63-26.94 11.28a20.38 20.38 0 0 1 1.18 6.86 16.33 16.33 0 0 1-.1 1.75 14.63 14.63 0 0 1-5.88 10.21z"></path>
    <path fill="#E3E8F4" d="M415.2 465.17l1.12 17.79 2.54 15.14 2.85 7 2.54 38.36s24.5 2.84 30.46 0a2.61 2.61 0 0 0 1.08-.84c7.2-10.87 4.84-42.35 4.84-42.35l2.77-20.36-1.83-10.55-4.42-.47-3.41-.36s-.77.94-1.87 2.41c-3 4-8.56 11.8-8.19 15.07.51 4.47-.61 9-2.34 9.75s-3.15 1.94-3.45.72a5.5 5.5 0 0 1-.31-3.25c.31-1.73-1.32-7-1.32-7s-2.74-6.2-2.54-8.84c.2-2.64-.3-5.69-1.12-6.4-.82-.71-1.93-1.43-1-4.68.93-3.25-4-9.58-4-9.58l-12.4 8.44z"></path>
    <path fill="#000" d="M447.57 509.59l1 30.39 5.87 3.26a2.54 2.54 0 0 0 1.08-.85c7.2-10.87 4.84-42.35 4.84-42.35l2.74-20.33-1.83-10.55-4.42-.47c1.71-8.15 2.83-16.06 1-16.92-1.65-.77-2.74-3.51-3.44-6.46l-3.18 21.49s.27 1.93.36 3.93a11.13 11.13 0 0 1-.26 3.79c-.71 1.83-.2 5.08-.2 5.08-1.83 3.23-2.75 9.21-3.19 15-.6 7.68-.37 14.99-.37 14.99z" opacity=".1"></path>
    <path fill="#3F3D56" d="M454.5 444.8s5.12.64 6.74 2.77 5.9 2.44 5.9 2.44 4.88 1.63 4.77 2c-.11.37 1.43 1 4.48 1.83 3.05.83 8.13 3.76 8.13 4.48 0 .72 8 8.63 8 9.45 0 .82 2.43 3.86 2.13 9.25-.3 5.39-.61 12.19.61 13.31 1.22 1.12 0 5.49 0 5.49a3 3 0 0 0-.1 3.25c1 1.83-.21 9.45-.21 9.45l.11 7.93s-1.12 5 .2 5.18c1.32.18-.2 2.44-.2 2.44s-1.12 4.07.3 5.9c1.42 1.83 1.83 9.65 1.83 9.65l21.75 31.61s.3 5.79-6.61 5.69c-6.91-.1-6.81 1.32-6.6 2.64.21 1.32-1.93 2.75-1.93 2.75s-2.75 1.42-1.12 3.15 6.3 5.69-1.42 8.33a18.38 18.38 0 0 1-2.24-4.06 47.34 47.34 0 0 1-1.63-5.49s-.71-7.73-2.13-8.74c-1.42-1.01-1.22-5.9-1.22-5.9s2-4-.81-5.59c-2.81-1.59-44.11-24.49-44.11-24.49l-1-30.39s-.71-22.46 3.56-30c0 0-.51-3.25.2-5.08s-.1-7.73-.1-7.73l2.72-21.52z"></path>
    <path fill="#000" d="M427.86 457.02s-10.22-2.11-13-.69c-2.78 1.42-8.13 2.54-8.94 3.36-.81.82-2.85.2-4.68 5-1.83 4.8-2 9.65-4.37 11.89s-3.56 3.76-3.66 5.38c-.1 1.62.31 2-.61 2.54-.92.54-2.23 2.65-1.83 3.46.4.81 21.14 18.7 21.14 18.7s1 6.81 1.93 8.54c.93 1.73-1 25.51-3.05 27.13-2.05 1.62 13.76 1.47 13.76 1.47s.72-15.6 1.33-16.42c.61-.82-.41-17.48-.41-17.48s-.1-14.23 1.22-18c1.32-3.77 1.17-16.26 1.17-16.26s1.17-7.5 2.59-9.25-2.59-9.37-2.59-9.37z" opacity=".1"></path>
    <path fill="#3F3D56" d="M427.56 456.71s-10.22-2.1-13-.68c-2.78 1.42-8.13 2.54-8.94 3.35-.81.81-2.85.21-4.67 5-1.82 4.79-2 9.66-4.37 11.89-2.37 2.23-3.56 3.76-3.66 5.39-.1 1.63.3 2-.61 2.54-.91.54-2.24 2.64-1.83 3.46.41.82 21.14 18.7 21.14 18.7s1 6.81 1.93 8.53c.93 1.72-1 25.51-3.05 27.14-2.05 1.63 13.72 1.47 13.72 1.47s.71-15.6 1.32-16.41c.61-.81-.41-17.48-.41-17.48s-.1-14.23 1.22-18c1.32-3.77 1.18-16.26 1.18-16.26s1.16-7.5 2.58-9.25c1.42-1.75-2.55-9.39-2.55-9.39z"></path>
    <path fill="#000" d="M426.48 448.1a20.38 20.38 0 0 1 1.18 6.86 23.28 23.28 0 0 0 26.74-10.56 57.52 57.52 0 0 1-1-7.58s-31.29-1.63-26.92 11.28z" opacity=".1"></path>
    <path fill="#EE8E9E" d="M411.04 432.04c.025 12.35 9.714 22.52 22.049 23.143 12.335.623 22.999-8.519 24.268-20.804 1.27-12.285-7.3-23.414-19.503-25.326-12.201-1.912-23.765 6.062-26.314 18.147a23.27 23.27 0 0 0-.5 4.84z"></path>
    <path fill="#3F3D56" d="M396.1 485.91l-5.59 1.73a2.88 2.88 0 0 1-1.12 3 3.39 3.39 0 0 0-1.42 3s-.61 2.24-2 2.75c-1.39.51-2.33 3.86-2.33 3.86l-4.68 5.39s-1.73 1.42-1.42 2.13c.31.71-1.83.91-1.83.91l1.12 18.1 9.65 1.82 6-.61 4.88-1.82 4.27-2.55 1.93-5 8.53-13-15.99-19.71z"></path>
    <path fill="#EE8E9E" d="M377.09 510.2s-12.4-17.89-21.65-8.23c-9.25 9.66 3.76 25.3 6.81 24.79 3.05-.51 17.59-1.32 17.59-1.32l-2.75-15.24z"></path>
    <path fill="#000" d="M411.54 427.2a2.82 2.82 0 0 1 1.71.77c.78.83.82 2.3 1.85 2.82.382.162.802.21 1.21.14 2.7-.39 4.26-3.44 6.86-4.28a7 7 0 0 1 4.55.39 3.46 3.46 0 0 1 1.5 1c.87 1.13.26 2.78.66 4.14.56 1.89 2.81 2.64 4.77 2.88 1.96.24 4.15.39 5.45 1.86a5 5 0 0 1 1 3.93 3.14 3.14 0 0 0 0 1.46c.54 1.52 3.18 1.3 3.87.09.5-.87.35-1.6 1.53-1.84a5 5 0 0 1 2.49.43 18.11 18.11 0 0 0 6.44 1 23.28 23.28 0 1 0-43.84-14.74l-.05-.05z" opacity=".1"></path>
    <path fill="#3F3D56" d="M441.05 441.67a3.14 3.14 0 0 1 0-1.46 5 5 0 0 0-1-3.93c-1.3-1.47-3.5-1.61-5.45-1.86-1.95-.25-4.21-1-4.77-2.88-.4-1.36.21-3-.66-4.14a3.35 3.35 0 0 0-1.5-1 7 7 0 0 0-4.55-.4c-2.6.84-4.16 3.89-6.86 4.28a2.17 2.17 0 0 1-1.21-.14c-1-.52-1.07-2-1.85-2.82-1.24-1.31-3.58-.47-5.09-1.44a4.63 4.63 0 0 1-1.64-3 14.57 14.57 0 0 1-.45-6.74c.88-3.78 4.26-6.37 6.42-9.6 2-3 3.14-6.81 6.16-8.81 3.02-2 6.9-1.54 10.31-.53a28.86 28.86 0 0 0 4.83 1.27c2.74.34 5.5-.41 8.27-.5a17.72 17.72 0 0 1 10.92 3.32 6 6 0 0 1 1.78 1.8 9.08 9.08 0 0 1 .8 3.24 16.44 16.44 0 0 0 2.14 5.94c.86 1.43 1.93 2.73 2.7 4.21a6.43 6.43 0 0 1 .73 4.81c-.26.84-.77 1.59-1 2.45-.45 2 .86 3.88 1.75 5.71a10.78 10.78 0 0 1 1.19 5.42 6.84 6.84 0 0 1-2.44 4.87 8.72 8.72 0 0 1-5.15 1.56 18.33 18.33 0 0 1-6.57-1 5 5 0 0 0-2.48-.43c-1.19.24-1 1-1.54 1.84-.61 1.26-3.25 1.48-3.79-.04z"></path>
    <path fill="#000" d="M428.52 572.9l13.11-10.26 20.63-20.33-6.81-.3a4.44 4.44 0 0 0-1.44 2.77c-.1 2.49-5.57.18-8.42 1.6-2.85 1.42-16.77 19.24-19.19 19.12-2.42-.12-4.37-1.23-5.38.49l-.08.12a2.89 2.89 0 0 1-1.55.92l9.13 5.87z" opacity=".1"></path>
    <path fill="#65617D" d="M402.09 572.19l6.59 21 1 3.3 3.14-.86 6.92-1.9 30.8-8.46a26.72 26.72 0 0 0 11.09-3 33.53 33.53 0 0 1 19.14-4.18c4.07.38 8.6-1.37 12.36-8.32 0 0 8.53-25.2-13-32.41-21.53-7.21-22.58 3.83-22.58 3.83l-.29.18c-.84.53-3.18 2.21-3.27 4.25-.1 2.48-5.57.17-8.42 1.59-2.85 1.42-16.75 19.32-19.17 19.21-2.42-.11-4.37-1.24-5.38.49a1 1 0 0 1-.08.11c-.75 1-3 1.28-4.51 1.32h-1.41l-.19.06-1.56.46-11.18 3.33z"></path>
    <path fill="#000" d="M403.8 531.34l3.17.51 1.32-13.11s-1.45-.22-3.27-.64c.48 1.82-.62 8.9-1.22 13.24z" opacity=".1"></path>
    <path fill="#000" d="M486.9 470.08s9.45-2.74 7.12 24.09c-2.33 26.83-19.82 43.8-19.82 43.8s-20.13 8.84-29.17 7.42c-9.04-1.42-15.63-1.73-15.63-1.73a23.13 23.13 0 0 0-9.15-2.44c-5.08-.2-15.75-3.35-16-4.37s2.65-15.95 1.43-17.07c0 0 14.23.58 15.65 1.61 1.42 1.03 3.45.29 5 0 1.55-.29 6.2-4.35 15.45-.8 0 0 3.15.31 4.37-.51a4.38 4.38 0 0 1 3.18-.2 8.74 8.74 0 0 0 2.2-1.12c.31-.4 2.75 0 2.75 0a1.08 1.08 0 0 0 1.52-.71 6.66 6.66 0 0 1 1.42-2.23s2.75-15.45 7.93-21.24a3.32 3.32 0 0 0 1.12-2.95c-.41-1.63 8.43-24.83 20.63-21.55zM413.25 568.85l13.42 16.25.09-.1c.1-.3 1.42-3.76 1.11-4-.31-.24-2.64-5.29-7.32-7.42a13.93 13.93 0 0 1-5.74-5.23l-1.56.5z" opacity=".1"></path>
    <path fill="#000" d="M413.4 596.96l1.47.84s3.4-2.73 6.79-5.48c3.39-2.75 6.68-5.44 6.73-5.59.1-.31 1.42-3.76 1.11-4-.16-.1-.85-1.51-2.14-3.14-9.1-2.55-3.3 3.77-2.53 4.06 0 0-11.08-2.54-11.69 9.52a14.4 14.4 0 0 0 .26 3.79z" opacity=".1"></path>
    <path fill="#3F3D56" d="M424.65 602.07l1.94 1.12 19.61.51a39.61 39.61 0 0 0 6.94 3.34c.327.1.661.173 1 .22a45.73 45.73 0 0 0 5.47.1c1.5 0 2.66-.1 2.66-.1s-.93-24.74-1.63-27.34c-.33-1.25-2-1-3.6-.35a23.21 23.21 0 0 0-3.51 1.78s-8.33.8-9.66 1.52-5.08-.41-7.42 0-6.5-2.75-6.5-2.75c-11.38-3.76-5 3.25-4.17 3.56 0 0-11.07-2.54-11.68 9.52-.61 12.06 10.55 8.87 10.55 8.87z"></path>
    <path fill="#565387" d="M453.01 592.52c.21 5.12 4.2 11.48 6.59 14.84 1.5 0 2.66-.1 2.66-.1s-.93-24.74-1.63-27.34c-.33-1.25-2-1-3.6-.35-1.97 3.69-4.19 8.82-4.02 12.95z"></path>
    <path fill="#000" d="M453.01 592.52c.21 5.12 4.2 11.48 6.59 14.84 1.5 0 2.66-.1 2.66-.1s-.93-24.74-1.63-27.34c-.33-1.25-2-1-3.6-.35-1.97 3.69-4.19 8.82-4.02 12.95z" opacity=".1"></path>
    <path fill="#000" d="M449.66 593.2c1.35 4.94 1.33 10.49 3.48 13.84.327.1.661.173 1 .22a45.73 45.73 0 0 0 5.47.1c1.5 0 2.66-.1 2.66-.1s-.93-24.74-1.63-27.34c-.33-1.25-2-1-3.6-.35a23.21 23.21 0 0 0-3.51 1.78s-5.6 5.52-3.87 11.85z" opacity=".05"></path>
    <path fill="#000" d="M381.99 543.06s9.74 3.16 18 14.39l-18-14.39z" opacity=".1"></path>
    <g fill="#000" opacity=".1">
      <path d="M461.16 421.1l-.06.22a6.85 6.85 0 0 1-.34.85 6 6 0 0 1 .4-1.07zM406.04 416.17a9.14 9.14 0 0 1 .75-2c-.05.17-.1.35-.14.53a14.58 14.58 0 0 0 .45 6.74 4.63 4.63 0 0 0 1.64 3c1.51 1 3.85.13 5.08 1.43.79.83.83 2.31 1.85 2.82a2 2 0 0 0 1.22.14c2.7-.38 4.26-3.43 6.86-4.27a6.86 6.86 0 0 1 4.54.39 3.35 3.35 0 0 1 1.51 1c.87 1.12.26 2.78.66 4.14.56 1.88 2.81 2.63 4.76 2.88 1.95.25 4.15.38 5.46 1.86a4.92 4.92 0 0 1 1 3.93 3.23 3.23 0 0 0 0 1.45c.54 1.53 3.18 1.3 3.87.1.5-.88.35-1.6 1.53-1.85a5.1 5.1 0 0 1 2.49.43 18.31 18.31 0 0 0 6.57 1 8.86 8.86 0 0 0 5.15-1.56 6.15 6.15 0 0 0 1.58-1.93 6.5 6.5 0 0 1-2.19 3.45 8.72 8.72 0 0 1-5.15 1.56 18.3 18.3 0 0 1-6.57-1 5 5 0 0 0-2.49-.43c-1.18.24-1 1-1.53 1.84-.69 1.21-3.33 1.43-3.87-.09a3.27 3.27 0 0 1 0-1.46 4.92 4.92 0 0 0-1-3.93c-1.31-1.47-3.5-1.61-5.46-1.86s-4.2-1-4.76-2.88c-.4-1.36.21-3-.66-4.14a3.35 3.35 0 0 0-1.5-1 7 7 0 0 0-4.55-.4c-2.6.84-4.16 3.89-6.86 4.28a2.2 2.2 0 0 1-1.22-.14c-1-.52-1.06-2-1.85-2.82-1.23-1.31-3.57-.47-5.08-1.44a4.63 4.63 0 0 1-1.64-3 14.57 14.57 0 0 1-.45-6.77z"></path>
    </g>
    <path fill="#000" d="M462.73 497.52c-1.86 2.51-4 4.84-5.63 7.5a14.23 14.23 0 0 0-2.47 8.87c1.7-1.75 2.48-4.17 3.56-6.36 1.82-3.72 4.54-6.87 6.83-10.28.44-.65 3.25-4.42 1.83-4.6-1.17-.15-3.45 4.01-4.12 4.87z" opacity=".1"></path>
    <path fill="#FFF" d="M411.28 456.48L431.65 495c.61 1.14-1.05 3.21-3.7 4.62l-101.67 53.77c-2.65 1.4-5.3 1.61-5.9.46l-20.37-38.51c-.61-1.15.92-3.46 3.57-4.86l101.67-53.77c2.66-1.41 5.43-1.38 6.03-.23z"></path>
    <path fill="#E23B4A" d="M411.28 456.48L431.65 495c.61 1.14-1.05 3.21-3.7 4.62l-101.67 53.77c-2.65 1.4-5.3 1.61-5.9.46l-20.37-38.51c-.61-1.15.92-3.46 3.57-4.86l101.67-53.77c2.66-1.41 5.43-1.38 6.03-.23z" opacity=".2"></path>
    <path fill="#E23B4A" d="M354.867 501.005L407.827 473l.987 1.866-52.961 28.006z"></path>
    <path fill="#E23B4A" d="M357.278 505.57l52.961-28.006.987 1.865-52.961 28.006zM359.686 510.115l52.961-28.006.987 1.866-52.961 28.005zM362.098 514.68l52.961-28.007.987 1.866-52.961 28.006zM325.93 511.02a14.2 14.2 0 0 0 5.26 26.69l-1.12-2.12a3.23 3.23 0 0 1 1-4.16 5.63 5.63 0 0 0 8.74-4.62 3.24 3.24 0 0 1 4 1.5l1.15 2.18a14.2 14.2 0 0 0-19.05-19.47h.02zm13.63 12.41a.76.76 0 0 1-.05.3.84.84 0 0 1-.3.32l-.25.14a5.64 5.64 0 1 1-11.16 1h-.07a1.89 1.89 0 0 1-1.05-2.4 3.61 3.61 0 0 1 .83-.92 5.21 5.21 0 0 0 1.56-3.38 6 6 0 0 1 .37.77 1.26 1.26 0 0 1 1.54-.89c.231.112.472.202.72.27a1.64 1.64 0 0 0 .65-.13l1.33-.51a2 2 0 0 1 2.62.36 14.5 14.5 0 0 1 2.22 2.21 4.79 4.79 0 0 1 1.04 2.86z" opacity=".2"></path>
    <path fill="#EE8E9E" d="M369.06 513.96c-.1 13.41 27.65 16.26 27.65 16.26l7.09 1.12 3.17.51 1.32-13.11s-1.45-.22-3.27-.64c-2.68-.63-6.16-1.71-6.89-3.23-1.22-2.54-28.97-14.33-29.07-.91z"></path>
    <path fill="#3F3D56" d="M486.65 468.02s9.45-2.74 7.12 24.09c-2.33 26.83-19.82 43.8-19.82 43.8s-20.13 8.84-29.17 7.42c-9.04-1.42-15.65-1.73-15.65-1.73a23.13 23.13 0 0 0-9.15-2.44c-5.08-.2-15.75-3.35-16-4.37s2.65-16 1.43-17.07c0 0 14.23.58 15.65 1.61 1.42 1.03 3.45.29 5 0 1.55-.29 6.2-4.36 15.45-.8 0 0 3.15.31 4.37-.51a4.38 4.38 0 0 1 3.18-.2 8.74 8.74 0 0 0 2.2-1.12c.31-.4 2.75 0 2.75 0a1.07 1.07 0 0 0 1.52-.71 6.76 6.76 0 0 1 1.42-2.24s2.75-15.44 7.93-21.24a3.29 3.29 0 0 0 1.12-2.94c-.39-1.63 8.46-24.77 20.65-21.55z"></path>
    <path fill="#FFF" d="M879.16 136.14v56c0 1.67-3.12 3-7 3H724.4c-3.86 0-7-1.35-7-3v-56c0-1.67 3.12-3.37 7-3.37h147.78c3.86.03 6.98 1.7 6.98 3.37z"></path>
    <path fill="#E23B4A" d="M861.85 146.33v56c0 1.66-3.13 3-7 3H707.12c-3.86 0-7-1.36-7-3v-56c0-1.67 3.12-3.37 7-3.37h147.75c3.85 0 6.98 1.7 6.98 3.37z" opacity=".1"></path>
    <path fill="#FFF" d="M879.16 136.14v56c0 1.67-3.12 3-7 3H724.4c-3.86 0-7-1.35-7-3v-56c0-1.67 3.12-3.37 7-3.37h147.78c3.86.03 6.98 1.7 6.98 3.37z"></path>
    <path fill="#E23B4A" d="M879.16 136.14v56c0 1.67-3.12 3-7 3H724.4c-3.86 0-7-1.35-7-3v-56c0-1.67 3.12-3.37 7-3.37h147.78c3.86.03 6.98 1.7 6.98 3.37z" opacity=".2"></path>
    <path fill="#E23B4A" d="M788.42 152.77h76.96v2.72h-76.96z"></path>
    <path fill="#E23B4A" d="M788.42 159.39h76.96v2.72h-76.96zM788.42 166.01h76.96v2.72h-76.96zM788.42 172.63h76.96v2.72h-76.96zM749.49 146.8a18.25 18.25 0 0 0-10.09 33.48v-3.09a4.16 4.16 0 0 1 3.65-4.11 7.24 7.24 0 0 0 12.7 0 4.16 4.16 0 0 1 3.65 4.11v3.17a18.25 18.25 0 0 0-9.91-33.56zm8 22.27a.79.79 0 0 1-.77.49 2.3 2.3 0 0 1-.37 0 7.24 7.24 0 0 1-14.18-2.06 7.16 7.16 0 0 1 .94-3.56l-.08-.05a2.42 2.42 0 0 1 .24-3.35 4.91 4.91 0 0 1 1.5-.55 6.65 6.65 0 0 0 3.8-2.9c.03.366.03.734 0 1.1a1.61 1.61 0 0 1 2.29-.08c.23.23.38.55.66.73.247.142.525.221.81.23l1.81.24a2.56 2.56 0 0 1 2.76 2 17.51 17.51 0 0 1 1.19 3.85 6.08 6.08 0 0 1-.58 3.92l-.02-.01z" opacity=".2"></path>
    <path fill="url(#b)" d="M925.97 594.22c-1.38-5-2.28-9.38-2.28-9.38s.06-5.49-2.56-9.51l-.05-1.37-.4-10.16a34.22 34.22 0 0 1 2.36-5.4c1.7-3.25-.57-14.85-.57-14.85s-7.4-16.19-6.15-26.68c1.25-10.49-15.67-45.79-15.67-45.79a46 46 0 0 1 1.07-10.28 8.18 8.18 0 0 0 .11-2.16 2.26 2.26 0 0 0 0-.26v.08c-.5-6.87-6.43-19.55-6.43-19.55l-.22-24.61s2.92-14.63-3.5-33.86c-2.24-6.71-3.71-12.1-4.67-16.26-.11-.47-.22-.92-.31-1.36 11.59-2.22 20.43-4 20.43-4s-7.84-28-12.6-32.8c-4.76-4.8-9-20.19-9-20.19s-3.14-19.89.47-25.87c3.61-5.98 3.75-16.16 3.75-16.16s8.52-6.71 9.51-9.58c.99-2.87 2.57-9.31 2.44-12.66-.13-3.35-1.34-6.33-1-8.11.34-1.78-2.89-8.39-1.55-11.63a8.62 8.62 0 0 0 .47-3.09v-.13a43.13 43.13 0 0 0-1.09-8.26 23.54 23.54 0 0 0-8.86-4.31l-.22-.75-.57-2c-.3-.18-.59-.34-.88-.48v-.72l-.19-2.87 1.12-6.51c2.27-11.33-12.78-12.43-12.78-12.43a7.82 7.82 0 0 0-4.38-3.55c-3.06-1 .14 16.91 1.6 18 1.09.82 4.58 6.32 6.26 9l.28.44a6.82 6.82 0 0 0-.66.75l.72 3.87.11.6a15.68 15.68 0 0 0-2.23 4.16s2.85 2.9 2.43 6.28c-.42 3.38 1.13 7.52 1.21 7.74-.17-.18-2.18-2.19-4.08-1.6-1.9.59-7.23 2.4-7.23 2.4s-4 .86-3.59 1.73c.41.87-2.55 4.88-2.55 4.88l-11.2-9.82c-.12-.3-.24-.6-.35-.91a25.63 25.63 0 0 1-1.11-4.45 24.33 24.33 0 0 0 3.41-1.23 7.47 7.47 0 0 0 2.92-2c1-1.33 1.18-3.1 1.56-4.72.73-3.18 2.46-6.05 3.66-9.09a29.07 29.07 0 0 0 1.47-16.06 10.66 10.66 0 0 0-1.84-4.63c-1.86-2.36-5.09-3.23-7.49-5.07-2.4-1.84-4-4.74-6.78-6.09-2.5-1.22-5.48-1-8.22-.39a43.87 43.87 0 0 0-15.1 6.15c-1.53 1-3.22 2.14-5 1.88-1.56-.22-2.74-1.42-3.79-2.57a.83.83 0 0 1 0-.15l-.13-.13a19.09 19.09 0 0 0-1.36 8.14c0 .43 0 .86.1 1.29v.45c.01.126.01.254 0 .38a2.29 2.29 0 0 1-.06.58 4.16 4.16 0 0 1-1 1.49 9 9 0 0 0-.84 1.24c0-.15.08-.3.13-.45a6.32 6.32 0 0 0-1 3.45 3.4 3.4 0 0 0 .9 2.41c.562.508 1.171.96 1.82 1.35a19.53 19.53 0 0 0-.19 3.6 20.91 20.91 0 0 0 10.86 17.43c.14.3.27.6.41.91 1.52 3.58 2.72 7.77 2.41 11.7 0 .29-.06.58-.1.86-.04.28-.26.31-.37.47 0 0-17.83.86-22.17-2.78-4.34-3.64-10.24 9.69-10.24 9.69s-6.34 1.49-7.67.3-8.78.16-8.78.16a16.08 16.08 0 0 0-11.29-3.64 33.09 33.09 0 0 0-8.36-4.23l-.21-.06a9.18 9.18 0 0 0-4-.36s-9.05-6.91-11.76-10.7c-2.71-3.79-15.44-17.75-15.5-17.82l-.07-.69-.22-2.1a7.55 7.55 0 0 1-1.09.14l-.27-.72a38.49 38.49 0 0 0-2.82-5.84s-.1-2.66.65-3.35-.72-10.38-.72-10.38-8.61-18.17-15.16-4.1c0 0-13 9.44-1.41 19.39 0 0 4.57 2 5.27 3.7.46 1.1 2.1 4.16 3.2 6.19.18.34.35.64.49.91l-.12.11.23 1.73.09.67c-2.06 1.28-3.45 2.53-3.07 3.42a19.33 19.33 0 0 1 1.46 4.72s16.28 18.85 18.61 27.09c0 0 42.6 23.15 56.37 24.39l-1.8 12.44a98.66 98.66 0 0 0-.16 10.1c.28 2.65-1.08 14.74-1.08 14.74s-1.7 17.77-3.61 20.33c-1.91 2.56-1.15 13.14-1.15 13.14a89.34 89.34 0 0 1-2.16 15.14c-1.75 6.79 0 15.05 0 15.05s-6.33 16.18 9.88 4.75c0 0 8.14-.82 17.52-1.5v.94c0 1.21.06 2.52.1 3.9.22 9.12.65 21.68 1.43 31.17 1.39 16.77 7.78 49.77 7.78 49.77l.64 16.7a22.94 22.94 0 0 0-.29 4.79 31 31 0 0 0 5.1 16.59l1.71 11.08s3.28 7.23 3.51 11.61a6 6 0 0 1-.09 1.07 7.4 7.4 0 0 0-.08 1.71c0 5.06 3.54 17.05 3.54 17.05s.65 12.19 2.5 12.83c1.59.54-1.81 7.11-2.83 9a3.59 3.59 0 0 1-.08-.35c-.13.25-.21.38-.21.38a8.69 8.69 0 0 0-.45 3.11 4.42 4.42 0 0 0 2.19 4.21c3.55 2 5.48 3.68 2.57 4.5a31 31 0 0 0-3.2.81c0-.14-.12-.28-.17-.41a2 2 0 0 0-1.12 2.18 9.2 9.2 0 0 0 1.25 4.1c3.18 6.43 5.3 8.83 5.3 8.83l1.39-.21a7.27 7.27 0 0 1-.75 1.54 5.93 5.93 0 0 1-2 1.91 6.31 6.31 0 0 1-2.46 1 7 7 0 0 0-5.08 2.72c-1.73 2.42-2.75 5.68 1 8.36l13.24 4s22.58 2.06 21.19-2.94c-1.39-5-2.28-9.38-2.28-9.38a20 20 0 0 0-2.17-8.87 11 11 0 0 0-.84-1.29l.79-.12s1.21-11.2 3.32-13.41c.49-.5.59-.88.46-1.17.2-.62-.38-1-1.13-1.12 0 .14-.09.29-.14.44a11.21 11.21 0 0 0-2.19-.16s-1-5.8 1.34-8a2.24 2.24 0 0 0 .39-1.75 9.47 9.47 0 0 0-.34-2.36.61.61 0 0 0-.07.14c-1.41-5.25-5.78-13.51-5.78-13.51s-.38-5.3 1-7.47-1.3-28.82-1.3-28.82.06-12.93-1.82-18.87c-1.88-5.94 1.51-13.16 1.51-13.16s0-.14-.06-.39v-.09s-.11-.79-.29-2a.65.65 0 0 1 0 .13c-.49-3.4-1.43-9.56-2-12.41-.89-4-.72-23.52-.72-23.52l3-8.44 6.4 14.1 6.95 18.86s3.23 3.91 3.46 8v.6a11 11 0 0 0 0 1.28 11.38 11.38 0 0 0 2.15 6.72s2 9 4.64 11.16c2.64 2.16 2.82 6.62 2.82 6.62s3.61 13 5.16 15.21c1.3 1.89 1.57 7.21 1.62 8.84v.48s.62 4.66.75 8.59V529.13a14.23 14.23 0 0 1-.26 3.19V531.85a33.61 33.61 0 0 0-.62 8.18c.1 4.71 1 10.25 4 13.41 5.15 5.47 8.23 4.64 8.23 4.64s-2.1 7.16-5 8.69a2.11 2.11 0 0 0-.31.21c0-.13-.06-.27-.08-.4a3.42 3.42 0 0 0-.76 2.66c-.09 3.12 2.07 8.1 4 10.35a5.82 5.82 0 0 0 2.52 1.34 4.91 4.91 0 0 1-.44.31 9.45 9.45 0 0 1-1 .51 4.9 4.9 0 0 1-1.48.44 7.05 7.05 0 0 0-5.08 2.72c-1.72 2.42-2.75 5.67 1 8.36l13.24 4s22.54 1.95 21.11-3.05z"></path>
    <path fill="#2D293D" d="M840.47 605.87l-12.82-4c-3.59-2.69-2.6-5.95-.93-8.37a6.75 6.75 0 0 1 4.91-2.71 6 6 0 0 0 2.38-1 5.6 5.6 0 0 0 1.93-1.91 9.36 9.36 0 0 0 1.26-4.94s13.72-4.6 17.68-.68a10.68 10.68 0 0 1 1.78 2.4 20.65 20.65 0 0 1 2.11 8.88s.88 4.38 2.22 9.38c1.34 5-20.52 2.95-20.52 2.95zM902.11 597.26l-12.81-4c-3.6-2.68-2.61-5.94-.94-8.35a6.68 6.68 0 0 1 4.91-2.71 5 5 0 0 0 1.43-.45 8.26 8.26 0 0 0 1-.51c3.47-2.08 3.19-6.85 3.19-6.85s13.73-4.6 17.68-.68a9.78 9.78 0 0 1 1.4 1.75c2.54 4 2.49 9.52 2.49 9.52s.88 4.4 2.22 9.39c1.34 4.99-20.57 2.89-20.57 2.89z"></path>
    <path fill="#000" d="M854.88 582.3a10.68 10.68 0 0 1 1.78 2.4l-20.72 3.21a9.36 9.36 0 0 0 1.26-4.94s13.72-4.59 17.68-.67zM917.92 575.44l.15 3.9c-3 5.46-18.72 4.89-23.37 2.39a8.26 8.26 0 0 0 1-.51c3.47-2.08 3.19-6.85 3.19-6.85s13.73-4.6 17.68-.68a9.78 9.78 0 0 1 1.35 1.75z" opacity=".1"></path>
    <path fill="#65617D" d="M919.75 558.56a34.32 34.32 0 0 0-2.27 5.4l.53 14c-3.31 6-21.77 4.74-24.37 1.65-2.6-3.09-5.57-11.29-2.79-12.82 2.78-1.53 4.8-8.68 4.8-8.68s-3 .82-8-4.65c-5-5.47-4.06-18.08-3.29-21.12.77-3.04-.51-13.09-.51-13.09s-.09-7.08-1.59-9.32-5-15.21-5-15.21-.17-4.42-2.73-6.63-4.5-11.16-4.5-11.16a11.6 11.6 0 0 1-2.06-7.53c.36-4.44-3.36-9.08-3.36-9.08l-6.75-18.86-6.21-14.11-2.85 8.45s-.14 19.48.73 23.52c.87 4.04 2.34 14.78 2.34 14.78s-3.27 7.21-1.44 13.16 1.79 18.88 1.79 18.88 2.61 26.63 1.28 28.81c-1.33 2.18-1 7.47-1 7.47s7.85 15.28 5.63 17.49c-2.22 2.21-1.29 8-1.29 8s5-.19 2.92 2-3.21 13.41-3.21 13.41l-21.28 3.3s-2.06-2.4-5.14-8.84c-3.08-6.44.31-5.85 3.13-6.67 2.82-.82 1-2.51-2.49-4.51s-1.68-6.84-1.68-6.84 4.79-8.86 3-9.5c-1.79-.64-2.44-12.83-2.44-12.83s-4.09-14.36-3.36-18.29c.73-3.93-3.34-13.15-3.34-13.15l-1.66-11.09a30.64 30.64 0 0 1-4.7-20.89l-.62-17.21s-6.23-33-7.58-49.82c-.87-10.74-1.31-25.42-1.51-34.59-.11-5.14-.15-8.55-.15-8.55l76.07-10.89a63.52 63.52 0 0 0 1.82 11.29c.94 4.16 2.37 9.55 4.55 16.26 6.23 19.24 3.43 33.87 3.43 33.87l.24 24.6s7.35 16.18 6.15 21.9a47.55 47.55 0 0 0-1 10.31s16.41 35.31 15.22 45.8c-1.19 10.49 6 26.69 6 26.69s2.19 11.64.54 14.89z"></path>
    <path fill="#000" d="M872.53 468.12l23.13-4s-12.65 13.96-23.13 4z" opacity=".05"></path>
    <path fill="#000" d="M891.4 441.54s1.11 8.19-3.81 11.48c.03 0 9-1.76 3.81-11.48zM889 415.43s-18.82 16.75-26 15.7c-7.18-1.05 26-15.7 26-15.7zM844 476.8s-14.63 3.92-14.84 9.86c-.21 5.94 14.84-9.86 14.84-9.86z" opacity=".1"></path>
    <path fill="#000" d="M850.09 550.35s-20.69 4.69-14.69 7.11c6 2.42 15.83 4.18 15.83 4.18s6.73.09-1.14-11.29z" opacity=".05"></path>
    <g fill="#000" opacity=".05">
      <path d="M831.4 561.8a4.15 4.15 0 0 1-2-2.95c-.12.24-.2.38-.2.38s-1.76 4.84 1.68 6.84c.4.23.77.45 1.12.67.62-.14 1.28-.25 1.92-.44 2.74-.77.87-2.5-2.52-4.5zM858.17 559.39c.55-.55.48-1.91.06-3.64a9.82 9.82 0 0 0-1 5.16 4.1 4.1 0 0 1 .94-1.52zM851.57 471.55a24 24 0 0 0-1.16 6.56 25.51 25.51 0 0 1 1.45-4.53s-.11-.78-.29-2.03zM898.98 460.43c.12-.64.16-1.29.12-1.94-.21 1.33-.35 2.56-.44 3.64.1-.55.2-1.12.32-1.7zM853.49 534.42a11.24 11.24 0 0 0 .37-3.94 13.31 13.31 0 0 0-.82 5 4.81 4.81 0 0 1 .45-1.06zM859.15 567.6a69.59 69.59 0 0 0-2 11l-21.28 3.3s-2.05-2.4-5.13-8.83c-.27-.57-.49-1.08-.67-1.54-1.26.64-1.71 2 .12 5.81 3.08 6.43 5.14 8.83 5.14 8.83l21.28-3.3s1.16-11.2 3.2-13.4c.99-1.13.3-1.67-.66-1.87zM829.68 536.93s.65 12.2 2.44 12.84c.82-2.05 1.34-4 .54-4.27-1.8-.64-2.44-12.84-2.44-12.84s-4.1-14.36-3.36-18.28c.74-3.92-3.34-13.15-3.34-13.15l-1.67-11.09a30.64 30.64 0 0 1-4.7-20.89l-.66-17.15s-6.23-33-7.58-49.82c-.87-10.74-1.31-25.43-1.51-34.59 0-1.66-.06-3.13-.09-4.37l-.61.09s0 3.4.16 8.55c.2 9.16.64 23.85 1.5 34.59 1.36 16.77 7.59 49.82 7.59 49.82l.66 17.15a30.64 30.64 0 0 0 4.7 20.89l1.66 11.09s4.08 9.22 3.34 13.15c-.74 3.93 3.37 18.28 3.37 18.28zM894.17 574.8a20.68 20.68 0 0 1-3.7-8.26c-2.11 2 .69 9.6 3.16 12.53 2.6 3.09 21.06 4.33 24.37-1.64l-.13-3.37c-4.59 4.94-21.24 3.68-23.7.74zM920.28 553.8a34.32 34.32 0 0 0-2.27 5.4l.09 2.48c.37-.92.9-2.15 1.64-3.61a10.73 10.73 0 0 0 .6-4.41l-.06.14zM894.6 557.59a33.39 33.39 0 0 0 1.58-4.27s-3 .82-8-4.65c-3.63-4-4.13-11.75-3.83-16.85-.77 3-1.7 15.65 3.29 21.12 3.29 3.58 5.69 4.46 6.96 4.65zM883.87 518.74a96 96 0 0 1 .76 10.46 12.91 12.91 0 0 1 .3-1.65c.77-3-.51-13.08-.51-13.08s-.1-7.08-1.6-9.33-5-15.21-5-15.21-.17-4.42-2.74-6.62c-2.57-2.2-4.5-11.16-4.5-11.16a11.64 11.64 0 0 1-2.06-7.54c.36-4.44-3.36-9.07-3.36-9.07l-6.76-18.87-6.21-14.1-2.86 8.43v2.69l2.33-6.85 6.21 14.1 6.74 18.86s3.72 4.63 3.36 9.07a11.58 11.58 0 0 0 2.06 7.54s1.93 9 4.5 11.16c2.57 2.16 2.73 6.62 2.73 6.62s3.51 13 5 15.21c1.49 2.21 1.61 9.34 1.61 9.34z"></path>
    </g>
    <path fill="#FFCDD3" d="M886.2 192.87l-1.08 6.51.19 2.87.14 2.12-7.35 1-.89-1.5c-1.63-2.71-5-8.22-6.08-9-1.4-1.09-4.53-18.95-1.57-18a7.75 7.75 0 0 1 4.26 3.56s14.58 1.12 12.38 12.44z"></path>
    <path fill="#000" d="M885.45 204.37l-7.35 1-.89-1.5a6.52 6.52 0 0 1 8.1-1.66l.14 2.16z" opacity=".1"></path>
    <path fill="#DCE6F2" d="M887.4 207.8l-9.64 2.63-.26-1.44-.7-3.88s3.65-5.28 9.37-1.64l.56 2 .67 2.33z"></path>
    <path fill="#FFCDD3" d="M729.31 199.62l-10.17 6s-.43-.8-1-1.92c-1.07-2-2.66-5.1-3.11-6.2-.68-1.69-5.1-3.7-5.1-3.7-11.27-10 1.34-19.39 1.34-19.39 6.32-14.06 14.67 4.12 14.67 4.12s1.44 9.69.71 10.38c-.73.69-.62 3.34-.62 3.34a39.3 39.3 0 0 1 2.73 5.85c.36.92.55 1.52.55 1.52z"></path>
    <path fill="#000" d="M729.31 199.62l-10.17 6s-.43-.8-1-1.92c1.41-1.28 6.45-5.7 8.16-5.57a13.19 13.19 0 0 0 2.46 0c.36.89.55 1.49.55 1.49z" opacity=".1"></path>
    <path fill="#DCE6F2" d="M730.49 202.72l-11.45 6.2-.33-2.5-.23-1.73s6.54-6.05 8.55-5.91c1 .1 2.01.06 3-.12l.22 2.09.24 1.97z"></path>
    <path fill="#FFCDD3" d="M859.56 236.8s-50.66 7.7-41.27 4.25c6.54-2.42 9-6.73 9.38-11.41.29-3.93-.87-8.12-2.35-11.71a51.09 51.09 0 0 0-4.9-9s38.07-22.89 31-3.14a30.94 30.94 0 0 0-1.85 9.3 26 26 0 0 0 1.36 9.29 27.8 27.8 0 0 0 8.63 12.42z"></path>
    <path fill="#000" d="M851.46 205.8a30.94 30.94 0 0 0-1.85 9.3c-3.54 3.22-7.57 3.17-12.73 3.37-4 .15-8.32 1.28-11.56-.51a51.09 51.09 0 0 0-4.9-9s38.07-22.9 31.04-3.16z" opacity=".1"></path>
    <circle cx="835.44" cy="198.81" r="21.06" fill="#FFCDD3"></circle>
    <path fill="#000" d="M859.56 236.8s-50.66 7.7-41.27 4.25c6.54-2.42 9-6.73 9.38-11.41 2.43-2.85 7.44-5 10.67-6.2a15.19 15.19 0 0 1 9.21-.5 12.83 12.83 0 0 1 3.42 1.42 27.8 27.8 0 0 0 8.59 12.44zM887.4 207.8l-9.64 2.63-.26-1.44a8.62 8.62 0 0 1 9.23-3.56l.67 2.37zM730.49 202.72l-11.45 6.2-.33-2.5a84.76 84.76 0 0 1 11.58-5.62l.2 1.92zM884.62 364.28c-19.58 3.87-47.47 9-52 7.81-3.74-1-15.52-.41-25.77.34-.11-5.14-.15-8.55-.15-8.55l76.07-10.89a63.52 63.52 0 0 0 1.85 11.29z" opacity=".1"></path>
    <path fill="#3F3D56" d="M904.1 358.9s-64.46 13.63-71.51 11.78c-7.05-1.85-42.71 1.82-42.71 1.82-15.67 11.4-9.57-4.77-9.57-4.77s-1.73-8.25 0-15.05a92.45 92.45 0 0 0 2.07-15.13s-.76-10.59 1.09-13.14c1.85-2.55 3.47-20.32 3.47-20.32s1.3-12.09 1-14.74c-.3-2.65.15-10.09.15-10.09l1.8-12.46c-13.33-1.26-54.59-24.46-54.59-24.46-2.27-8.23-18-27.1-18-27.1a20.3 20.3 0 0 0-1.42-4.73c-1.17-2.79 14.53-9.06 14.53-9.06s12.4 14 15 17.84c2.6 3.84 11.39 10.72 11.39 10.72a8.5 8.5 0 0 1 3.91.35l.2.06a31.66 31.66 0 0 1 8.09 4.24 15.36 15.36 0 0 1 10.94 3.65s7.21-1.34 8.49-.15c1.28 1.19 7.43-.28 7.43-.28s5.68-13.33 9.89-9.68c4.21 3.65 21.47 2.8 21.47 2.8 2.18-3.14 7.69-5.55 11.15-6.81a15.19 15.19 0 0 1 9.21-.51c1.32.323 2.576.87 3.71 1.62l10.86 9.85s2.86-4 2.47-4.88c-.39-.88 3.48-1.72 3.48-1.72s5.06-1.79 7-2.4c1.94-.61 3.78 1.44 3.95 1.61-.08-.22-1.57-4.45-1.18-7.74.39-3.29-2.37-6.28-2.37-6.28 5.61-15.44 20.06-3.25 20.06-3.25s1.92 8.25.62 11.49c-1.3 3.24 1.8 9.84 1.51 11.62-.29 1.78.89 4.75 1 8.11.11 3.36-1.39 9.79-2.34 12.66-.95 2.87-9.2 9.56-9.2 9.56s-.14 10.1-3.63 16.08c-3.49 5.98-.42 25.87-.42 25.87s4.14 15.42 8.75 20.2c4.61 4.78 12.25 32.82 12.25 32.82z"></path>
    <path fill="#000" d="M805.03 246.2s-2.17-5.76-4-6.22a42.43 42.43 0 0 1-5.21-2.1l1-2.22s6.71 1.56 7.85 3.47c1.14 1.91.36 7.07.36 7.07zM769 234.66c-.29 1.78-16 4-16 4l7.65-8.29.2.06a31.66 31.66 0 0 1 8.15 4.23z" opacity=".1"></path>
    <circle cx="722.54" cy="212.14" r="1.42" fill="#575988"></circle>
    <circle cx="724.46" cy="214.9" r="1.42" fill="#575988"></circle>
    <circle cx="726.33" cy="217.44" r="1.42" fill="#575988"></circle>
    <circle cx="728.29" cy="220.2" r="1.42" fill="#575988"></circle>
    <circle cx="894.95" cy="213.63" r="1.15" fill="#575988"></circle>
    <circle cx="895.23" cy="216.23" r="1.15" fill="#575988"></circle>
    <circle cx="895.48" cy="218.83" r="1.15" fill="#575988"></circle>
    <path fill="#000" d="M806.96 294.11c-.17-.2 41.62 48.6 71.45 18.32-.01 0-48.64 8.51-71.45-18.32zM785.07 321.16s23.88-.27 26.64 6.49l.27 7.14a4.55 4.55 0 0 1-4.44.17c-2.45-1.2-17.15-8-22.1-4.25l-.37-9.55z" opacity=".1"></path>
    <path fill="#656691" d="M785.52 321.14s22.83-.26 25.47 6.19l.26 6.81a4.38 4.38 0 0 1-4.25.16c-2.34-1.15-16.4-7.6-21.13-4.05l-.35-9.11z"></path>
    <path fill="#000" d="M796.1 268.87a76.72 76.72 0 0 0 9.86 15.51 62.23 62.23 0 0 0 15 13.42s-24.34-25.67-24.86-28.93zM787.23 241.46s4.64 17 15.12 22.46l-15.12-22.46zM781.2 243.43c-.12-.32-3 13.72 14 20.76.03 0-7.18-2.14-14-20.76zM884.89 227.9c-.26 0 8.48 5.11 10.89 7.55 0 0-5.86-8.1-10.89-7.55z" opacity=".1"></path>
    <path fill="#2D293D" d="M830.48 218.1a3.31 3.31 0 0 0 3.75 3.15c6.43.15 13.12.18 19-2.52a7.16 7.16 0 0 0 2.81-2c1-1.33 1.14-3.09 1.51-4.72.71-3.17 2.37-6 3.54-9.08a30.07 30.07 0 0 0 1.42-16.13 10.74 10.74 0 0 0-1.78-4.63c-1.8-2.37-4.94-3.23-7.26-5.08-2.32-1.85-3.89-4.75-6.57-6.1-2.42-1.22-5.31-1-8-.4a41.76 41.76 0 0 0-14.6 6.14c-1.49 1-3.12 2.13-4.89 1.87-1.55-.23-2.71-1.48-3.75-2.65a19.61 19.61 0 0 0-1.22 9.23 4 4 0 0 1 0 1.38 4.24 4.24 0 0 1-.93 1.49c-1.51 1.9-2.39 4.85-.75 6.64.71.79 1.77 1.19 2.47 2 1.24 1.43.92 3.57 1 5.46a2.77 2.77 0 0 0 .54 1.85 2.73 2.73 0 0 0 2.62.52 7.07 7.07 0 0 1 2.75-.37 4.58 4.58 0 0 1 2.48 1.76c3.13 3.61 4.44 7.71 5.86 12.19z"></path>
    <g fill="#000" opacity=".1">
      <path d="M856.65 215.05a7.17 7.17 0 0 1-2.82 2c-5.84 2.7-12.52 2.68-18.95 2.52a3.31 3.31 0 0 1-3.76-3.14c-1.41-4.49-2.73-8.59-5.84-12.24a4.6 4.6 0 0 0-2.47-1.76 7.31 7.31 0 0 0-2.76.37 2.73 2.73 0 0 1-2.62-.52 2.83 2.83 0 0 1-.54-1.85c0-1.89.28-4-1-5.46-.69-.8-1.76-1.2-2.47-2a4.16 4.16 0 0 1-.57-4.21c-1.05 1.83-1.45 4.14-.08 5.65.71.78 1.78 1.18 2.47 2 1.24 1.43.93 3.57 1 5.47a2.76 2.76 0 0 0 .54 1.84 2.7 2.7 0 0 0 2.62.52 7.28 7.28 0 0 1 2.76-.37 4.65 4.65 0 0 1 2.47 1.76c3.11 3.66 4.42 7.75 5.84 12.24a4.45 4.45 0 0 0 1.75 2.78c.63.274 1.314.4 2 .37 6.43.15 13.12.17 19-2.53a7.25 7.25 0 0 0 2.82-2 5.72 5.72 0 0 0 .84-1.74 2.9 2.9 0 0 1-.23.3zM814.53 185.97a3 3 0 0 0 .6-1.09 3.77 3.77 0 0 0 0-1.38 19.59 19.59 0 0 1 .7-7.65l-.13-.14a19.64 19.64 0 0 0-1.22 9.23c.046.341.063.686.05 1.03z"></path>
    </g>
    <path fill="#000" d="M827.22 231s26.42 2.48 28.63-1.57M877.9 218.16s14.6-.54 18 4.81" opacity=".1"></path>
    <path fill="#FFF" d="M162.71 172.05v56c0 1.67-3.13 3-7 3H7.98c-3.86 0-7-1.35-7-3v-56c0-1.67 3.12-3.37 7-3.37h147.75c3.85 0 6.98 1.7 6.98 3.37z"></path>
    <path fill="#E23B4A" d="M162.71 172.05v56c0 1.67-3.13 3-7 3H7.98c-3.86 0-7-1.35-7-3v-56c0-1.67 3.12-3.37 7-3.37h147.75c3.85 0 6.98 1.7 6.98 3.37z" opacity=".2"></path>
    <path fill="#E23B4A" d="M71.97 188.68h76.96v2.72H71.97z"></path>
    <path fill="#E23B4A" d="M33.03 182.72a18.25 18.25 0 0 0-10.06 33.47v-1.22a4.14 4.14 0 0 1 3.65-4.1 7.24 7.24 0 0 0 12.7 0 4.14 4.14 0 0 1 3.65 4.1v1.3a18.25 18.25 0 0 0-9.94-33.55zm7.15 23.13a7.23 7.23 0 0 1-14.42 0 7.92 7.92 0 0 1 4.15-10.61 2.32 2.32 0 0 1-.39-1.3 2.41 2.41 0 0 1 2.42-2.41h.17a2.41 2.41 0 0 0-2.24 2.41c-.003.418.108.83.32 1.19h.07a2.42 2.42 0 0 1 0-.47c0-.502.157-.992.45-1.4a2.41 2.41 0 0 1 2.31-1.7h.17a2.42 2.42 0 0 0-1.84 1.08 2.41 2.41 0 0 1 3.74 2c.005.09.005.18 0 .27a7.92 7.92 0 0 1 5.16 10.95l-.07-.01zM71.97 195.3h76.96v2.72H71.97zM71.97 201.92h76.96v2.72H71.97zM71.97 208.54h76.96v2.72H71.97z" opacity=".2"></path>
    <path fill="url(#c)" d="M264.4 343.26a60.5 60.5 0 0 1-1-9.21c0-3.7-5-7-5-7s-3.11-7.2-5.15-8.25c-2.04-1.05-8.47-10.48-8.47-10.48a8.54 8.54 0 0 0-1.93-5.08 72.79 72.79 0 0 1-5.24-7.91c-.86-1.06-.43-1.8-1.72-7.94-.073-.32-.153-.63-.24-.93 0-.14-.09-.26-.13-.39a10.38 10.38 0 0 0 2.44-10.74 4.41 4.41 0 0 0-1.23-1.9c-1.46-1.19-3.79-.7-5.29-1.83l1.59-7.06c.39-1.72.59-3.92-.93-4.85a7.62 7.62 0 0 0-1.78-.6c-2.62-.83-4.09-3.59-4.76-6.23a21.36 21.36 0 0 1-.52-7.8c.29-2.5 1-4.94 1.3-7.45a20.57 20.57 0 0 0-3.17-13.26 10.34 10.34 0 0 0-4.19-3.95c-1.61-.72-3.48-.81-5-1.76-3.22-2-3.06-6.89-5.62-9.7-2.56-2.81-7.11-2.78-10.85-1.82-3.74.96-7.45 2.61-11.29 2.18-2.47-.27-4.79-1.39-7.26-1.65a7.26 7.26 0 0 0-2.13.1l.05-.09c-1.84.33-3.52 1.35-3.95 3.09a4.77 4.77 0 0 0-.12 1.26c0 1 .24 2.06.26 3a2.92 2.92 0 0 1-.7 2.13c-.49.53-1.22.81-1.7 1.35a2.2 2.2 0 0 0-.63 1.59c0 1.54 1.92 2.89 3.21 3.51-.35.35-.69.71-1 1.08a22.72 22.72 0 0 0-5.63 15.13 23.05 23.05 0 0 0 14 21.11c-.06.19-.11.37-.18.56a29.72 29.72 0 0 1-1.26 3.27 6.48 6.48 0 0 0-5.43.6c-2.47 1.69-7.29 1.59-8.58 1.27-1.29-.32-14.69-2-15.76-1.59-1.07.41-3.22-1.48-4.61 1.06-1.39 2.54-2 3.92-3.43 4.55-1.43.63-3.86 2.65-3.54 3.07.32.42-3.54 3-3.54 3s-3.32 3.49-5.25 3.92c-1.93.43-6 3.07-6 3.07l-4.72 3.7s-3.54.53-2.47-1.9c1.07-2.43-1.93-5.51-1.93-5.51s-6-12.17-6-14.7c0-2.53-4.93-13.23-4.93-13.23l-.61-.06c-.09-.26-.18-.52-.28-.79-.9-2.55-2.07-5.67-3-7.51-1.7-3.49-2.8-3.89-2.8-3.89s-20.8-15.62-34.31-10.86c-13.51 4.76 24.66 18.94 28.09 20.43 1.2.51 2.06 2.19 2.67 4.14a17.77 17.77 0 0 0-7.35 6.69s8.25 18.3 8.46 22.85c.21 4.55 5.69 17.25 5.69 17.25s2 9.42 13.08 8.89c0 0 15.22 2.79 18.54 0 3.32-2.79 6.33-5 7.94-5.31a6.25 6.25 0 0 0 3-2.12s-5 31.74-7.5 34.5c-2.5 2.76-24.34 38.41-16.52 44.75a156.79 156.79 0 0 0 19.62 13c.67.33 2.66-3 5.51-5.35v1.83c.05 12.68 1.7 32 4.05 36.32 3.43 6.35 2 18.63 2 18.63a14.8 14.8 0 0 0 5.8 1.39c.1.41.22.84.34 1.29 1.89 7.14 4.95 18.18 6.51 21.12 2.37 4.45 4.08 18.52 4.08 18.52s1.39 13.86.86 15.77c-.21.73.7 6.48 2.12 13.78-.87 9.92-2.5 29.05-2.78 36v1.16a7.86 7.86 0 0 0 0 1.3 4.07 4.07 0 0 1-.14 2 32.13 32.13 0 0 1-2.33 5.54c-.05.18-.63 1.38-1 2.69-.85.37-1.91 1.3-2.5 3.55-1.07 4.13-2.68 15.56-2.68 15.56s-.64 7-1.93 8.57c-1.29 1.57-2.57 11.53 6.54 12.8 9.11 1.27 13.08-4.84 13.08-4.84l-.32-27.7a4 4 0 0 0 .47-.76v-.06c.06-.14.13-.27.19-.43.06-.16 0-.13.08-.2s.09-.22.13-.34a.56.56 0 0 1 0-.12 18.2 18.2 0 0 0 .77-8.25v-.36-.21a1.28 1.28 0 0 0 0-.19 1.93 1.93 0 0 1 0-.24v-.17c0-.18 0-.37.06-.56a.37.37 0 0 1 0-.11v-.33a.77.77 0 0 0 0-.15c0-.11.05-.23.07-.35v-.08c.08-.41.19-.82.3-1.25v-.09l.12-.42c.14-.45.29-.89.44-1.33v-.09l.15-.41v-.05c.15-.42.31-.83.47-1.22v-.11l.15-.35v-.1l.33-.78 2.53 7.81s1.39 5.82.64 7.19c-.75 1.37.86 7.1 1.93 7.2l-1 7.2a110.07 110.07 0 0 0-1 12c-.07.45-.14.84-.19 1.14-.69 3.68 1 9.4 1 9.4 8.47 10 18.55.78 18.55.78s1.18-5.3 0-6.35c-1.18-1.05-.64-4.87-.64-4.87s.53-9.42.64-16.3c.11-6.88-5.63-12.93-5.63-12.93l-.32.29c-1-2.69-2.23-5.84-2-7.25.43-2.43-1.18-28.14-1.18-28.14a153.47 153.47 0 0 0 .37-20.68c.14-1.17.27-2.32.4-3.43.65-5.53 1.17-10.26 1.38-12.73v-.29c.05-.67.08-1.14.07-1.37 0-.82 0-1.85.08-2.93.21-3 .67-6.28.67-6.28l2.25-13.65s1.71-6.66 4.18-10.37l.29-.47c.1-.16.2-.34.3-.53v-.08l.3-.57v-.08c.35-.68.72-1.47 1.1-2.33l.09-.19.29-.66.11-.26.29-.66c0-.09.07-.17.11-.26.11-.27.22-.54.34-.81l.16-.39c.09-.2.17-.4.25-.61l.22-.52.15-.39.24-.59c0-.09.08-.18.11-.27.61-1.53 1.21-3 1.73-4.42.17-.43.33-.84.48-1.24 5.49.34 9.22.65 9.22.65s1.72-12.38 1.18-20.53c-.37-5.56.66-12.56 1.35-16.43.08-.43.15-.81.21-1.15l.15.12c2.69 2.11 4.61-4.87 4.61-4.87s-.72-6.53-1.69-14.42c0-.26-.07-.53-.1-.79 1.548.33 3.114.57 4.69.72 0 0 .86-.08 2-.23a56.82 56.82 0 0 0 10.18 4.56l5.68-10.58a43.14 43.14 0 0 1 3.75-6.24c1.72-2.12 7.83-8.89 7.72-10.16-.11-1.27 2-8.57 4.18-11.85 2.18-3.28 3.45-9.94 3.33-10.48zm-23.8 8c-2.25.95-4.4 6.24-4.5 7.83-.1 1.59-2.47 8.57-4.94 9.42-2.26.78-6.6 4.76-7.29 5.4-.71.07-1.51.16-2.35.3-.94-6.68-1.87-12.2-2.47-13.32-1.71-3.18 1.89-13.33 1.89-13.33s.36-10.26 2.61-12.7c2.25-2.44 1.72-8.57 1.72-8.57s.53-2.54.75-3.7c.22-1.16 3.19 0 3.21 0 0 0 5.79 3.17 6.65 7.93.86 4.76 7.18 13 7.18 13s-1 2.85 0 4.34c1 1.49-.2 2.49-2.45 3.44l-.01-.04z"></path>
    <path fill="#4C4981" d="M85.55 260.87a17.29 17.29 0 0 1 17.32-8.13v12.36H95.4l-5.92-1.53-3.93-2.7z"></path>
    <path fill="#000" d="M85.55 260.87a17.29 17.29 0 0 1 17.32-8.13v12.36H95.4l-5.92-1.53-3.93-2.7z" opacity=".1"></path>
    <path fill="#AE6E79" d="M103.4 256.01l-9.19 6.45s-.08-1.3-.31-3.06c-.46-3.33-1.49-8.33-3.71-9.3-3.38-1.48-41-15.63-27.66-20.38 13.34-4.75 33.79 10.83 33.79 10.83s1.06.36 2.74 3.85c.89 1.83 2 4.95 2.94 7.49.81 2.3 1.4 4.12 1.4 4.12z"></path>
    <path fill="#4C4981" d="M176.88 265.94l1.04-.5 2.94 3.35-2.4 5.12-4.09-1.64.95-4.09z"></path>
    <path fill="#444053" d="M162.96 565.87s-2.64-.31-3.7 3.8c-1.06 4.11-2.64 15.53-2.64 15.53s-.63 7-1.9 8.55c-1.27 1.55-2.53 11.51 6.44 12.78 8.97 1.27 12.89-4.83 12.89-4.83l-.32-27.7-10.77-8.13zM194.27 567.12s5.65 6 5.55 12.9c-.1 6.9-.64 16.27-.64 16.27s-.52 3.8.64 4.86c1.16 1.06 0 6.33 0 6.33s-9.93 9.22-18.27-.77c0 0-1.63-5.71-1-9.39.63-3.68 2.53-20.25 2.53-20.25l11.19-9.95z"></path>
    <path fill="#AE6E79" d="M208.27 440.8s-5.71 16-8.14 19.64c-2.43 3.64-4.11 10.36-4.11 10.36l-2.22 13.63a74.75 74.75 0 0 0-.74 9.19c.1 3.06-5.49 47.73-5.49 47.73l-8.87 11.3s-3.91 7.92-3.28 11.2c.63 3.28-.42 8.55-1.69 10.13 0 0-.21 10.35-.53 12.68-.32 2.33 1.17 8.87 0 10-1.17 1.13-16.68.63-17.11-1.27-.43-1.9 1.91-11.09 1.91-11.09l1.37-8.87s2.74-4.86 2.11-6.44c-.63-1.58 1.16-5.28 1.27-5.6.11-.32 3-5.49 2.43-7.49-.57-2 3.27-44.57 3.27-44.57l10.88-76.36 28.94 5.83z"></path>
    <path fill="#000" d="M208.27 440.8s-.86 2.4-2.06 5.56c-1.88 5-4.59 11.82-6.08 14.08-2.43 3.7-4.12 10.35-4.12 10.35l-2.21 13.63a74.73 74.73 0 0 0-.74 9.18c0 1.21-.81 8.93-1.85 17.81-1.6 13.59-3.64 29.93-3.64 29.93l-8.88 11.3s-.45.91-1 2.23c-1.11 2.59-2.68 6.8-2.26 9 .63 3.28-.42 8.56-1.69 10.14 0 0-.21 10.36-.53 12.67-.32 2.31 1.17 8.88 0 10-1.17 1.12-16.68.64-17.11-1.27-.43-1.91 1.9-11.08 1.9-11.08l1.38-8.88s2.74-4.86 2.11-6.44c-.63-1.58 1.16-5.28 1.27-5.6.11-.32 3-5.49 2.43-7.5-.41-1.53 1.7-26.54 2.72-38.4.33-3.74.55-6.16.55-6.16l9.36-65.69.75-5.3.77-5.37 28.93 5.81z" opacity=".1"></path>
    <path fill="#AE6E79" d="M198.76 599.67c.1 1.16-14.89 2.85-17 1.58-2.11-1.27 0-17 0-17l1-7.18c-1.06-.11-2.64-5.81-1.9-7.19.74-1.38-.64-7.18-.64-7.18l-2.49-7.8-1.52-4.76c-2.46-5.45-6-21-8.26-32.6-1.4-7.29-2.29-13-2.09-13.77.53-1.9-.85-15.73-.85-15.73s-1.68-14-4-18.48c-1.54-2.94-4.55-14-6.42-21.09-.95-3.65-1.61-6.27-1.61-6.27s16-1.34 25.64-1.81c4.46-.21 7.58-.24 7.21.13-.37.37-.45 2.3-.43 5.09 0 7.25 1.05 20 2.12 23.42 1.48 4.75 3 19 2.32 20.38-.68 1.38-.42 10.56-.42 10.56a47.43 47.43 0 0 1 1.85 11.47 154.79 154.79 0 0 1-.37 20.64s1.59 25.66 1.16 28.09c-.43 2.43 3.38 10 3.38 11.51 0 1.51.96 11.51.96 11.51s2.26 15.32 2.36 16.48zM207.1 291.18l-1.82 2-1.18 1.27-6.92 7.35-17.85 2-9.48-2.54-2.35-.62s0-4.77.43-10.49c.6-7.33 2.05-16.24 5.49-18.66a13.64 13.64 0 0 0 4-5.09 28.49 28.49 0 0 0 1.73-4.27c.07-.19.12-.37.18-.55a46.79 46.79 0 0 0 1.68-7.84s2.28-1.26 5.44-2.73c8.27-3.86 22.55-9.18 17.58 2.73a44.91 44.91 0 0 0-1.86 5.36c-.08.26-.15.53-.21.79-1.66 6.64-.56 10.66.68 12.88a9 9 0 0 0 .72 1.09 5.5 5.5 0 0 0 1.2 1.22l2.06 13.05.17 1.08.31 1.97z"></path>
    <path fill="#000" d="M204.04 254.43c-.94 2.26.46-1.85 0 0-3.76 2.68-12.63 10.3-17.62 10.3-3.36 0-4.37-.61-7.26-1.91a46.9 46.9 0 0 0 1.86-8.39s29.88-16.48 23.02 0z" opacity=".1"></path>
    <path fill="#AE6E79" d="M211.63 240.55c.007 11.783-8.891 21.666-20.61 22.89-.8.089-1.605.132-2.41.13-12.703 0-23-10.297-23-23s10.297-23 23-23 23 10.297 23 23l.02-.02z"></path>
    <path fill="#000" d="M214.92 342.61l-3.27 8.56s-2.68.12-6.84.25c-14 .45-45 1-46.39-2.58a8.67 8.67 0 0 1-.48-2.84c-.19-5.5 2.38-13.95 2.38-13.95s1.48-16.9 1.48-17.63c0-.73-1.27-12.62-1.27-12.62l2.53-9.5 7.08-5s3.17 4.86 5.07 5.28c1.9.42 4.44 2.75 4.44 2.75s6.22 3.8 8.23 1.68c2.01-2.12 17.64-11.4 17.64-11.4l8.24 9.08 1.16 47.92z" opacity=".1"></path>
    <path fill="#FFF" d="M214.92 343.88l-3.27 8.56s-2.68.12-6.84.24h-.41l-6.07.16c-11.16.25-26.55.32-34.58-.85-3-.44-5-1-5.33-1.9a7 7 0 0 1-.38-1.57 12.58 12.58 0 0 1-.1-1.27c-.19-5.5 2.38-14 2.38-14s1.48-16.9 1.48-17.64c0-.74-1.27-12.57-1.27-12.57l2.53-9.5 4.87-3.41 2.21-1.55a31.92 31.92 0 0 0 2.43 3.19 6.36 6.36 0 0 0 2.64 2.08c1.9.43 4.44 2.75 4.44 2.75s6.22 3.81 8.23 1.69c1.54-1.62 11-7.43 15.42-10.08l2.22-1.33 1.11 1.23 7.13 7.86 1.16 47.91z"></path>
    <path fill="#000" d="M103.4 256.01l-9.19 6.45s-.08-1.3-.31-3.06c4.54-1.91 7.3-6.15 8.1-7.51.81 2.3 1.4 4.12 1.4 4.12z" opacity=".1"></path>
    <path fill="#3F3D56" d="M135.71 277.87l-2-.52s-3.28 3.48-5.18 3.9c-1.9.42-5.91 3.07-5.91 3.07l-4.65 3.69s-3.49.53-2.43-1.9c1.06-2.43-1.9-5.49-1.9-5.49s-5.91-12.15-5.91-14.68c0-2.53-4.86-13.2-4.86-13.2s-6.13 11.93-17.32 8.13c0 0 8.13 18.27 8.34 22.81.21 4.54 5.6 17.22 5.6 17.22s2 9.4 12.88 8.87c0 0 15 2.79 18.27 0 3.27-2.79 6.23-5 7.82-5.3a6.19 6.19 0 0 0 2.95-2.11V289.8l-5.7-11.93z"></path>
    <path fill="#000" d="M116.91 289.8s2.64 9.82 1 10.88l-1-10.88zM204.81 352.68c-14 .45-45 1-46.39-2.57a8.67 8.67 0 0 1-.48-2.84l45.89 2.42.98 2.99zM208.27 440.8s-.86 2.4-2.05 5.56c-5.83-.36-13.55-.73-20.88-.78-2.6 0-5.14 0-7.53.08a56.41 56.41 0 0 0-12.31 1.37 32.48 32.48 0 0 1-11 1.41c-.95-3.65-1.61-6.27-1.61-6.27s16-1.34 25.64-1.81l.77-5.37 28.97 5.81z" opacity=".1"></path>
    <path fill="#65617D" d="M220.62 402.18l-1.79 3.8s-.25 1.13-.57 2.93c-.68 3.86-1.7 10.85-1.34 16.4.54 8.13-1.16 20.48-1.16 20.48s-38.86-3.27-50.26 0c-11.4 3.27-17 0-17 0s1.37-12.25-2-18.58c-2.32-4.34-3.94-23.6-4-36.25 0-5.85.29-10.28 1-11.17 2.32-2.86 12.25-31.37 12.25-31.37l2.26.12 6 .32 34.39 1.81 5.39.28.57 1.75 16.26 49.48z"></path>
    <path fill="#4C4981" d="M237.73 389.5l.32 3.38s-17-5.54-16.16-12.35c.84-6.81 0-6 0-6l13.68 1.16 2.16 13.81z"></path>
    <path fill="#000" d="M237.73 389.5l.32 3.38s-17-5.54-16.16-12.35c.84-6.81 0-6 0-6l13.68 1.16 2.16 13.81zM128.27 292.53a15.17 15.17 0 0 0 6 3.12 3.9 3.9 0 0 1-1.77-.83c-1.22-.87-2.38-1.81-3.55-2.73-.94-.74-2.13-2-3.3-2.27a18.21 18.21 0 0 0 2.62 2.71zM128.53 296.98a7.35 7.35 0 0 1 1.31 2.09 8.4 8.4 0 0 1 .38 2.7 8.52 8.52 0 0 1-.47 3.83l-2.77-6.57c-.47-1.12-1-2.24-1.52-3.32-.25-.46-1.82-2.36-1.64-2.76.52-1.15 4.2 3.4 4.71 4.03zM204.67 333.42a8.84 8.84 0 0 0 5-2.31c-2.81.35-5.46 1.45-8.23 2a12.23 12.23 0 0 1-7.67-.7c3.15 1.58 7.48 1.63 10.9 1.01zM196.74 314.09a1.89 1.89 0 0 1-1.43-.36c-2.107-1.2-4.187-2.46-6.24-3.78a37.85 37.85 0 0 1-6.1-4.22c4.19 3.79 8.09 6.99 13.77 8.36zM202.6 336.49a13.42 13.42 0 0 0 3.29-.26 4.45 4.45 0 0 0 2.71-1.78 1.53 1.53 0 0 0-1.15.18 19.42 19.42 0 0 1-10.6 1.27c1.71.73 3.92.58 5.75.59zM182.59 385.52a33.89 33.89 0 0 1-6.75 1.33 41.43 41.43 0 0 1-5.34-.1l-8.65-.55-4.33-.28c-.51 0-2.6 0-1.57-1 .52-.49 3.41-.18 4.15-.2 1.44 0 2.87-.07 4.3-.08 2.86 0 5.73 0 8.59.18 3.213.127 6.413.36 9.6.7zM172.58 389.8c-1.47-.06-3.36.82-4.87 1a32.07 32.07 0 0 1-5.09.21 28.64 28.64 0 0 1-9.83-2c6.61.33 13.2.53 19.79.79zM154.08 394.33c.64.13 1.271.3 1.89.51 3.64 1.05 7.52.13 11.19-.78-.92 1.38-2.63 2-4.25 2.36a20 20 0 0 1-8.29.3c-.87-.17-3-.48-3.48-1.38-.66-1.33 2.13-1.14 2.94-1.01zM174.53 401.14a30.66 30.66 0 0 1 3.23.84c4.1 1 8.36-.38 12.48-1.32a57.73 57.73 0 0 1 15.11-1.4c-.91 0-2.35.8-3.24 1.07-1.17.35-2.35.67-3.53 1a71 71 0 0 1-7.06 1.38 72.31 72.31 0 0 1-14.48.63c-2.21-.12-6 .11-7.94-1a8.78 8.78 0 0 1 5.43-1.2zM176.06 270.89s.21 9.73-1.38 14.16c-.49 1.38-1.27 3.93-2.11 6.79-.93 3.17-1.94 6.72-2.72 9.47-.78 2.75-1.29 4.65-1.29 4.65s-3.57 29.06-4.5 42.9v.72c-.05.78-.14 1.59-.26 2.43-2.06 13.75-13.92 34.95-17.9 36.65a12 12 0 0 0-3.35 2.3c0-5.85.29-10.28 1-11.17 2.32-2.86 12.25-31.37 12.25-31.37l2.26.12a12.58 12.58 0 0 1-.1-1.27c-.19-5.5 2.38-14 2.38-14s1.48-16.9 1.48-17.64c0-.74-1.27-12.57-1.27-12.57l2.53-9.5 4.87-3.41c.6-7.33 2.05-16.24 5.49-18.66a13.64 13.64 0 0 0 4-5.09c.69.09-.56-.51-.56-.51l-.82 5z" opacity=".1"></path>
    <path fill="#3F3D56" d="M177.92 265.44a6.32 6.32 0 0 0-5.35.61c-2.43 1.68-7.18 1.58-8.45 1.26-1.27-.32-14.47-2-15.52-1.58-1.05.42-3.17-1.48-4.54 1.05-1.37 2.53-2 3.91-3.38 4.55-1.38.64-3.81 2.64-3.49 3.06.32.42-3.48 3-3.48 3l7.7 25s-5 31.68-7.39 34.42c-2.39 2.74-24 38.34-16.26 44.68a155.94 155.94 0 0 0 19.32 13c.85.42 3.91-5.28 8.14-7.08 4.23-1.8 17.32-25.61 18.18-39.09.86-13.48 4.54-43.62 4.54-43.62s4.54-16.48 6.13-20.91c1.59-4.43 1.33-14.17 1.33-14.17l2.52-4.18z"></path>
    <path fill="#000" d="M220.62 402.18l-1.79 3.8s-.25 1.13-.57 2.93a1.66 1.66 0 0 1-.91-.39c-2.64-2.12-18.17-18.06-18.9-32.22a255.41 255.41 0 0 1-.12-23.44c.06-1.26.1-2 .11-2.19 0 0 12-14.58 10.66-19.75-1.34-5.17-4.54-32.85-4.54-32.85l-.47-3.63-.8-6.13-1.89-14.86 2 .46a5.5 5.5 0 0 0 1.2 1.22l2.06 13.05 7.13 7.86 1.16 47.84-3.27 8.56s-2.68.12-6.84.24h-.41l16.19 49.5z" opacity=".1"></path>
    <path fill="#3F3D56" d="M227.28 323.18s-3-1.16-3.17 0c-.17 1.16-.74 3.69-.74 3.69s.52 6.13-1.69 8.56c-2.21 2.43-2.57 12.67-2.57 12.67s-3.55 10.14-1.87 13.31c.61 1.15 1.56 6.92 2.51 13.82.6 4.31 1.2 9.06 1.74 13.39 1 7.89 1.67 14.4 1.67 14.4s-1.9 7-4.54 4.86c-2.64-2.14-18.17-18.08-18.91-32.21-.52-9.95-.31-18.58-.14-22.84.08-1.81.14-2.83.14-2.83s12-14.57 10.67-19.74c-1.33-5.17-4.54-32.85-4.54-32.85l-.56-4.27-.59-4.6-.13-1-1.91-14.74c.34.07 12.19 2.75 13.75 4.31 1.56 1.56 11.19 3.8 11.19 3.8a8.47 8.47 0 0 1 6 6.16c.09.29.16.6.23.92 1.27 6.13.85 6.86 1.7 7.92.85 1.06-8.24 27.27-8.24 27.27z"></path>
    <path fill="#000" d="M221.49 388.62c-4.34-.84-10.73-2.85-10.59-7.25.14-4.13 5.1-5.61 8.85-6.14.65 4.31 1.2 9.06 1.74 13.39z" opacity=".1"></path>
    <path fill="#AE6E79" d="M234.88 386.44c-.17.37-.89.69-1.84 1a48.26 48.26 0 0 1-7 1.14s-14.68-1.16-14.47-7.81c.15-4.78 6.78-6 10.51-6.33 1.46-.13 2.48-.11 2.48-.11s10.96 10.74 10.32 12.11z"></path>
    <path fill="#000" d="M234.88 386.44c-.17.37-.89.69-1.84 1-3.83-5.12-9.17-11.69-11.78-12.27 0 0 .3-.29.79-.73 1.46-.13 2.48-.11 2.48-.11s10.99 10.74 10.35 12.11z" opacity=".1"></path>
    <path fill="#3F3D56" d="M231.18 295.3l4.33.63a74.44 74.44 0 0 0 5.18 7.92 8.61 8.61 0 0 1 1.9 5.07s6.34 9.4 8.34 10.46c2 1.06 5.07 8.24 5.07 8.24s5 3.27 5 7a61 61 0 0 0 .95 9.18c.1.53-.74 7.08-2.86 10.35-2.12 3.27-4.22 10.56-4.11 11.83.11 1.27-5.92 8-7.61 10.14a42.67 42.67 0 0 0-3.69 6.23l-5.6 10.56s-11.83-17.42-16.16-18.37c0 0 4.86-4.65 7.29-5.49 2.43-.84 4.75-7.82 4.86-9.4.11-1.58 2.21-6.87 4.43-7.82 2.22-.95 3.38-1.9 2.43-3.38-.95-1.48 0-4.33 0-4.33s-6.23-8.24-7.08-13c-.85-4.76-6.54-7.92-6.54-7.92l-3.28-8 7.15-19.9z"></path>
    <path fill="#000" d="M246.89 334.72a13.69 13.69 0 0 1 8.53-3.23c-2 .35-4.12.78-5.58 2.18a12.74 12.74 0 0 0-1.54 2c-.51.72-4.58 5.9-5.23 5.09-.97-1.24 3-5.34 3.82-6.04zM237.33 329.72a3.64 3.64 0 0 0 3-2.13 12 12 0 0 0 .94-3.75c.31-2.16.748-4.3 1.31-6.41a4.08 4.08 0 0 0 .21-1.34 3.79 3.79 0 0 0-.39-1.29 9.2 9.2 0 0 0-.92-1.92c-.79.89-1 2.88-1.33 4-.387 1.44-.757 2.88-1.11 4.32-.17.76-1.64 8.52-1.71 8.52zM233.59 287.09a9.42 9.42 0 0 1-1.46 1.5c-1.69 1.37-4 2.53-4.24 4.69a5.17 5.17 0 0 1-.25 2.09c-.55.94-1.91.87-3 .68a5.28 5.28 0 0 1-2.53-.93c-1.13-1-1.24-2.7-2.1-3.91a5.34 5.34 0 0 0-4.28-1.92c-1.62-.05-3.23.31-4.84.39a13.41 13.41 0 0 1-3.1-.21 13.12 13.12 0 0 1-3.11-.93 10.64 10.64 0 0 1-1-.48 13.59 13.59 0 0 1-3-2.07c-1.58-1.46-2.89-3.45-2.76-5.61a34.46 34.46 0 0 1 .9-3.84c.65-3.73-1.83-7.26-4.52-9.93-1.07-1.05-2.21-2.09-3.28-3.17a15.82 15.82 0 0 1-3.87-5.5 16.76 16.76 0 0 1-.69-6.88c.25-2.355.32-4.725.21-7.09-.8-8.4-8-14.83-15.14-18.34l-.31-.16a23 23 0 1 1 31 33.68c-.08.26-.15.53-.21.79-1.66 6.64-.56 10.66.68 12.88.34.07 12.19 2.75 13.75 4.31 1.56 1.56 11.19 3.8 11.19 3.8a8.47 8.47 0 0 1 5.96 6.16z" opacity=".1"></path>
    <path fill="#444053" d="M169.63 219.35c.47-.54 1.19-.82 1.67-1.35 1.49-1.62 0-4.27.55-6.41.59-2.38 3.5-3.42 5.94-3.16 2.44.26 4.72 1.37 7.15 1.64 3.78.43 7.44-1.21 11.13-2.17 3.69-.96 8.14-1 10.69 1.81 2.55 2.81 2.36 7.64 5.52 9.69 1.46.94 3.3 1 4.88 1.75a10.12 10.12 0 0 1 4.13 3.95 20.69 20.69 0 0 1 3.11 13.23c-.26 2.5-1 4.94-1.28 7.44a21.7 21.7 0 0 0 .51 7.78c.67 2.63 2.11 5.39 4.7 6.22a7.38 7.38 0 0 1 1.75.6c1.49.92 1.3 3.12.92 4.83l-1.6 7.05c1.48 1.13 3.77.64 5.21 1.83a4.23 4.23 0 0 1 1.21 1.9 10.39 10.39 0 0 1-3.1 11.34c-1.69 1.38-4 2.53-4.24 4.7a5 5 0 0 1-.25 2.08c-.55.94-1.91.87-3 .68a5.18 5.18 0 0 1-2.52-.93c-1.14-1-1.24-2.7-2.1-3.91a5.34 5.34 0 0 0-4.28-1.92c-1.63-.05-3.23.31-4.85.39a14.27 14.27 0 0 1-10.21-3.69 7.4 7.4 0 0 1-2.77-5.6 37 37 0 0 1 .9-3.85c.65-3.72-1.83-7.26-4.51-9.92-2.68-2.66-5.84-5.13-7.15-8.68-1.64-4.4 0-9.3-.49-14-.8-8.4-8-14.83-15.13-18.33-1.63-.79-4.35-2.88-2.49-4.99z"></path>
    <path fill="#000" d="M226.1 291.87c-1.13-1-1.23-2.69-2.09-3.91a5.38 5.38 0 0 0-4.29-1.91c-1.62-.05-3.22.31-4.84.39a14.32 14.32 0 0 1-10.21-3.64c-1.59-1.46-2.89-3.46-2.77-5.61a36.83 36.83 0 0 1 .9-3.84c.65-3.73-1.83-7.26-4.52-9.93-2.69-2.67-5.83-5.13-7.15-8.68-1.63-4.39 0-9.3-.48-14-.8-8.4-8-14.84-15.14-18.34-1.67-.82-4.39-2.9-2.53-5 .47-.54 1.18-.81 1.67-1.34 1.49-1.62 0-4.28.55-6.42a3.39 3.39 0 0 1 .54-1.17 4.57 4.57 0 0 0-3.89 3.07c-.53 2.14.94 4.8-.55 6.42-.48.53-1.2.8-1.67 1.34-1.86 2.12.86 4.2 2.54 5 7.17 3.51 14.33 9.94 15.13 18.34.44 4.66-1.15 9.57.49 14 1.31 3.55 4.46 6 7.15 8.68 2.69 2.68 5.16 6.2 4.51 9.93a37.44 37.44 0 0 0-.9 3.84c-.12 2.15 1.18 4.15 2.77 5.61a14.27 14.27 0 0 0 10.21 3.69c1.62-.08 3.22-.44 4.85-.39a5.36 5.36 0 0 1 4.28 1.91c.86 1.22 1 2.95 2.1 3.91a5.18 5.18 0 0 0 2.52.93c1.08.2 2.44.27 3-.68a2.36 2.36 0 0 0 .24-1.24 4.86 4.86 0 0 1-2.42-.96z" opacity=".1"></path>
  </g>
</svg>