<svg xmlns="http://www.w3.org/2000/svg" fill-rule="evenodd" stroke-linejoin="round" stroke-miterlimit="1.414" clip-rule="evenodd" viewBox="0 0 878 668">
  <path fill="gray" fill-opacity=".251" d="M878 13.643C878 6.113 872.014 0 864.641 0H13.359C5.986 0 0 6.113 0 13.643V367.68c0 7.529 5.986 13.642 13.359 13.642h851.282c7.373 0 13.359-6.113 13.359-13.642V13.643z"></path>
  <path fill="#fff" d="M874 16.899c0-7.306-5.932-13.238-13.238-13.238H17.238C9.932 3.661 4 9.593 4 16.899v343.525c0 7.306 5.932 13.237 13.238 13.237h843.524c7.306 0 13.238-5.931 13.238-13.237V16.899z"></path>
  <path fill="url(#_Linear1)" fill-rule="nonzero" d="M537.51 150.87h46.13v44.66h-46.13z"></path>
  <path fill="#f5f5f5" fill-rule="nonzero" d="M538.31 151.64h44.54v43.12h-44.54z"></path>
  <path fill="url(#_Linear2)" fill-rule="nonzero" d="M268.2 297.35h46.13v44.66H268.2z"></path>
  <path fill="#f5f5f5" fill-rule="nonzero" d="M269 298.12h44.54v43.12H269z"></path>
  <path fill="url(#_Linear3)" fill-rule="nonzero" d="M670.52 140.37h46.13v44.66h-46.13z"></path>
  <path fill="#f5f5f5" fill-rule="nonzero" d="M671.31 141.14h44.54v43.12h-44.54z"></path>
  <path fill="url(#_Linear4)" fill-rule="nonzero" d="M537.68 268.65h46.13v44.66h-46.13z"></path>
  <path fill="#f5f5f5" fill-rule="nonzero" d="M538.47 269.42h44.54v43.12h-44.54z"></path>
  <path fill="url(#_Linear5)" fill-rule="nonzero" d="M244.71 43.92h46.13v44.66h-46.13z"></path>
  <path fill="#f5f5f5" fill-rule="nonzero" d="M245.51 44.69h44.54v43.12h-44.54z"></path>
  <path fill="url(#_Linear6)" fill-rule="nonzero" d="M693.26 33.92h46.13v44.66h-46.13z"></path>
  <path fill="#f5f5f5" fill-rule="nonzero" d="M694.06 34.68h44.54V77.8h-44.54z"></path>
  <path fill="url(#_Linear7)" fill-rule="nonzero" d="M802.44 194.96h46.13v44.66h-46.13z"></path>
  <path fill="#f5f5f5" fill-rule="nonzero" d="M803.24 195.73h44.54v43.12h-44.54z"></path>
  <path fill="url(#_Linear8)" fill-rule="nonzero" d="M79.12 27.55h46.13v44.66H79.12z"></path>
  <path fill="#f5f5f5" fill-rule="nonzero" d="M79.92 28.32h44.54v43.12H79.92z"></path>
  <path fill="url(#_Linear9)" fill-rule="nonzero" d="M599.54 67.06h46.13v44.66h-46.13z"></path>
  <path fill="#7cfcff" fill-rule="nonzero" d="M600.34 67.83h44.54v43.12h-44.54z"></path>
  <path fill="url(#_Linear10)" fill-rule="nonzero" d="M320.22 161.68h46.13v44.66h-46.13z"></path>
  <path fill="#7cfcff" fill-rule="nonzero" d="M321.02 162.45h44.54v43.12h-44.54z"></path>
  <path fill="url(#_Linear11)" fill-rule="nonzero" d="M475.8 210.81h46.13v44.66H475.8z"></path>
  <path fill="#7cfcff" fill-rule="nonzero" d="M476.6 211.58h44.54v43.12H476.6z"></path>
  <path fill="url(#_Linear12)" fill-rule="nonzero" d="M529.73 44.12h46.13v44.66h-46.13z"></path>
  <path fill="#ffffa5" fill-rule="nonzero" d="M530.53 44.89h44.54v43.12h-44.54z"></path>
  <path fill="url(#_Linear13)" fill-rule="nonzero" d="M610.71 239.73h46.13v44.66h-46.13z"></path>
  <path fill="#ffffa5" fill-rule="nonzero" d="M611.5 240.5h44.54v43.12H611.5z"></path>
  <path fill="url(#_Linear14)" fill-rule="nonzero" d="M332.3 44.12h46.13v44.66H332.3z"></path>
  <path fill="#ffffa5" fill-rule="nonzero" d="M333.09 44.89h44.54v43.12h-44.54z"></path>
  <path fill="url(#_Linear15)" fill-rule="nonzero" d="M393.26 287.96h46.13v44.66h-46.13z"></path>
  <path fill="#ffffa5" fill-rule="nonzero" d="M394.05 288.72h44.54v43.12h-44.54z"></path>
  <path fill="url(#_Linear16)" fill-rule="nonzero" d="M273.68 159.34V162l-7.71-.67v16.63l-20.24 28.66-1.28-.73-2.75 3.33 26.14 16v-6l-1.47-.83c1.83-6.6 9.32-32.92 13.6-36.41 0 0 7.71-5.32 11.91-12.64s2.12-32.61-18.2-10z"></path>
  <path fill="url(#_Linear17)" fill-rule="nonzero" d="M232.76 222.07s-28-5.72-43.4-11.75a67.694 67.694 0 0 0-22.56-4.67l-16.8-.49-8.38-4.86 2.62-6.54c.26-.11.52-.23.77-.36l.24-1.4a40.618 40.618 0 0 0 4-1.16c-.41 3.26 20.08-13.6 20.08-13.6l-.61.31-.08-1-.23.12c9.497-12.907 9.771-30.524.68-43.72l.65-.58v-16.21l-.69-.59v-.07c-13.86-12.48-32.92-11.48-46.7-8.33-10.302 2.229-18.103 10.804-19.35 21.27-18.39 4.85-12.25 14.17-12.54 17.78-1.43 17.56 4.42 27.89 10.78 33.87a33.237 33.237 0 0 0 9.13 6.43l-4 7.78h-1.18l-3.28 9.32h-.16l-3.57 2.34c-22.18 14.4-33.29 40.1-28.48 65.46 4.81 25.36 20 37.73 13.76 75.47-2.08 12.68-1.21 20.44.87 25.16A45.087 45.087 0 0 1 80 386.78c-7.57 15.3-7.57 31.26 2.06 49.88l2.75 96.43s3.44 45.22 0 54.53c-3.44 9.31 1.38 53.87 1.38 53.87h-.69v24.61l51.6 1.33s12-5.52 14.19-9.68l25.91 7.7s28.51-4.75 11.83-11.31c-12.45-4.9-15.54-11.88-16.31-15.12l40.78-113.25s-7.57-96.43-35.09-129.68l-2.79-19.61h.38l5.85-114.49.48.06h-.14a135.8 135.8 0 0 0 45.41-.68 72.632 72.632 0 0 0 13.15-3.56l.78-.3h.16a40.179 40.179 0 0 0 9-4.94l17.2-25.4-26.19-17.43-8.94 12.33zm-108 389.49l13.05-88.4v-45.27l23.39 47.22L136 627.43l-1.32-.36-5.81 20.15a13.206 13.206 0 0 1-4.17-5.73l.06-29.93z"></path>
  <path fill="url(#_Linear18)" fill-rule="nonzero" d="M466.73 105.37h46.13v44.66h-46.13z"></path>
  <path fill="#ff69b4" fill-rule="nonzero" d="M467.53 106.13h44.54v43.12h-44.54z"></path>
  <path fill-opacity=".1" fill-rule="nonzero" d="M239.27 123.56h46.13v44.66h-46.13z"></path>
  <path fill="url(#_Linear19)" fill-rule="nonzero" d="M233.82 119.92h46.13v44.66h-46.13z"></path>
  <path fill="#ff69b4" fill-rule="nonzero" d="M234.61 120.69h44.54v43.12h-44.54z"></path>
  <path fill="url(#_Linear20)" fill-rule="nonzero" d="M802.46 77.16h46.13v44.66h-46.13z"></path>
  <path fill="#ff69b4" fill-rule="nonzero" d="M803.26 77.93h44.54v43.12h-44.54z"></path>
  <path fill="url(#_Linear21)" fill-rule="nonzero" d="M716.03 288.24h46.13v44.66h-46.13z"></path>
  <path fill="#ff69b4" fill-rule="nonzero" d="M716.82 289.01h44.54v43.12h-44.54z"></path>
  <path fill="#333" fill-rule="nonzero" d="M67.16 231.21l6.07 35.75"></path>
  <path fill="#fda57d" fill-rule="nonzero" d="M261.7 163.99v16.42l-19.56 28.66 19.56 12.73s8.7-33.5 13.38-37.45c0 0 7.36-5.26 11.37-12.48 4.01-7.22 2-32.19-17.39-9.85v1.72l-7.36.25zm-155.75 39.17l7.74-15.49a2.875 2.875 0 0 1 2.42-1.58l29.42-1.5a2.884 2.884 0 0 1 3.013 2.867c0 .353-.066.703-.193 1.033l-7.59 19.62a2.877 2.877 0 0 1-2.93 1.82l-29.57-2.63a2.881 2.881 0 0 1-2.612-2.858c0-.445.103-.884.302-1.282z"></path>
  <path fill="#edeef9" fill-rule="nonzero" d="M108.13 196.51l-5 14.65 51.31-1.84-19.71-11.82-26.6-.99zm130.4 14.78l2.63-3.28 22.33 13.14v5.91l-24.96-15.77z"></path>
  <path fill="#e23b4a" fill-rule="nonzero" d="M87.61 356.62a48.818 48.818 0 0 1-3.47 30.07c-7.23 15.11-7.23 30.88 2 49.27l2.63 95.26s3.28 44.67 0 53.87c-3.28 9.2 1.31 53.21 1.31 53.21h36.79v-29.56l12.48-87.37v-44.68l22.34 46.64L136 631.07l33.5 13.8 42-120.88s-7.23-95.26-33.5-128.1l-4.93-35.8-85.46-3.47z"></path>
  <path fill="#333" fill-rule="nonzero" d="M89.4 662.61V638.3h37.45s2.63 9.86 19.71 11.86c17.08 2-7.88 13.8-7.88 13.8l-49.28-1.35z"></path>
  <path fill="#333" fill-rule="nonzero" d="M129.85 647.47l6.52-23.42 36.07 10s-.11 10.2 15.81 16.68S177 661.96 177 661.96l-47.15-14.49z"></path>
  <path fill-opacity=".1" fill-rule="nonzero" d="M173.16 362.06l-85.55-3.46a47.862 47.862 0 0 1 .65 15.51c3.91 9.21 12.31 6.69 12.31 6.69l74.85-2.3-2.26-16.44z"></path>
  <path fill="#333" fill-rule="nonzero" d="M104.84 205.7l-3.41 2.31c-21.044 14.254-31.723 39.72-27.14 64.72 4.583 25 19.05 37.28 13.14 74.55-5.91 37.27 13.14 31.54 13.14 31.54l75.22-2.31 5.58-113.1s45.33 6.45 65.69-9.32L263.48 229l-25-17.2-8.48 12.18s-26.76-5.65-41.44-11.61a62.793 62.793 0 0 0-21.56-4.61l-62.16-2.06z"></path>
  <path fill-opacity=".1" fill-rule="nonzero" d="M105.5 387.68s-4.6 23 21.68 61.1m54.52-185.27S213.23 253 227.03 253c13.8 0 11.5 6 11.5 6s-22.01 9.77-56.83 4.51zm-35.75-77.61l-12.55 1.5c-.4 0-.76.55-1 1.32 2.76 5 6.21 7.94 10 7.94a7.74 7.74 0 0 0 3.8-1.05l1-5.81c.27-1.94-.37-4.01-1.25-3.9z"></path>
  <circle cx="137.19" cy="157.04" r="38.32" fill="#fda57d"></circle>
  <path fill-opacity=".1" fill-rule="nonzero" d="M169.78 119.38v16l-1.93 1.77a6.633 6.633 0 0 0-2.144 4.882 6.64 6.64 0 0 0 4.074 6.118c2.463 1.029-3.19 25.54-7.18 35.12 0 0-6.2.68-4.79-4 5.19-17.16-5.19-14-7.58-10.78-2.39 3.22.4 11.57.4 11.57s7.58 14-32.33 10.78c0 0-26.34-5.59-23.55-41.11.28-3.56-5.59-12.77 12-17.56 1.068-10.188 8.502-18.64 18.47-21 13.12-3.13 31.32-4.12 44.56 8.21z"></path>
  <path fill="#72351c" fill-rule="nonzero" d="M169.12 118.72v16l-1.93 1.77a6.633 6.633 0 0 0-2.144 4.882 6.64 6.64 0 0 0 4.074 6.118c2.463 1.029-3.19 25.54-7.18 35.12 0 0-6.2.68-4.79-4 5.19-17.16-5.19-14-7.58-10.78-2.39 3.22.4 11.57.4 11.57s7.58 14-32.33 10.78c0 0-26.34-5.59-23.55-41.11.28-3.56-5.59-12.77 12-17.56 1.068-10.188 8.502-18.64 18.47-21 13.13-3.13 31.32-4.12 44.56 8.21z"></path>
  <defs>
    <linearGradient id="_Linear1" x2="1" gradientTransform="matrix(0 -44.66 44.66 0 560.58 195.53)" gradientUnits="userSpaceOnUse">
      <stop offset="0" stop-color="gray" stop-opacity=".251"></stop>
      <stop offset=".54" stop-color="gray" stop-opacity=".251"></stop>
      <stop offset="1" stop-color="gray" stop-opacity=".251"></stop>
    </linearGradient>
    <linearGradient id="_Linear2" x2="1" gradientTransform="rotate(-90 316.64 25.37) scale(44.66)" gradientUnits="userSpaceOnUse">
      <stop offset="0" stop-color="gray" stop-opacity=".247"></stop>
      <stop offset=".54" stop-color="gray" stop-opacity=".118"></stop>
      <stop offset="1" stop-color="gray" stop-opacity=".098"></stop>
    </linearGradient>
    <linearGradient id="_Linear3" x2="1" gradientTransform="matrix(0 -44.66 44.66 0 693.58 185.03)" gradientUnits="userSpaceOnUse">
      <stop offset="0" stop-color="gray" stop-opacity=".247"></stop>
      <stop offset=".54" stop-color="gray" stop-opacity=".118"></stop>
      <stop offset="1" stop-color="gray" stop-opacity=".098"></stop>
    </linearGradient>
    <linearGradient id="_Linear4" x2="1" gradientTransform="matrix(0 -44.67 44.67 0 560.74 313.32)" gradientUnits="userSpaceOnUse">
      <stop offset="0" stop-color="gray" stop-opacity=".247"></stop>
      <stop offset=".54" stop-color="gray" stop-opacity=".118"></stop>
      <stop offset="1" stop-color="gray" stop-opacity=".098"></stop>
    </linearGradient>
    <linearGradient id="_Linear5" x2="1" gradientTransform="matrix(0 -44.67 44.67 0 267.78 88.59)" gradientUnits="userSpaceOnUse">
      <stop offset="0" stop-color="gray" stop-opacity=".247"></stop>
      <stop offset=".54" stop-color="gray" stop-opacity=".118"></stop>
      <stop offset="1" stop-color="gray" stop-opacity=".098"></stop>
    </linearGradient>
    <linearGradient id="_Linear6" x2="1" gradientTransform="matrix(0 -44.66 44.66 0 716.33 78.58)" gradientUnits="userSpaceOnUse">
      <stop offset="0" stop-color="gray" stop-opacity=".247"></stop>
      <stop offset=".54" stop-color="gray" stop-opacity=".118"></stop>
      <stop offset="1" stop-color="gray" stop-opacity=".098"></stop>
    </linearGradient>
    <linearGradient id="_Linear7" x2="1" gradientTransform="matrix(0 -44.66 44.66 0 825.51 239.62)" gradientUnits="userSpaceOnUse">
      <stop offset="0" stop-color="gray" stop-opacity=".247"></stop>
      <stop offset=".54" stop-color="gray" stop-opacity=".118"></stop>
      <stop offset="1" stop-color="gray" stop-opacity=".098"></stop>
    </linearGradient>
    <linearGradient id="_Linear8" x2="1" gradientTransform="rotate(-90 87.2 -14.99) scale(44.66)" gradientUnits="userSpaceOnUse">
      <stop offset="0" stop-color="gray" stop-opacity=".247"></stop>
      <stop offset=".54" stop-color="gray" stop-opacity=".118"></stop>
      <stop offset="1" stop-color="gray" stop-opacity=".098"></stop>
    </linearGradient>
    <linearGradient id="_Linear9" x2="1" gradientTransform="matrix(0 -44.66 44.66 0 622.61 111.72)" gradientUnits="userSpaceOnUse">
      <stop offset="0" stop-color="gray" stop-opacity=".247"></stop>
      <stop offset=".54" stop-color="gray" stop-opacity=".118"></stop>
      <stop offset="1" stop-color="gray" stop-opacity=".098"></stop>
    </linearGradient>
    <linearGradient id="_Linear10" x2="1" gradientTransform="rotate(-90 274.82 -68.47) scale(44.67)" gradientUnits="userSpaceOnUse">
      <stop offset="0" stop-color="gray" stop-opacity=".247"></stop>
      <stop offset=".54" stop-color="gray" stop-opacity=".118"></stop>
      <stop offset="1" stop-color="gray" stop-opacity=".098"></stop>
    </linearGradient>
    <linearGradient id="_Linear11" x2="1" gradientTransform="matrix(0 -44.67 44.67 0 498.87 255.48)" gradientUnits="userSpaceOnUse">
      <stop offset="0" stop-color="gray" stop-opacity=".247"></stop>
      <stop offset=".54" stop-color="gray" stop-opacity=".118"></stop>
      <stop offset="1" stop-color="gray" stop-opacity=".098"></stop>
    </linearGradient>
    <linearGradient id="_Linear12" x2="1" gradientTransform="matrix(0 -44.66 44.66 0 552.8 88.78)" gradientUnits="userSpaceOnUse">
      <stop offset="0" stop-color="gray" stop-opacity=".247"></stop>
      <stop offset=".54" stop-color="gray" stop-opacity=".118"></stop>
      <stop offset="1" stop-color="gray" stop-opacity=".098"></stop>
    </linearGradient>
    <linearGradient id="_Linear13" x2="1" gradientTransform="matrix(0 -44.67 44.67 0 633.78 284.4)" gradientUnits="userSpaceOnUse">
      <stop offset="0" stop-color="gray" stop-opacity=".247"></stop>
      <stop offset=".54" stop-color="gray" stop-opacity=".118"></stop>
      <stop offset="1" stop-color="gray" stop-opacity=".098"></stop>
    </linearGradient>
    <linearGradient id="_Linear14" x2="1" gradientTransform="matrix(0 -44.66 44.66 0 355.37 88.78)" gradientUnits="userSpaceOnUse">
      <stop offset="0" stop-color="gray" stop-opacity=".247"></stop>
      <stop offset=".54" stop-color="gray" stop-opacity=".118"></stop>
      <stop offset="1" stop-color="gray" stop-opacity=".098"></stop>
    </linearGradient>
    <linearGradient id="_Linear15" x2="1" gradientTransform="rotate(-90 374.47 -41.85) scale(44.66)" gradientUnits="userSpaceOnUse">
      <stop offset="0" stop-color="gray" stop-opacity=".247"></stop>
      <stop offset=".54" stop-color="gray" stop-opacity=".118"></stop>
      <stop offset="1" stop-color="gray" stop-opacity=".098"></stop>
    </linearGradient>
    <linearGradient id="_Linear16" x2="1" gradientTransform="matrix(0 -75.04 75.04 0 267.7 225.18)" gradientUnits="userSpaceOnUse">
      <stop offset="0" stop-color="gray" stop-opacity=".247"></stop>
      <stop offset=".54" stop-color="gray" stop-opacity=".118"></stop>
      <stop offset="1" stop-color="gray" stop-opacity=".098"></stop>
    </linearGradient>
    <linearGradient id="_Linear17" x2="1" gradientTransform="rotate(-90 417.82 249.6) scale(562.27)" gradientUnits="userSpaceOnUse">
      <stop offset="0" stop-color="gray" stop-opacity=".247"></stop>
      <stop offset=".54" stop-color="gray" stop-opacity=".118"></stop>
      <stop offset="1" stop-color="gray" stop-opacity=".098"></stop>
    </linearGradient>
    <linearGradient id="_Linear18" x2="1" gradientTransform="matrix(0 -44.66 44.66 0 489.8 150.03)" gradientUnits="userSpaceOnUse">
      <stop offset="0" stop-color="gray" stop-opacity=".247"></stop>
      <stop offset=".54" stop-color="gray" stop-opacity=".118"></stop>
      <stop offset="1" stop-color="gray" stop-opacity=".098"></stop>
    </linearGradient>
    <linearGradient id="_Linear19" x2="1" gradientTransform="matrix(0 -44.67 44.67 0 256.88 164.59)" gradientUnits="userSpaceOnUse">
      <stop offset="0" stop-color="gray" stop-opacity=".247"></stop>
      <stop offset=".54" stop-color="gray" stop-opacity=".118"></stop>
      <stop offset="1" stop-color="gray" stop-opacity=".098"></stop>
    </linearGradient>
    <linearGradient id="_Linear20" x2="1" gradientTransform="matrix(0 -44.66 44.66 0 825.53 121.82)" gradientUnits="userSpaceOnUse">
      <stop offset="0" stop-color="gray" stop-opacity=".247"></stop>
      <stop offset=".54" stop-color="gray" stop-opacity=".118"></stop>
      <stop offset="1" stop-color="gray" stop-opacity=".098"></stop>
    </linearGradient>
    <linearGradient id="_Linear21" x2="1" gradientTransform="rotate(-90 536 -203.09) scale(44.67)" gradientUnits="userSpaceOnUse">
      <stop offset="0" stop-color="gray" stop-opacity=".247"></stop>
      <stop offset=".54" stop-color="gray" stop-opacity=".118"></stop>
      <stop offset="1" stop-color="gray" stop-opacity=".098"></stop>
    </linearGradient>
  </defs>
</svg>