<svg xmlns="http://www.w3.org/2000/svg" viewBox="0 0 1033 728">
  <g fill="#ffffff" fill-rule="evenodd">
    <path d="M41.02 684.783a553.975 553.975 0 0 0-34.811 42.43c101.677-69.841 222.336-101.776 341.427-94.777 119.09 7 177.094-98.33 189.757-119.615-177.513-30-366.286 28.485-496.373 171.962z"></path>
    <path d="M746.475 573.967l-.015.124c-70.229-48.045-152.754-80.318-243.076-91.099-85.388-10.172-168.519-.055-244.563 26.551l.01-.012C155.533 545.685 65.304 612.288.249 699.806c36.493-298.79 307.726-511.925 606.583-476.288 54.025 6.442 105.26 20.573 152.744 41.168 13.835-25.316 38.45-43.415 66.976-48.89C706.933 177.896 606.809 100.548 539.339.489c9.236.632 18.506 1.5 27.802 2.608C727.447 22.213 863.198 109.03 949.243 231.562c38.716 55.134 67.369 117.5 83.668 184.182-25.192 25.9-61.816 41.586-100.444 36.98-23.925-2.853-45.365-12.56-62.59-26.926-11.359-8.128-25.288-12.88-40.32-12.8-28.617.153-53.063 17.776-63.29 43.12 76.363 64.464 124.181 160.148 125.83 264.65-38.612-57.439-87.98-107.425-145.622-146.801z"></path>
  </g>
</svg>